<svg xmlns="http://www.w3.org/2000/svg" viewBox="0 0 889.23 554.12"><defs><style>.cls-1{fill:#161616;}.cls-2{fill:#0096ba;}.cls-2,.cls-3{opacity:0.47;}.cls-3{fill:#c12f8a;}</style></defs><title>devices_illo</title><g id="Layer_2" data-name="Layer 2"><g id="Draw_Layer" data-name="Draw Layer"><path class="cls-1" d="M148,354.08,146.26,356l.26,0,1.14-.08q1.76-2.82,3.55-5.61c-1.09,1.25-2.15,2.51-3.24,3.76Z"/><path class="cls-1" d="M803.83,370.73c-1.32.9-2.51,2-3.76,3l-3.17,2.58c-1.95,1.6-3.86,3.24-5.8,4.85-4.06,3.39-8.17,6.71-12.25,10.08-8.84,7.29-17.54,14.74-26.27,22.17C744.8,420,737.25,426.94,729.9,434q-12.52,12.07-24.77,24.42c-6.76,6.79-13.6,13.53-20.09,20.59-3.38,3.68-6.77,7.35-10.22,11-1.74,1.83-3.49,3.66-5.22,5.49l-3,3.11a35.23,35.23,0,0,0-3.11,3.88,18.5,18.5,0,0,0-2.16,5.09,6.22,6.22,0,0,0,9.14,7,6.51,6.51,0,0,0,2.86-3.71c.13-.4.25-.8.39-1.2a11.63,11.63,0,0,1,.64-1.07c1.74-2.05,3.67-3.93,5.53-5.86s3.91-4.07,5.86-6.11c3.66-3.83,7.21-7.8,10.92-11.58q11.56-11.77,23.31-23.37c8-7.83,16-15.61,24.12-23.21,2-1.82,3.88-3.7,5.88-5.47l7.3-6.44c3.66-3.23,7.43-6.34,11.16-9.49,13.83-11.71,27.91-23.12,42-34.48a6.85,6.85,0,0,0,2.53-2.46l.09-.14a6.85,6.85,0,0,0-1.07-8.24,7.19,7.19,0,0,0-5-2,5.67,5.67,0,0,0-3.24,1Z"/><path class="cls-1" d="M313.2,376.39a4.35,4.35,0,0,0-1.55,5.95,4.66,4.66,0,0,0,2.59,2l1.89.76c2.26,1.06,4.46,2.18,6.65,3.38s4.65,2.53,7,3.67c4.74,2.27,9.52,4.42,14.25,6.69,10.22,4.92,20.4,9.93,30.6,14.9,5,2.45,10,4.85,15.05,7.25s10,4.64,15,6.91q15.07,6.83,30.41,13.05,13.13,5.32,26.3,10.5l18.32,7.75-.85-.36,3.51,1.48.46.2,1,.42,1.05.44.15.06-.11,0,.55.23-.25-.11,2.87,1.21-.35-.15,6.69,2.83.14.06-.13-.06.22.09.08,0,.4.16.59.25-.23-.09.29.12-.44-.19.58.25.13.06.18.07-.36-.15.59.25.06,0,.58.25c.37.18.78.33,1.3.55l-1-.41.16.07c10.4,4.39,20.77,8.87,31.14,13.33q7.41,3.19,14.84,6.35c2.06.88,4.1,1.77,6.19,2.57L560.17,493c4.2,1.61,8.46,3.06,12.7,4.56,3.9,1.39,7.85,2.65,11.8,3.89,4.88,1.53,9.75,3.07,14.6,4.69,1.81.6,3.63,1.19,5.42,1.87l6.65,2.51a6.19,6.19,0,0,0-1.73,8.16,6.5,6.5,0,0,0,3.72,2.86c5.16,1.66,10.37,3.2,15.56,4.76l8.85,2.65,3.43,1c1.77.53,3.52,1.13,5.3,1.63a28.85,28.85,0,0,0,6.19,1c3.59.2,6.47-3.12,6.52-6.52a14.09,14.09,0,0,0-.29-2.5,7.12,7.12,0,0,0-2.06-3.3,15.5,15.5,0,0,0-3.15-2.18c-1.23-.79-2.48-1.55-3.72-2.32-2.33-1.44-4.71-2.79-7.08-4.14-2.08-1.19-4.17-2.41-6.34-3.44q-4-1.92-8.09-3.76c-5.45-2.49-11-4.84-16.6-6.89-5-1.82-10-3.54-15.08-5.07-5.66-1.7-11.3-3.41-16.94-5.2-5-1.59-10-3.34-15-5.05-2.8-1-5.56-2.05-8.33-3.08-2-.73-4-1.41-5.91-2.21-5-2.07-9.95-4.11-14.92-6.2Q519.18,463.8,502.7,457l-.11-.07a6,6,0,0,0-1.07-.48,5.44,5.44,0,0,0-1-.33l-13-5.35a5.15,5.15,0,0,0-1.17-.48l-13.68-5.63c-4.4-1.8-8.8-3.6-13.24-5.3-4.87-1.87-9.75-3.72-14.61-5.61l-9.72-3.81c-1.9-.74-3.81-1.45-5.69-2.23q-7.19-3-14.36-6c-5.18-2.28-10.36-4.53-15.54-6.8-4.94-2.16-9.81-4.52-14.71-6.78-9.51-4.4-18.91-9-28.41-13.46-6.88-3.19-13.81-6.27-20.7-9.45-3-1.4-6-2.91-8.91-4.47a100.22,100.22,0,0,0-10.3-4.79,3,3,0,0,0-1.08-.18,4.82,4.82,0,0,0-2.28.62Zm183,89.73.31.13h0l0,0-.29-.12Zm.65.28.24.1.09,0h0l-.33-.13Zm1.74.73-.1,0,.1,0Zm-3-1.27-.36-.16-.48-.2-.09,0,.93.39Zm-6.44-2.72-1-.41,1,.41ZM485,461.4l0,0-.71-.3.75.32Zm-6.05-2.56-.45-.19.45.19Z"/><path class="cls-1" d="M498.56,246.41a2.05,2.05,0,0,0-1.35.56,1.89,1.89,0,0,0-.49,1.86,4.65,4.65,0,0,0,.65,1.25,6.42,6.42,0,0,0,1.26,1.18,15.2,15.2,0,0,0,1.68,1.21l3.26,2c1.48.9,3,1.69,4.52,2.5s2.94,1.64,4.44,2.37l6.47,3.16c1.25.61,2.48,1.25,3.74,1.82l6.14,2.73c3.23,1.45,6.45,2.9,9.72,4.26q23,9.6,46.18,18.95c14.62,5.94,29.42,11.38,44.21,16.87,2.41.9,4.82,1.8,7.25,2.62l15,5.08c7.3,2.47,14.72,4.62,22.1,6.87,3,.92,6,1.8,9,2.68,3.41,1,6.83,2,10.22,3l13.94,4.41c3,1,6,2.09,9,3.18l9,3.29,11.15,4.89c3.36,1.47,6.6,3.2,9.88,4.84,1.28.63,2.58,1.24,3.83,1.92l6.07,3.31c1.36.74,2.75,1.44,4.08,2.23l6.33,3.74c1.14.67,2.25,1.36,3.37,2.08,1.57,1,3.19,1.95,4.72,3l1.07.76c-.52-.08-1-.14-1.57-.21a6.13,6.13,0,0,0-5.29,9.21,6,6,0,0,0,3.67,2.82c2.32.44,4.68.75,7,1,3.34.38,6.68.86,10,1.05.62,0,1.24.09,1.87.11a15.71,15.71,0,0,0,2.81-.32,6.4,6.4,0,0,0,2.45-1l1.23-.94c.42-.53.82-1.06,1.22-1.6l.61-1.45a6,6,0,0,0,0-3.21,6.85,6.85,0,0,0-1-2.18,8.36,8.36,0,0,0-2.46-2.46c-.33-.23-.66-.45-1-.69-1.57-1.16-3.17-2.3-4.77-3.42a219.68,219.68,0,0,0-18.61-11.9l-6.42-3.58c-1.35-.76-2.75-1.44-4.13-2.15L754.65,341c-1.27-.66-2.58-1.23-3.86-1.85-3.65-1.73-7.26-3.52-11-5.07l-12.35-5.16c-.31-.13-.64-.22-1-.33l-3-1.05-7.9-2.73-4.54-1.57c-1.35-.46-2.74-.81-4.1-1.21l-12.43-3.69c-4.09-1.21-8.23-2.27-12.34-3.41-7.7-2.13-15.39-4.36-23.07-6.57-2.66-.75-5.27-1.62-7.9-2.47L637,301.3c-2.78-.89-5.53-1.92-8.28-2.89l-13.48-4.75c-7.23-2.55-14.44-5.22-21.66-7.84-3.16-1.14-6.29-2.41-9.43-3.62l-11.78-4.53c-6.64-2.56-13.29-5.09-19.92-7.67l-8.86-3.45c-1.86-.72-3.74-1.41-5.58-2.17q-6.49-2.69-13-5.35c-3.67-1.64-7.38-3.2-11-4.94l-6.95-3.35c-.95-.45-1.87-1-2.8-1.43l-.37-.18.81,0c1.95.1,3.9.05,5.84,0,1.18-.05,1.19-1.88,0-1.84a48.65,48.65,0,0,1-7.44-.12c-1.14-.17-2.26-.42-3.39-.58a6.41,6.41,0,0,0-1.06-.21Z"/><path class="cls-1" d="M514.84,222.24a17.6,17.6,0,0,0-4.06,1.63c-.52.25-1,.53-1.51.82-1.68.95-3.35,1.93-5,3a6.21,6.21,0,0,0-2.78,3.61,6.5,6.5,0,0,0-.2,1.17c-3.76,2.27-7.55,4.5-11.33,6.76-7.87,4.69-15.79,9.31-23.84,13.7-4.52,2.47-9.06,4.87-13.64,7.24-4.29,2.22-8.55,4.5-12.82,6.77-4.08,2.18-8.06,4.52-12.07,6.83-1.6.92-3.24,1.81-4.82,2.78l-6.42,4c-3.65,2.25-7.32,4.48-10.92,6.82L392,296.06c-1.66,1.08-3.24,2.31-4.86,3.47l-8.15,5.8c-3.58,2.55-7,5.29-10.5,8l-6.15,4.77c-1.38,1.07-2.68,2.27-4,3.39-3.6,3.06-7.23,6.06-10.69,9.25-3.71,3.44-7.41,6.88-11.06,10.38-1.51,1.44-3.05,2.87-4.52,4.37l-5.63,5.7c-.77.78-1.45,1.67-2.16,2.5l-2.41,2.79c-.69.8-1.33,1.66-2,2.5s-1.41,1.74-2.08,2.64L315.28,365c-.6.8-1.12,1.66-1.66,2.5-1.43,2.2-2.7,4.49-4,6.78A2.53,2.53,0,1,0,314,376.8c1.36-2.42,2.71-4.81,4.23-7.13.58-.88,1.14-1.75,1.78-2.59s1.42-1.85,2.12-2.78c1.28-1.56,2.53-3.17,3.88-4.68,1.53-1.7,3-3.51,4.64-5.11l5.89-5.75c1.81-1.75,3.71-3.41,5.56-5.11,3.62-3.33,7.31-6.57,11-9.83,1.1-1,2.22-1.9,3.36-2.83l7.74-6.31,2.15-1.75,12.34-9.19c3.55-2.64,7.29-5.05,10.95-7.55l5.84-4c1.35-.92,2.79-1.74,4.18-2.62q4.34-2.68,8.65-5.39c1.25-.78,2.49-1.59,3.76-2.33,4.79-2.82,9.58-5.62,14.36-8.44,1.36-.79,2.77-1.52,4.15-2.28l8.6-4.69c4.1-2.24,8.33-4.24,12.51-6.33s8.33-4.07,12.51-6.08c1.81-.88,3.59-1.82,5.38-2.73s3.78-1.89,5.64-2.88c4.41-2.35,8.82-4.69,13.19-7.09q12.3-6.74,24.61-13.44l4.41-2.4,2.06-1.12c.28-.13.55-.28.81-.43a7.36,7.36,0,0,0,2.67-2.44,4.81,4.81,0,0,0,.79-1.7l.21-1.59a5.87,5.87,0,0,0-.81-3,6,6,0,0,0-3.7-3,6.38,6.38,0,0,0-2-.32,12.07,12.07,0,0,0-2.57.33ZM322.44,363.9l-.12.16.12-.16Z"/><path class="cls-1" d="M548,2.87a2.31,2.31,0,0,0-1.37,1.06,2.07,2.07,0,0,0-.3,1.09l-.06.19a7.82,7.82,0,0,0-.46,1.22l-.45,1.67q-.33,1.22-.66,2.46c-.61,2.28-1.21,4.57-1.82,6.85C542,21,541,24.53,540,28.06q-3.57,12.26-7.27,24.46-6.9,22.77-13.84,45.5c-2.29,7.49-4.4,15-6.55,22.54-.35,1.22-.63,2.47-.94,3.69-.7,2.78-1.41,5.56-2.11,8.33-.79,3.1-1.58,6.21-2.35,9.32q-3.21,12.82-6.41,25.66c-1.9,7.58-3.57,15.22-5.24,22.87q-2.38,11-4.2,22.07c-1.31,8-2.65,16.08-3.82,24.15-.49,3.36-.84,6.74-1.18,10.12q-.21,2.07-.39,4.14l-.09,1-.06.63a9.07,9.07,0,0,0,.18,2.74,7.85,7.85,0,0,0,2.06,4.06,8.56,8.56,0,0,0,3.76,2,6.11,6.11,0,0,0,6.14-10c0-.54.06-1.07.08-1.6.05-1.05.09-2.11.15-3.17.15-2.45.34-4.88.55-7.33.37-4.18,1-8.35,1.5-12.51l1.5-11c.54-3.95,1.17-7.89,1.79-11.83q.83-5.26,1.84-10.51c.74-3.81,1.43-7.63,2.24-11.43s1.61-7.78,2.5-11.65l3.09-13.55q2.45-10.74,4.94-21.46c.66-2.8,1.31-5.6,2-8.39.3-1.33.58-2.66.93-4q1.75-6.68,3.52-13.34c1.86-7,3.92-14,5.89-21.07,2.17-7.75,4.35-15.51,6.48-23.27q1.47-5.3,2.91-10.58c1.13-4.17,2.32-8.32,3.4-12.5l2.58-10.08c.67-2.6,1.27-5.22,1.87-7.84.65-2.8,1.27-5.6,1.85-8.42.64-3.07,1.29-6.15,1.65-9.27,0-.21.06-.42.08-.63a5.08,5.08,0,0,0-.15-1.45A2.31,2.31,0,0,0,548,2.87Z"/><path class="cls-1" d="M879.6,85.88a7,7,0,0,0-4.19,3.21,7.3,7.3,0,0,0-.71,5.4c.17.74.33,1.48.46,2.22a26.86,26.86,0,0,1-.11,4.21c-.71,4.24-1.88,8.4-2.95,12.55-.64,2.52-1.31,5-2,7.53l-4.47,16.79c-1.36,5.1-2.76,10.19-4.15,15.28-1.44,5.3-2.75,10.64-4.13,16-1.45,5.6-2.69,11.27-4,16.9-1.3,5.45-2.47,10.95-3.7,16.42s-2.27,10.83-3.4,16.24-2.27,10.63-3.4,15.95c-1.1,5.13-2.26,10.25-3.39,15.37-1.06,4.8-2.05,9.63-3.22,14.4-2.75,11.26-5.54,22.5-8.29,33.75-1.28,5.28-2.69,10.52-4.08,15.77s-2.49,10.37-3.56,15.59q-1,4.89-1.93,9.78a6.87,6.87,0,0,0-6,6.73c0,7.42.05,14.88.37,22.3a7,7,0,0,0,13,3.52,17.22,17.22,0,0,0,1.59-5.5c.26-1.28.52-2.57.77-3.86.5-2.6,1-5.2,1.48-7.8,1.05-5.57,2.13-11.13,3.2-16.7,1-5.25,2.16-10.46,3.4-15.66,1.3-5.44,2.75-10.84,4.18-16.24,1.25-4.72,2.3-9.49,3.47-14.22q2.11-8.52,4.21-17.07c2.74-11.17,5.15-22.42,7.63-33.66,2.38-10.79,4.61-21.62,6.87-32.44s4.84-21.47,7.39-32.18,5.44-21.19,8.31-31.75c2.81-10.37,5.58-20.77,8.24-31.18.67-2.62,1.34-5.23,1.84-7.88a47.21,47.21,0,0,0,.82-6.91,30.87,30.87,0,0,0-1-7.94,6.94,6.94,0,0,0-6.83-5.12,6.57,6.57,0,0,0-1.77.24Z"/><path class="cls-1" d="M548.9.62a1.93,1.93,0,0,0-.9,1.6,1.17,1.17,0,0,0,1.17,1.18h.05l.78.16.14,0c2.44,1.11,5,2,7.47,2.93.44.17.64-.55.19-.71l-.19-.07,2.27.71c1.68.52,3.4,1,5.1,1.43s3.69,1,5.53,1.52c7.1,1.95,14.22,3.83,21.34,5.71,6.47,1.72,13,3.27,19.47,5q11.63,3,23.22,6.16c14.32,3.85,28.74,7.31,43.13,10.84,6.92,1.7,13.88,3.25,20.83,4.84,2.4.55,4.79,1.15,7.21,1.63l13.68,2.72c2.61.51,5.2,1.07,7.81,1.52l13.64,2.36c7.22,1.24,14.44,2.42,21.68,3.61s14.54,2.34,21.82,3.5c3,.47,5.93,1,8.9,1.53l7.12,1.25c.84.15,1.67.31,2.51.49l13,3c1.07.24,2.11.54,3.17.82l7.45,2c6.91,1.83,13.75,3.93,20.6,6,2.91.87,5.8,1.77,8.7,2.68l-1.72.25-.66.07-1.63.22a6.16,6.16,0,0,0-4.5,5.91,6.14,6.14,0,0,0,1.8,4.34l1.24,1a6.12,6.12,0,0,0,3.09.83c4-.4,8-1,12-1.61,2.55-.39,5.13-.72,7.66-1.24a9.85,9.85,0,0,0,1.59-.52A9.58,9.58,0,0,0,876.94,83a8.1,8.1,0,0,0,2.52-2.56,7.75,7.75,0,0,0,1-3.54,6.44,6.44,0,0,0-.83-3.54,7.89,7.89,0,0,0-2.46-2.52A19.46,19.46,0,0,0,873,68.68a195.34,195.34,0,0,0-20.62-6.58q-4.77-1.37-9.55-2.65l-6.42-1.73c-1.5-.41-3-.85-4.53-1.23l-12.06-3c-1-.23-1.92-.42-2.89-.63l-7.52-1.57-4.75-1c-1.3-.27-2.65-.42-4-.63l-12-1.92c-3.93-.62-7.87-1.13-11.79-1.69-2.63-.37-5.24-.75-7.86-1.14-7.18-1.07-14.37-2.12-21.53-3.25s-14.38-2.16-21.52-3.47l-14.82-2.71c-2.16-.39-4.32-.8-6.47-1.27L690,31.1c-2.45-.52-4.91-1-7.35-1.58-7.36-1.68-14.72-3.33-22.07-5-6.87-1.61-13.76-3.15-20.61-4.83-7.35-1.8-14.68-3.62-22-5.34-3.54-.83-7.08-1.71-10.64-2.49L594.74,9.06C587.8,7.54,580.88,5.93,574,4.38q-4.82-1.08-9.64-2.12C560.87,1.51,557.44.69,554,.16A21.35,21.35,0,0,0,551.43,0h-.14a4.79,4.79,0,0,0-2.39.62Zm1.26,3,.05,0-.05,0ZM870.68,72.31l-.22.17.22-.17Z"/><path class="cls-1" d="M404.57,318.36a3.41,3.41,0,0,0-.54.1,1.63,1.63,0,0,0-.49.14,1.44,1.44,0,0,0-.42.24,1.47,1.47,0,0,0-.25.52.52.52,0,0,0,.23.57,4.88,4.88,0,0,0,.8.46l.45.22.79.39,1.56.78a.48.48,0,0,0,.66-.17.48.48,0,0,0-.18-.65l-1.56-.78-.79-.4-.44-.23-.1,0,.34-.06a6.22,6.22,0,0,1,1.22,0,21.81,21.81,0,0,1,3.46.84,42.23,42.23,0,0,1,4,1.49c4.28,1.81,8.45,3.86,12.57,6,2,1.05,4,2.11,6,3.22l11.28,6.33,5,2.81c.48.28,1,.55,1.45.81l9.62,5.13,11.24,6c.49.26,1,.54,1.47.78l3,1.45,21.72,10.46c1.76.84,3.55,1.63,5.32,2.43l12.94,5.91,8.89,4.06c1.76.8,3.54,1.56,5.31,2.34l22.78,10c1.54.68,3.09,1.31,4.64,1.95l12.72,5.32L580,401.31c1.55.65,3.12,1.25,4.68,1.85L606,411.48c.72.28,1.46.52,2.19.78l5.79,2.06,12.52,4.44c1.85.66,3.72,1.28,5.59,1.9l13,4.31c12.09,4,24.18,8,36.28,12,1.51.49,3,1,4.54,1.46l5.59,1.75q5.89,1.88,11.8,3.71a1.93,1.93,0,0,0,1-3.73c-3.26-1-6.55-2-9.82-2.91L690.1,436c-1.57-.46-3.15-.88-4.72-1.36-3-.94-6.12-1.85-9.17-2.8L665,428.31q-8.41-2.64-16.8-5.32l-11.23-3.57-6-1.91c-.68-.21-1.36-.42-2-.65l-21.42-7.37c-1.79-.61-3.54-1.32-5.31-2l-13.25-5-5.38-2c-.66-.25-1.33-.49-2-.75L574,396.58,553.3,388.1h0l.23.1c-6.73-2.93-13.47-5.83-20.2-8.75L525,375.85c-1.95-.84-3.89-1.75-5.83-2.62l-21.36-9.61-1.49-.71-4.75-2.26-12.94-6.15-4.75-2.26c-.5-.24-1-.46-1.5-.72l-8.82-4.66-11.72-6.19c-1.65-.87-3.28-1.77-4.91-2.68l-15.16-8.45c-1.75-1-3.52-1.88-5.29-2.8-3-1.57-6-3.07-9.09-4.46a64.81,64.81,0,0,0-8.84-3.41,11.91,11.91,0,0,0-3.24-.56,5.11,5.11,0,0,0-.78.05Zm1.16,1.08h0Z"/><path class="cls-1" d="M421.05,303a.3.3,0,0,0-.2.5c.23.24.45.48.69.71a8,8,0,0,0,.82.62c.76.56,1.58,1,2.39,1.54.45.29.94.55,1.4.82l5.1,2.95c.72.42,1.45.82,2.17,1.22l5.5,3.07c2,1.09,3.94,2.21,5.94,3.26l10.67,5.68c1.77.94,3.54,1.92,5.34,2.82l9.29,4.65,10.37,5.2c1.26.63,2.54,1.23,3.82,1.83l20.82,9.65c1.2.56,2.41,1.09,3.63,1.62l10.74,4.68c4.77,2.07,9.51,4.18,14.29,6.2l21.52,9.1,4.3,1.82,0,0c4.55,1.92,9.12,3.81,13.68,5.72s9.11,3.83,13.67,5.72h0l18.69,7.92c1.74.73,3.48,1.5,5.23,2.21l9.61,3.91c3.7,1.5,7.39,3,11.09,4.5,4.69,1.86,9.39,3.71,14.06,5.59l8.91,3.85,3.57,1.54.72.35,2.39,1.17,5.67,2.77c.77.38,1.53.75,2.28,1.16l5.32,2.93c.93.5,1.84,1,2.75,1.54,1.55.92,3.13,1.8,4.66,2.74,2.23,1.37,4.51,2.68,6.6,4.25.52.42,1,.85,1.51,1.3a12.66,12.66,0,0,1,1.24,1.4,2,2,0,0,0,1.42.59,2,2,0,0,0,2-2c0-.18,0-.36-.08-.54a1.91,1.91,0,0,0-.51-.88c-.23-.28-.46-.57-.7-.85a10.58,10.58,0,0,0-.83-.81c-.65-.61-1.36-1.14-2.06-1.68A37,37,0,0,0,687,423c-1.23-.71-2.45-1.46-3.7-2.15q-2.47-1.35-4.93-2.72c-1-.56-2.07-1.08-3.1-1.61L670.3,414c-.88-.45-1.79-.83-2.69-1.25l-5.83-2.68c-.88-.4-1.76-.83-2.66-1.19l-10.26-4.18c-.81-.33-1.61-.68-2.43-1l-3.46-1.3c-5.48-2.08-11-4.13-16.41-6.27l-11.8-4.61c-1.57-.62-3.13-1.22-4.69-1.86l-20.8-8.55c-9.87-4.05-19.77-8-29.64-12.1L533,358h0l-18-7.69L507.29,347l-1.13-.5-3.93-1.79-19.54-8.91c-.42-.19-.83-.4-1.23-.6l-4.21-2.08-11.6-5.72c-1.73-.86-3.49-1.68-5.21-2.58l-9.6-5-5.1-2.67c-.62-.32-1.24-.64-1.85-1L434.37,311c-1.44-.79-2.88-1.59-4.3-2.4l-3.92-2.22a35.51,35.51,0,0,1-4.19-2.63l-.07-.06c1.2.29,2.4.63,3.58,1a.26.26,0,0,0,.14-.49l-2.35-.63-.83-.22-.54-.13c-.19,0-.38-.1-.58-.17h-.26Zm112,55,.09,0-.09,0Z"/><path class="cls-1" d="M447.58,300.92a.5.5,0,0,0,.08.61,6.66,6.66,0,0,0,1.13.82l1,.7c.75.52,1.51,1,2.3,1.48a45.93,45.93,0,0,0,5,2.22.3.3,0,0,0,.38-.21.31.31,0,0,0-.22-.37l-2.16-.9a19.79,19.79,0,0,1-3-1.48c-.75-.48-1.47-1-2.18-1.54.44.16.87.35,1.31.53l-.14,0c1.62.7,3.2,1.46,4.78,2.22l5.62,2.72c.67.33,1.35.64,2,1l3.78,2c4.94,2.59,9.89,5.16,14.8,7.8l19,10.22c5.07,2.72,10.16,5.41,15.24,8.11l9,4.81c1.12.59,2.25,1.15,3.38,1.72l21,10.53c1.26.63,2.5,1.29,3.78,1.87l8,3.66L580.54,368l1.18.5L585.4,370,597,374.84l8.59,3.57c1.54.64,3.11,1.22,4.67,1.83l18.58,7.21,2.25.83,5.29,2,11,4.11,16.26,6,6.19,2.32,5.88,2.23c.8.31,1.62.6,2.42.92l9.88,3.91c1.21.48,2.4,1,3.6,1.5l4.21,1.77,5,2.21c1.43.62,2.84,1.28,4.25,1.93s2.77,1.29,4.16,1.95c.74.35,1.48.73,2.22,1.08,1,.48,1.91,1,2.84,1.6a1.91,1.91,0,0,0,2.59-.68,1.86,1.86,0,0,0,.19-1.46,2,2,0,0,0-.87-1.14c-.48-.3-1-.61-1.46-.89l-1.18-.65c-.68-.38-1.4-.7-2.1-1.05-.51-.26-1-.5-1.56-.75l-1.83-.86-4.28-1.9c-.57-.25-1.14-.47-1.71-.71l-3-1.25c-2.85-1.19-5.72-2.3-8.59-3.44-2.64-1-5.32-2-8-3-5.51-2-11.05-4-16.59-6s-10.89-3.85-16.34-5.78c-6.17-2.19-12.32-4.42-18.47-6.63-1.42-.51-2.83-1-4.24-1.57l-11.3-4.26-8.69-3.27c-1.59-.6-3.16-1.27-4.73-1.91l-20.27-8.22-.31-.12-17.23-7.72-9.21-4.12c-1.11-.49-2.19-1-3.28-1.56l-21.06-10.38c-1.33-.66-2.69-1.29-4-2L519,336.37c-5.6-2.95-11.21-5.87-16.8-8.84q-9-4.75-18-9.53c-4.82-2.55-9.66-5.05-14.49-7.55L465,308c-.54-.28-1.08-.57-1.64-.83l-9.25-4.38c-.68-.32-1.38-.61-2.07-.9s-1.26-.5-1.89-.73c-.32-.12-.65-.22-1-.31a7.19,7.19,0,0,0-1.13-.18h0a.51.51,0,0,0-.39.25ZM695.87,413l.42.18-.42-.18Z"/><path class="cls-1" d="M462.76,286.77a1.28,1.28,0,0,0,.88,1.55,90.32,90.32,0,0,1,9.21,3.2c4.29,1.85,8.47,4,12.64,6.05l10.14,5.07c1.78.88,3.53,1.83,5.29,2.75l10.7,5.62c4.69,2.46,9.44,4.81,14.16,7.19,4.31,2.18,8.61,4.39,13,6.48l20.45,9.76c4.36,2.09,8.77,4.08,13.16,6.09q17.24,7.94,34.44,15.92c9.21,4.26,18.42,8.49,27.6,12.8l19.22,9c1.59.74,3.14,1.57,4.69,2.37l11,5.61c5.09,2.6,10.11,5.33,15.15,8,1.86,1,3.71,2,5.56,3,2.73,1.49,5.47,2.95,8.19,4.46q7,3.92,14,7.89,2.79,1.59,5.54,3.29c1.1.68,2.21,1.35,3.29,2.07s2,1.35,3,2.06c.61.48,1.2,1,1.78,1.5a2.29,2.29,0,0,0,1.56.65,2.21,2.21,0,0,0,1.56-3.77,48.14,48.14,0,0,0-7.48-5.55c-2.29-1.43-4.61-2.82-7-4.13-4.91-2.72-9.83-5.44-14.81-8q-7.9-4.16-15.82-8.29l-9.2-4.76c-2-1-4-2-6.05-3l-10.63-5.29c-1.37-.68-2.75-1.32-4.14-2l-18.62-8.54c-9.76-4.47-19.55-8.86-29.32-13.31q-17.51-8-35-15.91c-4.07-1.85-8.13-3.69-12.17-5.6l-20.16-9.52c-1.24-.58-2.47-1.2-3.69-1.81l-10.69-5.35-8.51-4.26c-1.7-.85-3.37-1.75-5.06-2.63-5.17-2.7-10.32-5.44-15.55-8l-10.45-5.19c-1.7-.85-3.42-1.68-5.14-2.51s-3.56-1.68-5.36-2.46-3.82-1.51-5.76-2.16c-1.31-.44-2.62-.85-3.95-1.24a1.26,1.26,0,0,0-.33-.05,1.29,1.29,0,0,0-1.22.93Z"/><path class="cls-1" d="M507.93,284.63a.61.61,0,0,0-.62.61,3.9,3.9,0,0,0,.2,1.4,9.6,9.6,0,0,0,.73,1.24c.4.63.79,1.26,1.18,1.89a.64.64,0,0,0,.83.22.62.62,0,0,0,.22-.83l-.88-1.41a16.15,16.15,0,0,1-1-1.59c0-.08,0-.17,0-.25v-.07a17.81,17.81,0,0,1,2.31,0,18.11,18.11,0,0,1,3.92,1.2c1.65.7,3.25,1.51,4.86,2.31,1.8.88,3.6,1.76,5.37,2.69,3.44,1.82,6.8,3.77,10.2,5.65,2.25,1.24,4.52,2.42,6.78,3.6l17.79,9.35c1.14.61,2.33,1.15,3.5,1.7l9.93,4.76,9.47,4.54c1,.49,2.06,1,3.1,1.45l19,8.34,3.69,1.63c.5.21,1,.44,1.49.65l5.7,2.27L648.49,349c4.18,1.65,8.36,3.27,12.51,5l18.11,7.52c5.17,2.15,10.36,4.25,15.54,6.38,4.89,2,9.75,4.06,14.62,6.1l.6.25-.1,0,8.2,3.71,3.21,1.45.64.32,2.15,1.07c2.39,1.19,4.8,2.34,7.16,3.59,2.54,1.35,5.1,2.7,7.63,4.09l2.86,1.56c1,.58,2.1,1.13,3.13,1.73,2.34,1.37,4.67,2.73,7,4.19a2,2,0,0,0,2-3.47c-1.38-.86-2.78-1.68-4.19-2.48-1-.6-2.08-1.21-3.15-1.77-2.52-1.32-5-2.62-7.57-3.92-1.07-.55-2.15-1.07-3.21-1.61s-2.34-1.2-3.53-1.76L723.72,377c-2.15-1-4.36-1.9-6.55-2.83l-4.89-2.09c-.6-.26-1.2-.52-1.81-.76-4.87-1.93-9.73-3.87-14.6-5.78L686,361.67c-2-.8-4.06-1.57-6.08-2.39l-17.72-7.11c-4.07-1.64-8.18-3.2-12.27-4.79q-7.45-2.86-14.91-5.75c-8.21-3.19-16.43-6.36-24.64-9.58l.2.09c-5.37-2.31-10.73-4.65-16.09-7l-8.1-3.51c-1.08-.47-2.14-1-3.21-1.49L563.71,311c-1.12-.53-2.26-1.05-3.35-1.62l-7.83-4.09-14-7.28c-4.62-2.42-9.1-5.09-13.72-7.49-1.37-.72-2.75-1.4-4.15-2.06s-3-1.47-4.46-2.15a26.11,26.11,0,0,0-3.91-1.42,9.67,9.67,0,0,0-1.84-.3l-.46,0c-.7,0-1.41.09-2.1.11Zm6.94,2.41.06,0-.06,0Z"/><path class="cls-1" d="M725.44,321.11a2.36,2.36,0,0,0-1.07.62c-4.41,3.43-8.77,6.93-13.14,10.4-3.61,2.87-7.25,5.71-10.81,8.65l-7.66,6.33c-.5.42-1,.86-1.47,1.31l-4,3.66c-.63.58-1.29,1.15-1.9,1.76l-2.81,2.78-3.92,3.89c-.51.51-1,1-1.54,1.54-3.46,3.64-7,7.24-10.35,10.95l-6.43,7c-1.73,1.89-3.41,3.84-5.11,5.76q-3.66,4.13-7.29,8.29c-2.51,2.86-5.12,5.62-7.64,8.47a2.34,2.34,0,0,0-.65,1.59,2.24,2.24,0,0,0,3.83,1.58c1.88-2.14,3.8-4.24,5.73-6.35s3.57-4,5.34-6c1.53-1.74,3.08-3.47,4.62-5.2s3.11-3.52,4.7-5.24c3.59-3.88,7.15-7.78,10.81-11.58,1.95-2,3.9-4.05,5.85-6.09.69-.72,1.44-1.41,2.16-2.11l4-3.94c.72-.7,1.45-1.41,2.16-2.12s1.75-1.59,2.63-2.38c1.71-1.56,3.4-3.15,5.19-4.63l7.67-6.32c1.7-1.4,3.44-2.75,5.17-4.12,6.08-4.84,12.14-9.71,18.28-14.48a2.34,2.34,0,0,0,.71-1.72,2.43,2.43,0,0,0-.71-1.71,2.47,2.47,0,0,0-1.71-.71l-.65.09Z"/><path class="cls-1" d="M649.5,336.34c-3.6,3.31-7.25,6.58-10.88,9.86-3.82,3.44-7.62,6.88-11.48,10.27L624,359.19c-.89.78-1.81,1.54-2.72,2.31-2,1.66-4,3.27-5.95,4.9q-5.55,4.53-11.07,9.13c-3.82,3.19-7.62,6.42-11.45,9.6-1.14,1-2.31,1.88-3.47,2.81l-1.53,1.17c-.62.48-1.27.91-1.91,1.37a1,1,0,0,0-.43.56.94.94,0,0,0,1.38,1c1.14-.81,2.26-1.64,3.38-2.5s2-1.61,3.07-2.42,1.86-1.52,2.78-2.28c.72-.58,1.43-1.17,2.14-1.76,1.86-1.54,3.71-3.1,5.57-4.63s3.92-3.23,5.9-4.82l6.39-5.15c1.8-1.44,3.64-2.85,5.42-4.31,1.94-1.59,3.88-3.17,5.78-4.79s4-3.42,5.93-5.14c3.57-3.13,7.1-6.3,10.64-9.47,2.48-2.22,5-4.44,7.44-6.67a1.29,1.29,0,0,0,0-1.81,1.25,1.25,0,0,0-.89-.37,1.41,1.41,0,0,0-.93.37Z"/><path class="cls-1" d="M614.69,305.2c-2.89,1.3-5.74,2.68-8.59,4.06l-8.29,4-5.8,2.82c-.75.37-1.5.75-2.25,1.15l-5.55,3-2.47,1.33c-.3.16-.61.31-.9.49l-4.52,2.85c-1,.6-1.91,1.19-2.84,1.83l-5.12,3.55c-.81.56-1.62,1.13-2.42,1.72-2.49,1.85-5,3.67-7.45,5.55s-5.09,3.86-7.62,5.82l-6.72,5.22.23-.18c-2.34,1.8-4.72,3.57-7,5.41l-4.52,3.59c-1.18.93-2.32,1.92-3.47,2.88-1.37,1.15-2.72,2.32-4.08,3.49a1.12,1.12,0,0,0,0,1.59,1.14,1.14,0,0,0,1.59,0q3.32-2.85,6.69-5.65c1.81-1.51,3.69-2.94,5.55-4.4,2.24-1.69,4.47-3.38,6.7-5.09,2.46-1.88,4.9-3.78,7.38-5.63l4.73-3.54c.93-.7,1.85-1.4,2.79-2.09l4.63-3.34c1-.72,2-1.47,3-2.15q2.36-1.58,4.7-3.16c1-.64,1.9-1.31,2.89-1.91l5.21-3.17c.4-.24.79-.52,1.21-.73l1.28-.67,5.72-3c1-.53,2-1.09,3-1.57l9.61-4.56c2.21-1.05,4.44-2.08,6.65-3.11s4.52-2.12,6.81-3.09l.59-.24.39-.17a1.62,1.62,0,0,0,.61-.61,1.66,1.66,0,0,0,.17-1.29,1.72,1.72,0,0,0-.78-1,1.67,1.67,0,0,0-1.69,0ZM539.2,355.26l-.07.05.07-.05Zm-.11.08-.12.1.12-.1Z"/><path class="cls-1" d="M505.92,280.32c-3.52,2.15-7,4.41-10.41,6.67l-6.15,4c-1.54,1-3,2.07-4.53,3.13a85.18,85.18,0,0,0-6.89,5.54c-1.91,1.68-3.76,3.45-5.62,5.18-1.29,1.21-2.52,2.46-3.77,3.71s-2.56,2.58-3.86,3.85l-3,2.94c-.59.57-1.16,1.15-1.76,1.7q-4.2,3.9-8.39,7.81a48.86,48.86,0,0,0-3.48,3.57c-1.1,1.27-2.07,2.67-3.09,4-.42.53-.83,1.07-1.26,1.6a1.57,1.57,0,0,0-.41,1,1.42,1.42,0,0,0,1.43,1.43,1.37,1.37,0,0,0,1-.42q1.44-1.8,2.83-3.65c.54-.67,1.08-1.35,1.66-2,.75-.82,1.53-1.58,2.33-2.35,1.45-1.4,3-2.73,4.47-4.09s3.22-2.89,4.84-4.34c1.46-1.32,2.88-2.69,4.32-4,2.48-2.32,4.92-4.69,7.36-7,.32-.31.66-.6,1-.89l2.66-2.37c2-1.75,4-3.48,6.07-5.12,2.93-2.26,6-4.3,9.16-6.27,1.78-1.12,3.55-2.25,5.33-3.36,3.46-2.14,6.9-4.33,10.44-6.36a2.27,2.27,0,0,0,.8-3.07,2.32,2.32,0,0,0-2-1.11,2.08,2.08,0,0,0-1.1.31Z"/><path class="cls-1" d="M462.73,354.75a6.46,6.46,0,0,0-1.06.41c-.39.22-.77.45-1.15.68l-.75.48-2,.78a1.73,1.73,0,0,0-1,.73,1.56,1.56,0,0,0-.2.56l-2,1.34-6.61,4.54c-2.26,1.54-4.49,3.14-6.79,4.62l-8.36,5.38q-6.81,4.38-13.67,8.68c-4.48,2.8-9,5.55-13.48,8.33-2.57,1.59-5.14,3.18-7.73,4.73l-3.84,2.29L393,399a11.08,11.08,0,0,0-1,.66,7.08,7.08,0,0,0-1,.81c-.24.29-.46.59-.68.9a4.18,4.18,0,0,0-.55,1.95,3.89,3.89,0,0,0,.58,2,3.72,3.72,0,0,0,2.32,1.65,7.17,7.17,0,0,0,2.17.1,3.46,3.46,0,0,0,2.39-1,3.4,3.4,0,0,0,1-2.39c0-.08,0-.17,0-.25l1.4-1c1-.68,2-1.36,2.95-2,2.18-1.49,4.35-3,6.54-4.45q7.14-4.71,14.25-9.44c4.3-2.85,8.57-5.73,12.85-8.61l7.84-5.29c1-.66,1.91-1.37,2.87-2.06l4.44-3.19c2-1.43,4-2.89,6-4.33,2.28-1.67,4.55-3.38,6.88-5h0a1.61,1.61,0,0,0,.38-.28,1.87,1.87,0,0,0-1.29-3.19,1.39,1.39,0,0,0-.52.09Z"/><path class="cls-1" d="M398.58,404.27a4.41,4.41,0,0,0,3.05,5.38c9.39,2.18,18.5,5.38,27.73,8.11s18.36,5.49,27.44,8.54c9.45,3.18,18.86,6.49,28.29,9.71,9.05,3.09,18.13,6,27.22,9,3.64,1.19,7.35,2.23,11,3.36q6.66,2.07,13.28,4.24c3.8,1.24,7.57,2.58,11.33,3.93l5.62,2.06,2.56,1,1.31.48a6.29,6.29,0,0,0,3.9.28,4.35,4.35,0,0,0,3-3.05,6.85,6.85,0,0,0,.19-1.5,4.38,4.38,0,0,0-3.17-4.16,4.27,4.27,0,0,0-1.59-.12c-1.94-.79-3.91-1.49-5.88-2.21-2.3-.85-4.62-1.67-6.93-2.5-4.55-1.63-9.15-3.1-13.75-4.6-4.13-1.34-8.29-2.59-12.45-3.85-5-1.52-10-3.12-15-4.74-4.24-1.38-8.49-2.74-12.71-4.17l-14.71-5c-4-1.36-8-2.83-12-4.16q-7.62-2.55-15.27-5c-7.52-2.41-15.09-4.62-22.65-6.89-8.15-2.46-16.22-5.18-24.51-7.12a5.06,5.06,0,0,0-1.09-.12,4.35,4.35,0,0,0-4.28,3.17Z"/><path class="cls-1" d="M464.3,354.65a1.76,1.76,0,0,0-.81,1.06,1.78,1.78,0,0,0,1.23,2.19c1,.16,2,.32,3,.56a24.66,24.66,0,0,1,3.45,1.19c3.05,1.32,6,2.88,9,4.34q4.2,2,8.42,4l4.67,2.21c1.28.61,2.62,1.11,3.93,1.65l4.85,2c1.12.47,2.28.86,3.42,1.29,11.8,4.45,23.66,8.71,35.48,13.08,4.25,1.57,8.42,3.34,12.63,5,5.24,2.23,10.48,4.45,15.69,6.77q9.15,4.08,18.35,8c5.17,2.24,10.3,4.59,15.5,6.76,2.78,1.16,5.56,2.33,8.36,3.45,3.07,1.23,6.13,2.46,9.18,3.73l2.28,1,4.22,1.8,2.73,1.16c1.6.7,3.19,1.45,4.84,2a3.52,3.52,0,0,0,2.78-.37,3.62,3.62,0,0,0,1.29-1.29,3.66,3.66,0,0,0,.5-1.82c0-.4-.1-.8-.16-1.2a3.6,3.6,0,0,0-.94-1.61,10.47,10.47,0,0,0-1.63-1.34l-1.29-1c-.9-.69-1.9-1.28-2.86-1.89-1.78-1.12-3.66-2.11-5.49-3.15-3.67-2.09-7.35-4.18-11-6.23a3.49,3.49,0,0,0-4.72,1.23,3.43,3.43,0,0,0-.45,2l-.07,0-9.13-3.61.3.13-.19-.08q-11.08-4.68-22.21-9.28c-5.31-2.26-10.61-4.55-16-6.71-2.84-1.16-5.68-2.38-8.55-3.47l-10.24-3.88c-2.57-1-5.17-1.83-7.76-2.73s-5-1.75-7.58-2.6c-5.7-1.94-11.42-3.84-17.09-5.86l-9-3.2c-1.42-.51-2.81-1.13-4.21-1.69L495,366.85c-3.91-1.78-7.81-3.57-11.69-5.4-1.92-.91-3.83-1.82-5.73-2.75-1.33-.64-2.64-1.27-4-1.86a39.4,39.4,0,0,0-4.08-1.56,27.14,27.14,0,0,0-3.89-.81,3.14,3.14,0,0,0-.51-.05,1.64,1.64,0,0,0-.86.23Zm6.58,4.87.2.08-.2-.08Zm131,48.45.21.09L602,408l-.05,0Z"/><path class="cls-1" d="M606.62,407.77l.29-.12a25.73,25.73,0,0,1-5.49,1.19,2.07,2.07,0,0,0-1.44,2.53,2.24,2.24,0,0,0,.32.66l-1.94,1.4c-2.53,1.9-5.08,3.77-7.57,5.73s-5.18,4-7.73,6.1-5.39,4.39-8.07,6.62q-5.85,4.85-11.63,9.79c-3.37,2.86-6.69,5.78-10.12,8.56a4.12,4.12,0,0,0-1.1-.16,3.62,3.62,0,0,0-2.67,1.11,6.12,6.12,0,0,0-1.69,2.93c0,.34-.09.67-.13,1a3.37,3.37,0,0,0,.21,1.26,4.18,4.18,0,0,0,1.74,2.27,3.55,3.55,0,0,0,2.07.62,4.66,4.66,0,0,0,2.11-.51,9.35,9.35,0,0,0,2.15-1.72c1.06-1,2.1-2,3.14-3,2.2-2.09,4.38-4.21,6.6-6.27,4.93-4.56,9.92-9,15-13.44,3.13-2.74,6.28-5.45,9.49-8.08,1.77-1.45,3.52-2.93,5.32-4.35l5.72-4.5,3.79-2.88c1.4-1.06,2.84-2.06,4.2-3.19a2.24,2.24,0,0,0,.35-2.71,2.27,2.27,0,0,0-1.34-1,2.15,2.15,0,0,0-.55-.08,2.55,2.55,0,0,0-1,.23Zm-.19.08h0Z"/><path class="cls-1" d="M553.45,16.4c-.22.91-.43,1.81-.7,2.7-.24.74-.57,1.46-.87,2.18l.07-.17q-1.29,2.92-2.73,5.77c-.9,1.79-2,3.5-3,5.24-.48.82-1,1.64-1.45,2.48s-1,1.77-1.47,2.64c-1.12,2-2.25,3.94-3.33,5.94-.23.43.43.81.66.38,1.24-2.3,2.54-4.55,3.9-6.78,1.2-2,2.45-3.94,3.66-5.92.66-1.07,1.31-2.14,2-3.22l0,0q-.74,2.34-1.46,4.68c-1.44,4.7-2.92,9.38-4.24,14.12s-2.73,9.71-4,14.59c-1.43,5.44-2.9,10.87-4.3,16.32q-2.28,8.82-4.54,17.64c-1.07,4.17-2.07,8.34-3.08,12.52q-4,16.4-7.81,32.83c-.32,1.37-.61,2.75-.9,4.13-.69,3.18-1.37,6.37-2.06,9.56.17-1.21.33-2.41.5-3.61.08-.63.15-1.27.26-1.91.5-3,1-5.92,1.49-8.88.32-2,.62-3.89,1-5.83,1-5.26,2-10.52,3.14-15.77.59-2.71,1.13-5.45,1.75-8.15.68-2.88,1.34-5.76,2-8.63.49-2.09,1-4.16,1.56-6.23.63-2.36,1.2-4.75,1.9-7.09,1.55-5.23,3.08-10.46,4.7-15.67q1.47-4.71,2.95-9.41.74-2.34,1.45-4.68c.12-.4.25-.81.37-1.22.31-.88.62-1.77.92-2.65.11-.32.21-.64.31-1a2.6,2.6,0,0,0-4.76-2,14.66,14.66,0,0,0-1,2.58c-.21.62-.41,1.23-.61,1.86-.36,1.13-.72,2.27-1.09,3.4-.76,2.34-1.54,4.68-2.3,7q-2.4,7.39-4.71,14.8c-.74,2.36-1.52,4.7-2.18,7.08L523,97.1c-.2.73-.36,1.46-.54,2.19l-1.32,5.36c-.48,2-1,3.92-1.4,5.89-.72,3.15-1.44,6.31-2.15,9.46-.52,2.29-1,4.59-1.43,6.89s-1,4.35-1.35,6.55c-.57,3.21-1.15,6.42-1.72,9.62-.32,1.77-.64,3.53-.91,5.31-.52,3.48-1,7-1.55,10.47-.8,5.38-1.45,10.79-2.14,16.2-.65,5.1-1.19,10.21-1.75,15.32-.19,1.72-.41,3.45-.55,5.18l-.81,9.93c-.16,2-.37,4.07-.49,6.1-.19,3-.37,6.08-.56,9.13l-1,16.11c-.11,1.75-.22,3.51-.34,5.27-.11,1.56-.23,3.12-.34,4.68,0,.35,0,.7-.07,1a30.48,30.48,0,0,0-.23,4.37,3.79,3.79,0,0,0,1.07,2.59,3.65,3.65,0,0,0,2.59,1.08,3.69,3.69,0,0,0,2.6-1.08l.57-.74a3.64,3.64,0,0,0,.5-1.85c.23-2.61.39-5.23.66-7.84.25-2.44.48-4.87.74-7.31.55-5.12,1.11-10.23,1.75-15.34q1.77-14.3,3.6-28.58l1.14-7.75c.32-2.15.6-4.31,1-6.45q1.41-8.35,2.83-16.69c.1-.57.23-1.13.34-1.7.31-1.52.61-3,.92-4.55.73-3.58,1.44-7.15,2.17-10.73.92-4.54,2-9,3-13.57q3.51-15.76,7.14-31.5c.35-1.54.74-3.07,1.12-4.6q1.34-5.43,2.66-10.86c1-4.26,2.09-8.53,3.15-12.78,1.22-4.9,2.41-9.81,3.68-14.7,1.36-5.22,2.66-10.46,4.14-15.65L553,29.77c.5-1.76,1-3.51,1.49-5.28.32-1.25.64-2.5,1-3.74.07-.29.14-.58.22-.87A15.66,15.66,0,0,0,556,18a6.51,6.51,0,0,0,.07-.76,2.09,2.09,0,0,0-.19-.81,1.29,1.29,0,0,0-1.21-.92,1.27,1.27,0,0,0-1.22.92Z"/><path class="cls-1" d="M496.29,244.7a2.6,2.6,0,0,0-1.81,1.77c-1.67-.22-3.35-.42-5-.6a1.6,1.6,0,0,0-1.61,1.6,1.65,1.65,0,0,0,1.61,1.6l3.93.44c.92.13,1.85.25,2.77.4a4.73,4.73,0,0,0,.85.29l.59.15,2.47.74c1.42.42,2.83.84,4.26,1.24,3.16.9,6.32,1.79,9.5,2.64,6,1.59,11.95,3.2,17.95,4.74l11.31,2.89c2.95.76,5.93,1.43,8.89,2.14q5.94,1.42,11.89,2.75,18.07,5.38,36.11,10.93c12.44,3.81,25,7.34,37.5,10.87,6.18,1.75,12.36,3.53,18.54,5.29,2.24.64,4.46,1.33,6.69,2l11.71,3.52c5.93,1.78,11.82,3.66,17.73,5.49s11.63,3.6,17.42,5.42,11.86,3.76,17.8,5.6L738,319.92c3.35,1,6.73,2,10.1,3,5.59,1.65,11.22,3.25,16.82,4.88,1.57.45,3.14.92,4.71,1.38a2.6,2.6,0,0,0,1,.62c2.61.86,5.3,1.38,8,2.06l1,.32c.68.21,1.37.48,2.06.62a3.42,3.42,0,0,0,.81.11,3,3,0,0,0,3-3,3.16,3.16,0,0,0-.87-2.1,3.56,3.56,0,0,0-1.58-.95l0-.17a3.64,3.64,0,0,0,0-1.91,3.5,3.5,0,0,0-1.65-2.15,26.14,26.14,0,0,0-4-1.48c-.77-.24-1.55-.49-2.33-.72-1.47-.43-2.95-.87-4.43-1.27q-5.1-1.4-10.18-2.87c-6.27-1.82-12.46-3.89-18.67-5.92l-1-.31a2.71,2.71,0,0,0-.49-3.17,3.62,3.62,0,0,0-.92-.64c-.34-.15-.66-.27-1-.41l-1.14-.41c-.79-.28-1.6-.53-2.4-.78l-4-1.28q-4.71-1.51-9.43-3c-5.87-1.83-11.77-3.58-17.73-5.12-3.29-.84-6.57-1.68-9.86-2.48l-9.89-2.37c-6.19-1.48-12.38-2.92-18.56-4.43-12.59-3.07-25.2-6.09-37.79-9.17q-12.74-3.12-25.5-6.18l-2.38-.67-6.71-2.1c-5.37-1.67-10.76-3.32-16.13-5-6.43-2-12.85-4-19.31-5.95s-13-3.77-19.55-5.62c-1.09-.31-2.21-.54-3.32-.8l-6.55-1.58c-3-.73-6.08-1.3-9.13-1.93-2.33-.47-4.66-.88-7-1.3-1.4-.25-2.78-.51-4.18-.7-1.84-.27-3.68-.49-5.52-.63-.88-.07-1.76-.1-2.64-.11h0a17.27,17.27,0,0,0-3.35.43Z"/><path class="cls-1" d="M870.8,78.1c-.19,3.14-.44,6.29-.83,9.43a152.75,152.75,0,0,1-3.23,15.84l-2.55,10.32q-1.26,2.4-2.46,4.83l-2,4.06c-.6,1.23-1.11,2.5-1.67,3.75l-2.11,4.74c-.44,1-.8,2-1.19,3l-2.19,5.8c-.31.82-.65,1.63-.93,2.46q-1.7,5.15-3.41,10.28c-.27.8-.57,1.61-.8,2.43-.35,1.2-.69,2.4-1,3.6q-1.56,5.48-3.14,11c-.59,2.06-1,4.15-1.56,6.22l-2.7,11c-.48,1.95-.9,3.93-1.34,5.9l-2.55,11.45c-.41,1.83-.76,3.66-1.13,5.5q-1.15,5.82-2.33,11.66c-.37,1.87-.68,3.73-1,5.61q-.95,5.76-1.91,11.52c-.33,2-.6,4.1-.89,6.14q-.75,5.44-1.52,10.87c-.36,2.61-.65,5.23-1,7.86q-.37,3-.74,6c-.1.82-.22,1.64-.3,2.47-.5,5.2-1,10.39-1.46,15.6Q821,295.52,819,303.58c-1.27,5.34-2.47,10.7-3.8,16q-1,4.15-2.13,8.3a3.39,3.39,0,0,0-1.05-.17,3.45,3.45,0,0,0-2.43,1l-.54.7a3.42,3.42,0,0,0-.48,1.73c-.15,1.49-.28,3-.4,4.45-.08.85-.15,1.7-.23,2.55a12,12,0,0,0,0,2.47,7,7,0,0,0,.22,1.36,12.18,12.18,0,0,0,.5,1.31,3.36,3.36,0,0,0,.87,1.49,3.31,3.31,0,0,0,1.49.87,3.42,3.42,0,0,0,3.81-1.55,15.19,15.19,0,0,0,1.17-2.52c.22-.62.31-1.29.47-1.93.22-.9.45-1.8.68-2.71.35-1.42.69-2.85,1-4.27.59-2.42,1.15-4.84,1.7-7.27l1.29-5.76c0,.36,0,.73.09,1.09s.08.56.11.84a3.18,3.18,0,0,0,5.31,1.4,3.33,3.33,0,0,0,.93-2.24c.18-3.16.36-6.33.63-9.49s.62-6.52,1-9.78c.19-1.3.38-2.61.58-3.91s.31-2.5.55-3.74c.63-3.28,1.26-6.55,1.9-9.83.51-2.68,1.14-5.33,1.72-8,.49-2.25,1-4.51,1.49-6.76,1.3-5.62,2.64-11.23,3.86-16.86s2.48-11.26,3.59-16.92q1.16-5.9,2.32-11.79c.38-2,.81-4,1.15-6,1.14-6.62,2.3-13.24,3.43-19.86l2.34-13.48q2.13-8.08,4.25-16.18c.32-1.23.67-2.45,1-3.67l3.27-11c1.46-4.89,2.88-9.8,4.41-14.67s3-9.56,4.52-14.34c.45-1.42.9-2.84,1.32-4.27.78-2.59,1.56-5.18,2.24-7.79.33-1.29.64-2.6.87-3.91s.33-2.36.48-3.54c0-.11,0-.21,0-.32a2.36,2.36,0,0,0,0-1.18,2.25,2.25,0,0,0-.57-1,2.29,2.29,0,0,0-2.17-.58,3.93,3.93,0,0,0-1.69.82,135.19,135.19,0,0,0,3.22-17.42c.25-2.41.43-4.83.57-7.24a1.59,1.59,0,0,0-1.59-1.6,1.62,1.62,0,0,0-1.59,1.6ZM870,87.54l0,.3,0-.3Zm3.23,18.68-.08.2a1.67,1.67,0,0,1,.08-.2Zm-6.69,13.42,0-.08q-.39,1.31-.81,2.61c-.45,1.45-.91,2.89-1.37,4.34.4-1.64.81-3.29,1.21-4.93l.93-1.94Zm-30,107c.11-.7.2-1.41.33-2.12q.91-4.73,1.82-9.47c.52-2.66,1-5.36,1.55-8q1.92-9,3.87-17.94c.56-2.61,1.24-5.19,1.86-7.79.75-3.15,1.51-6.3,2.26-9.45.17-.73.4-1.44.6-2.17q.79-2.86,1.6-5.75c.53-1.89,1-3.78,1.58-5.67.19-.69.36-1.39.58-2.07q1.63-5.07,3.28-10.16c.28-.87.53-1.76.84-2.62.25-.66.49-1.33.73-2q-.78,3.45-1.57,6.92c-.52,2.3-1.1,4.6-1.57,6.91-.61,3-1.23,6.07-1.84,9.1-.31,1.55-.63,3.1-.94,4.65l-4.14,15.55c-1.12,4.23-2.26,8.46-3.31,12.71q-2.81,11.24-5.6,22.48c-.88,3.57-1.71,7.14-2.53,10.72l.6-3.82Z"/><path class="cls-1" d="M547.78,5.42a1.36,1.36,0,0,0,.48,1.82,81.14,81.14,0,0,0,8.15,5.48l2.85,1.6c.81.46,1.63.88,2.47,1.29l-1.34-.11-4.62-.28-5.43-.32c-1.27-.08-2.56-.07-3.84-.07s-2.32.05-3.48.11-2,.22-3,.34a2.28,2.28,0,0,0-1.16.32,2.25,2.25,0,0,0-.83.82,2.31,2.31,0,0,0,.36,2.8,3.3,3.3,0,0,0,1.3.88,7.81,7.81,0,0,0,1.43.26c.46.05.94,0,1.41.08l2.29.19,4.75.41c3.51.29,7,.56,10.54.84,3.25.25,6.5.47,9.75.71,3.41.25,6.82.56,10.22.83l4.86.44L595,26.72q8.88,2.52,17.77,4.91c6.79,1.84,13.57,3.73,20.34,5.62,5.81,1.63,11.63,3.21,17.45,4.79,3.36.92,6.75,1.76,10.13,2.64,2.38.62,4.75,1.26,7.14,1.83,6.44,1.56,12.87,3.15,19.34,4.61q10.11,2.28,20.22,4.62c12.69,3,25.34,6.1,38,9.27,6.23,1.56,12.45,3.13,18.69,4.66,2.91.71,5.83,1.43,8.75,2.09,3.18.71,6.35,1.44,9.53,2.12,6.59,1.43,13.18,2.84,19.81,4.11,6.34,1.21,12.71,2.29,19.06,3.46l5.86,1.09c2.34.44,4.7.8,7,1.39a1.94,1.94,0,0,0,2.19-2.85,2.06,2.06,0,0,0-1.15-.88c-1.42-.51-2.86-1-4.29-1.42L825.36,77c-1.45-.48-2.92-.91-4.38-1.36s-2.74-.87-4.11-1.28l-10.43-3.12c-3.16-1-6.3-2-9.45-2.94l-15.71-4.91c9.45,2.38,18.91,4.71,28.34,7.19a2.63,2.63,0,0,0,1.83,1.73c3,.76,6,1.48,9,2.21l4.28,1,2,.48c.92.22,1.83.46,2.75.66a23.86,23.86,0,0,0,3,.43,2.86,2.86,0,0,0,2.87-2.87,3,3,0,0,0-.84-2l-.11-.13c0-.08,0-.15,0-.23A2.21,2.21,0,0,0,833.39,70l-1.16-.84a9.76,9.76,0,0,0-1.35-.73c-1-.48-2-.87-3-1.28l-2.27-.92c-1.44-.57-2.87-1.2-4.33-1.71l-5.64-2c-1-.36-2.1-.76-3.17-1.07l-6-1.76c-1.35-.4-2.69-.85-4-1.2l-10.77-2.78c-2.49-.64-5-1.21-7.48-1.79l-6.79-1.56c-1-.24-2.05-.49-3.09-.72l-17.88-3.78L744,45.26c-2.14-.45-4.26-.92-6.4-1.33-6.34-1.23-12.68-2.51-19-3.68-5.55-1.59-11.1-3.2-16.67-4.74L689.17,32c-2-.55-4-1.11-6-1.62l-12.79-3.3c-2.09-.54-4.18-1.11-6.3-1.58-6.37-1.43-12.73-2.91-19.12-4.25s-12.91-2.78-19.39-4l-12-2.29c-3-.58-6.13-1.06-9.19-1.59q-7.89-1.35-15.8-2.67c-5.92-1-11.85-1.9-17.82-2.55A1.56,1.56,0,0,0,569.9,11c.3.14.6.27.91.39a8.22,8.22,0,0,0,1.54.37l1.22.28,2.39.58,4.49,1.08c3.21.79,6.41,1.57,9.61,2.37,5.94,1.46,11.87,3,17.82,4.35l13.08,3-9.45-1.6c-2.1-.36-4.21-.64-6.32-.94l-13-1.85c-2.42-.34-4.83-.63-7.26-.93L573.6,16.75c-1-.12-2.05-.19-3.08-.29h-.07c-1.24-.46-2.48-.95-3.7-1.47l.32.14a73.14,73.14,0,0,1-6.9-3.35c-1.12-.64-2.29-1.22-3.38-1.92l-2.07-1.31c-.44-.28-.89-.54-1.31-.84-1.28-.91-2.56-1.82-3.81-2.75a1,1,0,0,0-.62-.2,1.45,1.45,0,0,0-1.2.67ZM649,26.64q-10.28-2.41-20.57-4.79l-17.91-4.1,1.33.23c2.93.52,5.85,1.13,8.77,1.7,2.69.52,5.41,1,8.1,1.58,6.19,1.33,12.39,2.6,18.56,4l12.89,2.93c2,.46,4,.91,6,1.43L678.94,33l.32.09-2.6-.48c-2.26-.41-4.53-.75-6.79-1.13l-4.7-.77c-5.4-1.37-10.79-2.76-16.2-4Zm148.1,46.71q-9.6-1.91-19.15-4c-3-.65-5.95-1.3-8.91-2-3.28-.78-6.56-1.55-9.83-2.35q-20-4.94-40.08-9.74c-6.26-1.5-12.53-2.89-18.8-4.33-2.71-.62-5.43-1.2-8.15-1.8-2.92-.64-5.84-1.24-8.74-1.93-6.11-1.45-12.23-2.82-18.31-4.39-6.57-1.68-13.14-3.36-19.68-5.13Q635.21,34.89,625,32.07c-5.76-1.6-11.56-3.08-17.33-4.69l-6.21-1.72,3,.38,5,.6,1.87.33L617.52,28l12.07,2.09c2,.34,3.95.79,5.92,1.2,4.51,1,9,1.88,13.54,2.82,5.8,1.21,11.57,2.5,17.36,3.79q18,4,36,8l13.14,2.94c2.12.48,4.23,1,6.35,1.42l10.83,2.3c2.71.77,5.42,1.51,8.12,2.31,6.1,1.83,12.21,3.61,18.3,5.49s12.17,3.72,18.24,5.64q9.72,3.08,19.45,6.13c2.94.92,5.87,1.87,8.81,2.76-2.85-.53-5.7-1.06-8.53-1.62ZM784,58.17l3,.7c2.71.64,5.4,1.37,8.1,2.08,2.35.61,4.7,1.2,7,1.86L794.72,61l-5.5-1.39L784,58.17Z"/><path class="cls-1" d="M108,225.59c-4.1,2.94-8.06,6.06-12,9.23q-5.56,4.47-11,9c-6.71,5.59-13.38,11.22-20.08,16.82-3.56,3-7.14,5.92-10.64,9l-7.1,6.18c-1.06.93-2.09,1.88-3.12,2.85l-7.13,6.64c-1,.94-2,1.87-3,2.84l-6.57,6.62c-1.23,1.23-2.48,2.45-3.68,3.72-3.16,3.33-6.37,6.63-9.47,10L8.3,314.9a46.3,46.3,0,0,0-4.07,4.67c-.67.95-1.44,2.29-.42,3.31a3.52,3.52,0,0,0,1.51.78c.38.11.76.25,1.13.38,1.78.63,3.52,1.39,5.27,2.1a1.14,1.14,0,0,0,1.4-.8,1.17,1.17,0,0,0-.8-1.4q-3-1.2-5.94-2.44l-.12-.05c.16-.19.32-.39.47-.59,1.17-1.43,2.55-2.66,3.82-4l3-3.14c1.33-1.38,2.64-2.77,4-4.14l6.38-6.52c1.05-1.07,2.1-2.15,3.17-3.2l6.66-6.5c1.24-1.21,2.45-2.48,3.73-3.64l11.37-10.25c.4-.36.83-.7,1.25-1.05l3.47-2.91,6-5.06c1.6-1.35,3.26-2.62,4.89-3.93l5.17-4.14c7.5-6,15-12,22.53-17.89,2.93-2.2,5.86-4.44,8.84-6.57q5-3.57,10-7.06a3.24,3.24,0,0,0,1.4-1.83,3.06,3.06,0,0,0-.3-2.35,3.11,3.11,0,0,0-1.83-1.41,3.37,3.37,0,0,0-.86-.11,2.63,2.63,0,0,0-1.5.42ZM92.65,244.14l-.22.16.22-.16Z"/><path class="cls-1" d="M6.69,328.81a3.59,3.59,0,0,0-1.27,4.86c2.78,5.07,5.53,10.15,8.29,15.23.56,1,1.08,2.09,1.6,3.16l3.85,7.77c3.75,7.59,7.39,15.23,11.07,22.85,1.38,2.88,2.9,5.68,4.37,8.51l7,13.5c1.51,2.92,3.13,5.8,4.7,8.69l6.8,12.54c1.86,3.4,3.8,6.76,5.69,10.14l5.15,9.18,7.59,13.52c1.89,3.39,3.88,6.72,5.84,10.07.7,1.21,1.37,2.46,2.12,3.65l3.15,4.95q3,4.77,6.17,9.48,2.9,4.33,5.86,8.6l3.1,4.47,1.74,2.52c.75,1.07,1.55,2.1,2.37,3.11a8.3,8.3,0,0,0,2.66,2.2,3.93,3.93,0,0,0,3.87,0,3.83,3.83,0,0,0,1.9-3.31,12.12,12.12,0,0,0-1-4.14,4,4,0,0,0-1.7-2.21,3.76,3.76,0,0,0-1.93-.5l-2.13-3c-1.21-1.7-2.43-3.4-3.64-5.11-2.52-3.58-5-7.2-7.44-10.82-2.23-3.29-4.32-6.67-6.47-10-1-1.48-1.8-3-2.69-4.54l-4.15-7c-1.94-3.29-3.78-6.64-5.67-10l-4.84-8.55-1.9-3.35c-1-1.33-1.93-2.69-2.81-4s-1.83-2.66-2.69-4c-1-1.59-2-3.18-3-4.8a73.82,73.82,0,0,1-6-12c-.36-1-.65-2-.9-2.95l-2.67-4.9c-1.42-2.6-2.75-5.26-4.12-7.89L37.2,380.66c-1.49-2.86-2.84-5.8-4.25-8.7Q28,361.81,23.06,351.7c-1.34-2.71-2.67-5.41-4.12-8.07q-3.68-6.78-7.38-13.55a3.58,3.58,0,0,0-4.87-1.27Z"/><path class="cls-1" d="M60.3,440.69a1.56,1.56,0,0,0-.56,2.12c5.51,9.67,10.92,19.4,16.39,29.09,2.46,4.39,5.05,8.7,7.59,13,1.07,1.83,2.22,3.61,3.33,5.41,1.29,2.09,2.57,4.19,3.87,6.27,2.59,4.14,5.17,8.29,7.78,12.41l4.77,7.53c1.42,2.25,2.92,4.45,4.39,6.67,2.7,4.11,5.45,8.2,8.2,12.27,1.3,1.92,2.61,3.82,3.91,5.74s2.76,4,4.24,6l2.07,2.78c.46.63,1,1.25,1.45,1.84a9.11,9.11,0,0,0,1.87,1.58,4.44,4.44,0,0,0,2.56.67,11.73,11.73,0,0,0,4.58-1.47c.71-.33,1.41-.69,2.12-1,.95-.48,1.91-.94,2.85-1.45,3.93-2.13,7.76-4.46,11.83-6.31,1.52-.59,3.06-1.15,4.59-1.72.81-.29,1.62-.59,2.42-.92a13.89,13.89,0,0,0,2.54-1.24,9.72,9.72,0,0,0,1.72-1.41,12.13,12.13,0,0,0,1.3-1.72,2.5,2.5,0,0,0-3.93-3c-.28.31-.54.61-.84.89a11.74,11.74,0,0,1-1.15.65c-1.11.42-2.27.73-3.41,1.08s-2.39.76-3.58,1.15a40.42,40.42,0,0,0-6.95,3.19c-2,1.11-4,2.3-6,3.43q-1.71,1-3.45,1.92c-1.31.7-2.61,1.43-4,2-.26.1-.53.2-.81.28l-.24-.16a33.81,33.81,0,0,1-3.14-3.3c-.82-1-1.64-1.9-2.42-2.89l.23.31-.34-.44,0,0,0,0c-.51-.66-1-1.31-1.52-2-2.81-3.72-5.64-7.43-8.32-11.25-3.17-4.52-6.3-9.05-9.43-13.61-1.33-1.94-2.59-3.95-3.87-5.93-1.11-1.68-2.22-3.37-3.3-5.07-2.84-4.43-5.68-8.87-8.48-13.33l-4.47-7.13c-.4-.63-.77-1.29-1.15-1.93l-2.69-4.55c-1.09-1.83-2.2-3.65-3.25-5.5l-4.74-8.34c-4.17-7.35-8.28-14.74-12.47-22.09a1.56,1.56,0,0,0-2.12-.55Zm100.35,94.46-.12.05.12-.05Zm-36.2,4.65.15.19.05.06-.2-.25Zm.26.33h0a.64.64,0,0,0,.1.13l-.1-.13Zm1.4,1.82.11.13a.76.76,0,0,1-.11-.14Z"/><path class="cls-1" d="M81.86,467.14a1.69,1.69,0,0,0-1.18,2.06c1.13,2.84,2.25,5.68,3.38,8.51.54,1.36,1,2.75,1.63,4.09s1.23,2.7,1.86,4.06c.46,1,1,2,1.48,3s1.09,2.25,1.68,3.36l2,3.79c.56,1.07,1.11,2.16,1.7,3.22,1.37,2.41,2.75,4.81,4.11,7.22.51.89,1,1.74,1.57,2.61l2.64,4.38c1.33,2.22,2.74,4.39,4.11,6.57s2.77,4.28,4.16,6.41c1.62,2.49,3.26,5,5.09,7.31a51.42,51.42,0,0,0,16.66,14c1.57.82,3.18,1.58,4.81,2.25a20.84,20.84,0,0,0,5.56,1.3,25.69,25.69,0,0,0,5.26,0,45,45,0,0,0,5.77-.9c1.72-.36,3.4-.83,5.08-1.35s3.55-1.15,5.3-1.81a46.86,46.86,0,0,0,4.91-2.2,43.26,43.26,0,0,0,4.63-2.85c1.49-1,2.93-2.12,4.38-3.2s2.76-2.11,4.1-3.2,2.66-2.2,4-3.32a38.81,38.81,0,0,0,4.07-4,3,3,0,0,0,.85-2,2.91,2.91,0,0,0-.85-2.05,2.94,2.94,0,0,0-4.11,0c-1.34,1.33-2.77,2.57-4.19,3.83-1.2,1.07-2.42,2.12-3.64,3.16-2.23,1.91-4.52,3.72-6.83,5.51-1.45,1.06-2.9,2.09-4.44,3a39.27,39.27,0,0,1-4.48,2.28c-2.21.9-4.47,1.71-6.74,2.45a46.24,46.24,0,0,1-7.27,1.7,28.74,28.74,0,0,1-6.42.17,20.94,20.94,0,0,1-4.78-1.32,57.51,57.51,0,0,1-5.3-2.57,44.09,44.09,0,0,1-5.3-3.44,54.79,54.79,0,0,1-9-9.15c-.93-1.22-1.79-2.51-2.68-3.76-.56-.79-1.09-1.59-1.63-2.39-1.44-2.13-2.88-4.25-4.27-6.41s-2.74-4.21-4-6.36-2.78-4.41-4.09-6.67l-3.88-6.73c-.37-.64-.7-1.29-1-1.93l-2.26-4.21c-1-1.93-2-3.9-3-5.86-.89-1.77-1.69-3.59-2.52-5.39q-2.37-6-4.73-11.9a1.77,1.77,0,0,0-.77-1,1.68,1.68,0,0,0-.85-.22,1.61,1.61,0,0,0-.44.06Zm35.92,62.42.1.14-.1-.14Zm45,12.59-.3.13.3-.13Zm-20,4.29.22,0-.22,0Z"/><path class="cls-1" d="M86.55,473.51a1.47,1.47,0,0,0-1,1.79c1,2.73,1.88,5.46,2.88,8.16.48,1.33,1,2.65,1.46,4s1,2.46,1.59,3.66c.74,1.57,1.6,3.08,2.49,4.57,1.63,2.74,3.49,5.33,5.29,8,.43.63.9,1.23,1.36,1.84l3.07,4.05,1,1.36-.24-.31c3,3.85,5.9,7.73,9,11.46l2.79,3.33c.88,1,1.83,2,2.76,3,1.24,1.3,2.54,2.54,3.86,3.76a43.25,43.25,0,0,0,8.3,6,37.74,37.74,0,0,0,9.46,3.59,41.8,41.8,0,0,0,10.46,1,43.19,43.19,0,0,0,10.53-1.69,61.11,61.11,0,0,0,9.57-3.8,81.43,81.43,0,0,0,8.85-5c3.42-2.21,6.65-4.68,9.88-7.16l3.18-2.44c.86-.67,1.69-1.38,2.53-2.08q5.73-4.77,11.37-9.66c3.6-3.14,7-6.5,10.48-9.79,1.48-1.41,2.93-2.85,4.42-4.25l.18,0a2.71,2.71,0,0,0,2.63-2,2.75,2.75,0,0,0-1.9-3.36,13.25,13.25,0,0,0-1.52-.22,3.58,3.58,0,0,0-1.31.25,7.29,7.29,0,0,0-1.2.56,12.76,12.76,0,0,0-1.08.82c-.48.38-1,.76-1.42,1.17-.9.8-1.77,1.62-2.63,2.46-1.77,1.7-3.48,3.46-5.19,5.21-3.28,3.38-6.74,6.58-10.23,9.73-2.6,2.35-5.23,4.65-7.86,7-1,.86-2.06,1.66-3.09,2.49l-3.92,3.15c-3,2.23-6,4.38-9.12,6.34a73,73,0,0,1-9.76,5.1,44.94,44.94,0,0,1-10.61,2.94,40.81,40.81,0,0,1-9.94-.05,36.72,36.72,0,0,1-8.61-2.34,38.81,38.81,0,0,1-4.07-2.06,42.4,42.4,0,0,1-4.11-2.79,87.32,87.32,0,0,1-12.94-13.27c-1.16-1.4-2.34-2.79-3.46-4.22-1.28-1.63-2.57-3.25-3.84-4.89l-3.15-4.1c-.75-1-1.51-1.93-2.2-2.94L98,496.63c-.77-1.13-1.46-2.31-2.16-3.49a51.76,51.76,0,0,1-3-6.06l.15.36c-.73-1.74-1.36-3.53-2-5.31l-2.68-7.6a1.52,1.52,0,0,0-1.41-1.08,1.43,1.43,0,0,0-.39.06Z"/><path class="cls-1" d="M252.89,445.15a2.72,2.72,0,0,0,.65,5c1,.21,2,.44,2.92.68l.55.14q-2.64,2-5.23,4.16c-2,1.61-3.87,3.29-5.8,4.94s-3.8,3.35-5.69,5-3.79,3.32-5.7,5c-7.61,6.63-15.46,13-23.18,19.46q-6.43,5.42-12.83,10.89c-4,3.38-7.85,6.83-11.75,10.27L178,518.42c-1.07.94-2.2,1.82-3.3,2.72l-4.9,4c-2.65,2-5.29,4-8,6a2,2,0,0,0-.85,1.1,1.86,1.86,0,0,0,.18,1.42,1.9,1.9,0,0,0,1.11.85,1.77,1.77,0,0,0,1.42-.19c2.69-2,5.36-4,8-6,.73-.55,1.44-1.14,2.15-1.71l4.24-3.44c3.7-3,7.25-6.19,10.83-9.34s7.23-6.38,10.91-9.5c4.17-3.53,8.33-7.06,12.53-10.55s8.54-7,12.83-10.46c3.93-3.17,7.83-6.39,11.74-9.58,5.27-4.29,10.46-8.65,15.76-12.88l-.5.38c1.63-1.25,3.24-2.53,4.92-3.72l2.4-1.69,1.75-1.23c.59-.41,1.21-.86,1.76-1.33a5.68,5.68,0,0,0,1.36-1.82,2.86,2.86,0,0,0,.29-2.14,2.91,2.91,0,0,0-1.29-1.67l-1-.67a7.82,7.82,0,0,0-1.74-.73c-.7-.22-1.43-.35-2.14-.52-1.17-.27-2.33-.53-3.51-.76a4,4,0,0,0-.76-.08,2.63,2.63,0,0,0-1.34.35Z"/><path class="cls-1" d="M121.3,214.48a16.84,16.84,0,0,0-7.17,3.05,36.08,36.08,0,0,0-7.58,7.43,17.25,17.25,0,0,0-2.16,3.41,19.8,19.8,0,0,0-1.16,3.32c-.46,1.81-.81,3.64-1.2,5.46a2.22,2.22,0,0,0,4.28,1.18,49.79,49.79,0,0,1,2-7.82,16.25,16.25,0,0,1,1.39-2.29,37.91,37.91,0,0,1,4.45-4.51c.74-.55,1.5-1.07,2.26-1.58a16.19,16.19,0,0,1,2.18-1.15,13.61,13.61,0,0,1,2.25-.61,21.22,21.22,0,0,1,9.07,1.19,6.63,6.63,0,0,1,.81.48,66.57,66.57,0,0,1,5.47,5.67c1.71,1.83,3.31,3.74,4.85,5.71,4.12,5.79,7.52,12,11.33,18,1.86,2.92,3.7,5.85,5.42,8.86,1.81,3.18,3.57,6.39,5.35,9.6.8,1.43,1.52,2.91,2.32,4.34.93,1.67,1.87,3.33,2.8,5,1.71,3,3.37,6.14,5.24,9.1,2,3.2,4.12,6.35,6.12,9.56,1.79,2.88,3.63,5.75,5.25,8.73.93,1.7,1.91,3.38,2.78,5.11l2.9,5.73c1.59,3.16,3.16,6.32,4.74,9.5,3.17,6.4,6.68,12.66,10.44,18.74,1.85,3,3.72,5.94,5.51,8.94,1.05,1.74,2.08,3.48,3.12,5.21s2,3.54,3,5.31c1.78,3.14,3.43,6.36,5.11,9.56.23.43.42.88.62,1.32l1.68,3.63c.6,1.31,1.21,2.6,1.77,3.92.83,2,1.65,3.91,2.48,5.86,1.26,3.06,2.55,6.1,3.74,9.19q2.17,5.61,4.28,11.24c1.34,3.58,2.78,7.11,4.22,10.65.67,1.68,1.42,3.31,2.16,5s1.36,3.18,2.14,4.72l2.65,5.22c.56,1.11,1.18,2.19,1.8,3.27,1.6,2.79,3.25,5.54,4.92,8.28s3.23,5.18,4.89,7.75c.8,1.25,1.61,2.51,2.43,3.75.43.63.85,1.26,1.27,1.9l.5.7a4.55,4.55,0,0,0,1.19,4.12,4.34,4.34,0,0,0,3.08,1.28,4.15,4.15,0,0,0,3.08-1.28,14.52,14.52,0,0,0,1.28-1.75,6.11,6.11,0,0,0,.65-2.71c-.05-.4-.11-.79-.16-1.18a3.5,3.5,0,0,0-.53-1.56,6.35,6.35,0,0,0-.59-1c-.5-.73-1-1.49-1.48-2.23q-1.37-2-2.69-4.1c-1.86-2.88-3.71-5.77-5.5-8.7-.94-1.54-1.92-3.07-2.82-4.63l-3.13-5.48c-.31-.54-.58-1.12-.86-1.68l-1.83-3.59c-.68-1.36-1.3-2.74-1.92-4.12l-2-4.36c-1.19-2.91-2.4-5.8-3.51-8.74-1.39-3.73-2.79-7.44-4.23-11.15s-2.89-7.21-4.37-10.81c-.69-1.66-1.4-3.31-2.1-5s-1.28-3.13-2-4.67l-2.9-6.23c-.59-1.29-1.25-2.53-1.91-3.78-.9-1.71-1.76-3.46-2.71-5.13L223,357.11c-3.41-6-7.17-11.78-10.72-17.69-1-1.64-2-3.25-3-4.93l-3.15-5.71c-1.72-3.13-3.32-6.34-4.92-9.54s-3.18-6.32-4.78-9.47c-.73-1.43-1.46-2.85-2.23-4.26-.87-1.57-1.68-3.17-2.61-4.7q-3-5-6.17-10c-1.88-3-3.93-5.88-5.73-8.93s-3.54-6.17-5.3-9.27-3.45-6.26-5.22-9.38-3.59-6.44-5.52-9.59c-1.79-2.92-3.7-5.74-5.52-8.64-1.93-3.07-3.82-6.16-5.76-9.22a84.84,84.84,0,0,0-6.66-9.24c-2.22-2.64-4.69-5.07-7.14-7.49-.59-.58-1.22-1.13-1.85-1.67a12.07,12.07,0,0,0-3-2,10.71,10.71,0,0,0-2.26-.75c-.65-.12-1.3-.19-2-.28-.86-.1-1.73-.16-2.59-.21-.38,0-.77,0-1.15,0a30.67,30.67,0,0,0-4.49.37Z"/><path class="cls-1" d="M13.81,313.85h-.56a27.43,27.43,0,0,0-3.84.18A8.51,8.51,0,0,0,5,315.92a7.83,7.83,0,0,0-2.15,3.88A13.8,13.8,0,0,0,3,325a42.19,42.19,0,0,0,2.75,9.79,67.54,67.54,0,0,0,3.73,7.59c2.38,4.16,4.77,8.3,7.4,12.3,1.1,1.67,2.21,3.33,3.39,4.95.69.94,1.4,1.87,2.12,2.8a31.81,31.81,0,0,0,2.55,2.77A2.31,2.31,0,0,0,28.19,362c-.78-.77-1.51-1.55-2.25-2.36-.37-.41-.7-.85-1-1.29-1.15-1.53-2.29-3.07-3.37-4.64s-2.35-3.39-3.43-5.14a117.61,117.61,0,0,1-8.55-15.36,39.79,39.79,0,0,1-2.62-9.4A14.73,14.73,0,0,1,6.77,321a9.51,9.51,0,0,1,.28-1,8.6,8.6,0,0,1,.5-.88l.15-.15a7.59,7.59,0,0,1,1-.57,8.6,8.6,0,0,1,1.49-.39c1-.09,2-.09,2.93-.09h.69a2,2,0,1,0,0-4Z"/><path class="cls-1" d="M70.49,286.42A51.07,51.07,0,0,1,66,290.74,39.68,39.68,0,0,0,62,294.47c-.52.61-1,1.22-1.56,1.84s-1,1.36-1.59,2a27.32,27.32,0,0,1-3.32,3.13,14.79,14.79,0,0,1-2,1.18,13.06,13.06,0,0,0-2.42,1.61,44.66,44.66,0,0,0-4.49,3.38c-.56.54-1,1.16-1.58,1.69s-1.23,1.17-1.87,1.74a20.37,20.37,0,0,1-2.54,1.69,29.47,29.47,0,0,1-3.64-.15,20.47,20.47,0,0,1-2.55-.59l-1.35-.39c-.62-.18-1.25-.31-1.87-.51l-.69-.36a10.62,10.62,0,0,0-2.37-.84,18.27,18.27,0,0,0-2.44-.41,15,15,0,0,0-1.64.06c-1.73.09-3.47.18-5.2.41a17.61,17.61,0,0,0-3.36.7,9.52,9.52,0,0,0-3.85,2.59c-.62.63-1.27,1.22-1.85,1.89s-1.17,1.44-1.73,2.17l-3.4,4.17c-1.53,1.85-3,3.75-4.44,5.68a2.07,2.07,0,0,0-.21,1.65,2.21,2.21,0,0,0,1,1.28,2.12,2.12,0,0,0,1.65.21,2.34,2.34,0,0,0,1.29-1c.59-.79,1.18-1.58,1.78-2.36,1.59-2,3.22-4,4.87-5.92.76-.89,1.5-1.8,2.28-2.67a12.34,12.34,0,0,1,1.4-1.31c.39-.32.76-.67,1.15-1a9.74,9.74,0,0,1,.86-.56,11.25,11.25,0,0,1,1.9-.48,48.22,48.22,0,0,1,7.31-.17,19.17,19.17,0,0,1,1.94.52c.33.16.65.35,1,.53a11.26,11.26,0,0,0,2.32.9c.89.24,1.76.6,2.64.9a23.91,23.91,0,0,0,5.69,1.19l1.24.1a5.53,5.53,0,0,0,1.15,0,3.43,3.43,0,0,0,1.27-.26,14.31,14.31,0,0,0,1.7-.74A15,15,0,0,0,46,317a24,24,0,0,0,2.16-1.59c.66-.56,1.29-1.16,1.94-1.73.3-.27.55-.59.84-.87a6.91,6.91,0,0,1,.57-.51c.93-.66,2-1.21,2.9-1.84.52-.33,1-.73,1.53-1.05s1.17-.6,1.76-.91a19.57,19.57,0,0,0,3.64-2.56,23.39,23.39,0,0,0,2.78-2.67l2.54-3c.82-1,1.58-2,2.45-2.92s1.9-1.94,2.81-2.95a52.18,52.18,0,0,0,3.48-4.21,3.11,3.11,0,0,0,.42-1.57,3.17,3.17,0,0,0-.91-2.22,3.25,3.25,0,0,0-2.28-.9,2.81,2.81,0,0,0-2.14.9Zm-29.4,26.15a1.79,1.79,0,0,1-.32.13l.32-.13Zm-.72.23h0Z"/><path class="cls-1" d="M103.72,256.66a9.81,9.81,0,0,0-2.21,1.45c-.41.3-.81.61-1.2.94l-.58.45c-.61.41-1.22.81-1.86,1.18-.28.16-.55.33-.82.5a7.78,7.78,0,0,0-1,.75c-.18.16-.35.32-.51.49s-.55.32-.81.49c-.57.37-1.18.68-1.73,1.09a17.93,17.93,0,0,0-1.44,1.17c-.28.26-.54.54-.83.79s-.55.5-.82.77-.57.51-.85.78c-.62.59-1.28,1.14-1.91,1.73-.85.63-1.73,1.23-2.58,1.87C83.34,272,82.18,273,81,274c-2,1.67-3.93,3.33-5.93,4.95s-4.16,3.48-6.14,5.35-4,3.84-5.89,5.79-3.47,3.71-5.24,5.53-3.4,3.59-5.08,5.41C49,305.11,45,308.84,41,312.61a2,2,0,0,0,2.79,2.79c4.15-3.92,8.38-7.78,12.31-11.93,1.87-2,3.81-3.88,5.72-5.81,1-1,1.92-2,2.91-3s2.08-2,3.14-3c2.59-2.4,5.26-4.71,8-6.9,1.25-.93,2.48-1.87,3.71-2.82l-.08.06c2.49-1.92,4.93-3.9,7.4-5.85.62-.47,1.24-.93,1.88-1.37.34-.25.69-.49,1-.73s.92-.68,1.37-1c.29-.2.59-.36.86-.57l.87-.67c.47-.33.91-.69,1.36-1.05s.81-.59,1.2-.9.52-.37.79-.54.86-.43,1.28-.67c.23-.13.43-.28.66-.41s.53-.29.79-.45a8.75,8.75,0,0,0,1.54-1.31c.35-.31.73-.59,1-.93a26.31,26.31,0,0,0,2.53-3c.61-.86,1.18-1.76,1.79-2.62a1.07,1.07,0,0,1,.14-.16,2,2,0,0,0,.3-2.35,1.94,1.94,0,0,0-1.15-.89,1.62,1.62,0,0,0-.47-.07,2.61,2.61,0,0,0-1,.26Zm-12,16-.12.09.12-.09Z"/><path class="cls-1" d="M114.65,223.84a5.37,5.37,0,0,0-2,.45,4,4,0,0,0-1.73,0,4.51,4.51,0,0,0-2.61,1.82c-.58.69-1.11,1.43-1.65,2.15a28.59,28.59,0,0,0-2.22,3.42,64.93,64.93,0,0,0-4,8.75,34.8,34.8,0,0,0-1.92,9.36,37.63,37.63,0,0,0-.06,4.38l.09,2,.06.83a6.83,6.83,0,0,0,.78,3.3,4.11,4.11,0,0,0,.83,1c-.06.63-.12,1.26-.19,1.9a2.8,2.8,0,0,0,.85,2,2.89,2.89,0,0,0,4.09,0,3.18,3.18,0,0,0,.85-2c.09-.9.19-1.8.28-2.7,1.07-1.61,1.18-4,1.4-5.87.18-1.48.31-3,.48-4.46.26-1.79.55-3.58,1-5.35a42.32,42.32,0,0,1,1.5-5.08c.47-.78,1-1.53,1.54-2.27,1.08-1.3,2.19-2.56,3.34-3.8.7-.76,1.46-1.49,2.11-2.29a5.93,5.93,0,0,0,1.17-2,3.88,3.88,0,0,0,.07-2.31,4.2,4.2,0,0,0-3.88-3.17Z"/><path class="cls-1" d="M123.37,211.71a9.22,9.22,0,0,0-1.73.7c-.18.08-.37.16-.54.25a11.75,11.75,0,0,0-1.09.62c-.75.48-1.49,1-2.22,1.52s-1.26.84-1.86,1.3a36.12,36.12,0,0,0-2.84,2.38c-.56.53-1.09,1.08-1.61,1.65a4,4,0,0,0-.83-.32,4.72,4.72,0,0,0-4.58,1.41,9.8,9.8,0,0,0-1.41,1.95,18.89,18.89,0,0,0-1.26,2.88,20.13,20.13,0,0,0-.69,2.29c-.41,1.68-.86,3.34-1.22,5a45.37,45.37,0,0,0-.74,5.32c-.23.65-.45,1.31-.66,2a13.44,13.44,0,0,0-1,4.3,4.87,4.87,0,0,0,.71,2.36c-.07.34-.14.67-.22,1-.29,1.24-.49,2.52-.9,3.73-.2.43-.4.86-.61,1.29-.4.87-.73,1.75-1.06,2.64-.45,1.18-.91,2.34-1.38,3.5-.43,1-.86,1.94-1.37,2.88-1.66-.12-2.69,1.52-3.55,2.69-.5.68-1,1.38-1.45,2.06q-1.4,2-2.84,3.88c-1.43,1.82-2.87,3.62-4.34,5.4-2.28,2.16-4.49,4.38-6.63,6.69-1.18,1.27-2.3,2.62-3.45,3.92l-1.2,1.36c-4.68,4.39-9.68,8.44-14.28,12.93-2.16,2.12-4.28,4.28-6.38,6.45a2.26,2.26,0,1,0,3.2,3.2c.19-.21.39-.41.59-.62a2.07,2.07,0,0,0,1.16-.05c.33-.12.65-.26,1-.4,1.45-.6,2.89-1.18,4.28-1.89a28.39,28.39,0,0,0,4.52-3.16,49.41,49.41,0,0,0,3.88-3.5c1.25-1.23,2.46-2.49,3.65-3.78q3.72-4,7.31-8.2c2-2.29,3.87-4.62,5.76-7l.93-.81c1.89-1.64,3.79-3.26,5.65-4.94s3.68-3.61,5.42-5.51a30.93,30.93,0,0,0,4.79-6.36c1.13-2.15,2.11-4.38,3-6.63a29.23,29.23,0,0,0,2.21-5.3c.44-1.75.89-3.5,1.22-5.27a48.69,48.69,0,0,0,.71-6l.09-1.39c.33-.9.68-1.79,1-2.67a2.33,2.33,0,0,0,.11-.28l.18-.42c.58-1.27,1.19-2.52,1.87-3.74a37.34,37.34,0,0,1,2.09-3.25,47.12,47.12,0,0,1,5.75-6.15c.78-.57,1.58-1.1,2.38-1.65a21.5,21.5,0,0,1,2.7-1.66,15.08,15.08,0,0,1,1.89.11,9,9,0,0,0,.91.08,6.46,6.46,0,0,0,1.86-.33,4,4,0,0,0,2.44-1.88,4.09,4.09,0,0,0,0-4.13,4.43,4.43,0,0,0-2.05-1.94,4.65,4.65,0,0,0-1.41-.52c-.51-.09-1-.14-1.56-.2l-1.18-.11c-.21,0-.41,0-.62,0a12.19,12.19,0,0,0-2.55.32Z"/><path class="cls-1" d="M83.58,245.42A8.33,8.33,0,0,0,80,248.11c-.7.74-1.34,1.54-2,2.31-1.14,1.33-2.29,2.64-3.47,3.93-2.7,2.94-5.45,5.83-8.21,8.72-.15.17-.31.33-.47.49a4,4,0,0,0-1.59-.4c-1.86-.08-3.16,1.29-4.52,2.35-.76.58-1.48,1.21-2.21,1.82-1.48,1.25-2.91,2.54-4.34,3.83-2.68,2.43-5.33,4.9-8,7.37-2.84,2.66-5.68,5.33-8.54,8-2.68,2.47-5.4,4.88-8.06,7.37-1.54,1.44-3.06,2.9-4.58,4.37-.71.68-1.39,1.37-2.08,2.06s-1.65,1.54-2.4,2.36a3.37,3.37,0,0,0-.52,4l.11.17c-.44.44-.87.88-1.29,1.33l-.63,0a28.33,28.33,0,0,0-6.36.87,11.44,11.44,0,0,0-4.15,2.12A8.89,8.89,0,0,0,3.76,316a20.71,20.71,0,0,0-.47,4.91,16.53,16.53,0,0,0,.12,2.1c.24,1.77.53,3.52.91,5.27.34,1.53.68,3.05,1,4.58s.72,3.14,1.13,4.69c.28,1.08.58,2.15.84,3.22,0,.38.1.77.16,1.14a7.7,7.7,0,0,0,.66,2,4.15,4.15,0,0,0,4.71,1.92,4.13,4.13,0,0,0,1.84-1.07,4.42,4.42,0,0,0,1.23-3,6.82,6.82,0,0,0-.39-2.21c-.17-1.56-.28-3.12-.36-4.68a41,41,0,0,1,.05-6.27c.12-.76.25-1.5.42-2.25a23.51,23.51,0,0,1,.84-2.62,32.83,32.83,0,0,1,2.19-4c.83-1.3,1.74-2.53,2.67-3.76.33-.41.67-.81,1-1.21a3.51,3.51,0,0,0,2.13-1,3.47,3.47,0,0,0,1-2.24c1.15-1,2.35-2,3.56-3,3.12-2.32,6.23-4.65,9.23-7.13,1.47-1.21,2.94-2.43,4.39-3.67s2.78-2.52,4.17-3.78c.6-.56,1.21-1.11,1.81-1.68a9,9,0,0,0,1.88-2.41,4.76,4.76,0,0,0,.56-2.34,4,4,0,0,0-.18-1.2c4.42-4,8.69-8.17,12.94-12.34,3.83-3.75,7.59-7.56,11.34-11.39,1.87-1.92,3.71-3.85,5.54-5.81.87-.93,1.73-1.88,2.58-2.83.62-.68,1.21-1.39,1.85-2.05a3.22,3.22,0,0,0,2.27-2.2,3.37,3.37,0,0,0-.31-2.87,3.18,3.18,0,0,0-2.73-1.56,3.24,3.24,0,0,0-.82.11Zm-36,45.89-.32.05.32-.05ZM11.51,316.46c-.18.28-.34.56-.51.85,0-.09.05-.19.07-.28l.19-.32.25-.25Z"/><path class="cls-1" d="M97.38,236.37a19,19,0,0,0-1.84,1.52l-.17,0a6.85,6.85,0,0,0-2.6,1.43c-.75.53-1.46,1.13-2.18,1.71-.92.73-1.82,1.52-2.71,2.3-1.95,1.71-3.89,3.44-5.7,5.29s-3.63,3.79-5.37,5.76c-1,1.13-2,2.31-2.87,3.51-.33.43-.65.87-1,1.31a6,6,0,0,0-.73,1.42,2.75,2.75,0,0,0-.14.49c-1.13,1.27-2.25,2.54-3.4,3.8-1.43,1.56-2.86,3.13-4.27,4.72-.77.86-1.54,1.72-2.32,2.56l-1.05,1.14-.69.75a5.45,5.45,0,0,0-1.31,2.07,2.8,2.8,0,0,0,.14,2,2.13,2.13,0,0,0-2,.61c-1.79,2-3.65,4-5.46,6l-.2.22a2.22,2.22,0,0,0-2.52-1.07c-.34.13-.66.26-1,.42a4.37,4.37,0,0,0-1.12,1l-.78.82-1.92,2.14c-1.14,1.28-2.24,2.59-3.34,3.9-.56.66-1.1,1.33-1.64,2a2.14,2.14,0,0,0-2.56.42c-.6.72-1.17,1.48-1.75,2.22l.08-.1-.07.09-.33.43a1.83,1.83,0,0,1-.13.16l.33-.43-.45.58c-1.49,1.75-3,3.45-4.48,5.24A16.31,16.31,0,0,0,28,305.48a3.78,3.78,0,0,0-.39,1.3,2.21,2.21,0,0,0-.19,1.58,2.24,2.24,0,0,0,.42.81l-.11.09a2.72,2.72,0,0,0-.72.79,2.87,2.87,0,0,0-.52,1.54,3.84,3.84,0,0,0,.34,1.38,2.43,2.43,0,0,0,.71.88,3.52,3.52,0,0,0,1.34.73,8.7,8.7,0,0,0,1.83.21,18.36,18.36,0,0,0,4.71-.74l1-.25a2.42,2.42,0,0,0,1,.42,2.33,2.33,0,0,0,1.48,1.2,3.1,3.1,0,0,0,2.23-.32,1.79,1.79,0,0,0,.86-.31,4.3,4.3,0,0,0,.79-.68c.18-.22.35-.47.52-.7a4.27,4.27,0,0,0,.3-.44c1-1,1.92-2,2.85-3.08,1.91-2.11,3.79-4.28,5.59-6.48.69-.85,1.38-1.69,2-2.56.37-.48.7-1,1-1.48.26-.27.51-.55.77-.83,1.18-1.3,2.35-2.6,3.52-3.92a2.15,2.15,0,0,0,.73-.31,16.57,16.57,0,0,0,2.79-2.5l1.59-1.6c1.17-1.16,2.34-2.32,3.52-3.46q2.89-2.78,5.76-5.56c1.33-1.1,2.63-2.22,3.94-3.34.78-.67,1.54-1.34,2.33-2l.45-.39a4,4,0,0,0,1-1.65l2.6-2.13,3.19-2.6a3.76,3.76,0,0,0,1.83-.9,18.1,18.1,0,0,0,1.77-1.94l.33-.39.32-.26c.6-.51,1.19-1,1.77-1.58l.23-.06a3.26,3.26,0,0,0,2-1.56l.18-.38.54-1.09a17.1,17.1,0,0,0,2.35-3.29c.21-.38.41-.76.61-1.15a3.21,3.21,0,0,0,.5-.65,6.25,6.25,0,0,0,.57-1.39,4,4,0,0,0,.11-.47,7.06,7.06,0,0,0,.55-3.28,13.53,13.53,0,0,0,.39-2.5,3.09,3.09,0,0,0-1.47-2.64c.44-.54.87-1.08,1.29-1.63a7.84,7.84,0,0,0,1.83-3.18,4,4,0,0,0,0-2.07,3.92,3.92,0,0,0-1-1.7,3.8,3.8,0,0,0-1.71-1,4.15,4.15,0,0,0-1.08-.14,3.32,3.32,0,0,0-1.9.53Zm3.76,12.94-.09.22.09-.22ZM35.3,296.4l-.11.15.11-.15Z"/><path class="cls-1" d="M126.06,207.64a26.68,26.68,0,0,0-5.73,1.2,33.1,33.1,0,0,0-8.7,4.34c-2.59,1.74-5.33,3.26-7.92,5-1.32.89-2.56,1.95-3.83,2.91a54.31,54.31,0,0,0-4.43,3.56c-2.41,2.24-4.64,4.65-6.94,7s-4.86,4.63-7.31,6.9C78.58,241,76,243.44,73.56,246c-4.72,5-9.71,9.77-14.68,14.54-2.58,2.47-5.11,5-7.69,7.46-1.38,1.31-2.75,2.63-4.18,3.88-1.27,1.12-2.59,2.19-3.88,3.29-5.45,4.61-10.71,9.45-15.7,14.56q-1.5,1.53-3,3.1c-.86.76-1.71,1.55-2.52,2.37-1.27,1.28-2.45,2.61-3.61,4s-2.52,3-3.68,4.56L12.26,307l-.26.32c-.76.86-1.51,1.73-2.23,2.61l-1.16,1.33C8,312,7.4,312.6,6.79,313.24l-1.27,1.37a7,7,0,0,0-1.82,2.61,3.27,3.27,0,0,0,0,1.7,3.5,3.5,0,0,0,1.47,1.91,3.34,3.34,0,0,0,3.41,0,4.16,4.16,0,0,0,.73-.44,21.51,21.51,0,0,0,2.35-2c1.17-1.13,2.28-2.35,3.39-3.54s2.11-2.32,3.08-3.55c1.12-1.45,2.19-2.93,3.29-4.39a67.39,67.39,0,0,1,6.63-7.58c.59-.56,1.19-1.1,1.8-1.65l3.2-2.32c2.82-2,5.61-4.13,8.46-6.15l4.39-3.12c1.59-1.13,3.11-2.34,4.65-3.53a37,37,0,0,0,3.76-3.43q1.89-2,3.68-4a80.65,80.65,0,0,1,7.13-7.31c2.59-2.29,5.31-4.44,7.92-6.7s5-4.62,7.39-7c1.17-1.16,2.33-2.33,3.53-3.45s2.61-2.42,3.87-3.67c2.33-2.29,4.66-4.57,7-6.87,2.1-2.08,4.2-4.15,6.47-6,.91-.65,1.86-1.24,2.8-1.84,1.16-.73,2.27-1.52,3.36-2.33a38.71,38.71,0,0,0,3.7-3.08c.48-.45,1-.88,1.44-1.35.15-.16.31-.3.47-.45a5.65,5.65,0,0,0,1.12-1.3,4.2,4.2,0,0,0,.6-1.88c.82-.52,1.62-1.08,2.44-1.61a33.52,33.52,0,0,1,3.88-2.18,29.68,29.68,0,0,1,5.06-1.41,11.36,11.36,0,0,1,1.65,0,12.45,12.45,0,0,1,1.87.54,23.43,23.43,0,0,1,3.68,2l0,0c0,.1,0,.19,0,.28a4.24,4.24,0,0,0,7.23,3l.66-.86a4.12,4.12,0,0,0,.58-2.14,7.78,7.78,0,0,0-2.76-7.19,21,21,0,0,0-2.58-1.72,32.07,32.07,0,0,0-5.1-2.32,11.09,11.09,0,0,0-2-.43,18.17,18.17,0,0,0-2.41-.19c-.31,0-.62,0-.94,0Z"/><path class="cls-1" d="M7.47,326.29a1.42,1.42,0,0,0-.65,1.61c.17.56.45,1.11.68,1.66s.43,1,.64,1.57a2,2,0,0,0,.44.65l.1.23q1.61,3.92,3.28,7.79c1.16,2.66,2.36,5.29,3.57,7.92s2.22,5,3.33,7.52,2.25,5,3.37,7.5q3.21,7.1,6.56,14.11c1.09,2.28,2.18,4.55,3.32,6.8s2.35,4.68,3.51,7q3.95,7.9,7.8,15.85c1.24,2.56,2.44,5.13,3.65,7.69,1.14,2.4,2.31,4.78,3.47,7.16,1.24,2.55,2.52,5.08,3.81,7.61a3.15,3.15,0,0,0-.59,3.86c2.57,4.55,5.22,9,7.86,13.54,2.5,4.25,4.9,8.57,7.55,12.73a3.59,3.59,0,0,0,6.56-2.76,25.86,25.86,0,0,0-2.43-4.74c-.69-1.22-1.35-2.44-2-3.66-1.34-2.45-2.66-4.91-4-7.37-1.14-2.12-2.25-4.26-3.4-6.38q-1.87-3.42-3.74-6.84c-2.67-4.93-5.32-9.86-7.85-14.87q-3.91-7.74-7.91-15.47c-4.73-9.11-9.79-18-14.32-27.27q-3.83-7.78-7.6-15.62c-1.15-2.39-2.27-4.8-3.4-7.21s-2.26-4.58-3.33-6.9c-1-2-1.93-4.1-2.85-6.17-.47-1.05-.93-2.11-1.41-3.16-.28-.61-.57-1.21-.85-1.82a7.22,7.22,0,0,0-1.43-2.36,1.51,1.51,0,0,0-1-.42,1.34,1.34,0,0,0-.7.2Z"/><path class="cls-1" d="M7.55,335.5a2.43,2.43,0,0,0-.13.89,6.91,6.91,0,0,0,.11.9,17.81,17.81,0,0,0,.49,2c.23.8.48,1.59.77,2.37l1.44,3.84c.74,2,1.54,3.92,2.33,5.88q.45,1.11.93,2.22c.42,1,.81,2,1.26,3q1.41,3.11,2.83,6.21c.73,1.61,1.44,3.22,2.19,4.81,1,2.09,2,4.18,3,6.26l3.15,6.63c.66,1.4,1.39,2.78,2.09,4.16,1.19,2.36,2.37,4.71,3.57,7.07.7,1.4,1.48,2.76,2.23,4.14l6.3,11.58c.88,1.6,1.79,3.2,2.63,4.83l3.59,7c1.79,3.45,3.5,6.94,5.26,10.4,1.85,3.65,3.76,7.27,5.6,10.92.87,1.75,1.78,3.48,2.62,5.24,1,2.08,2,4.16,3,6.24s1.85,3.94,2.77,5.9c.81,1.72,1.55,3.47,2.35,5.19.94,2.06,1.89,4.12,2.87,6.17.42.89.85,1.76,1.28,2.64l.65,1.27c.12.24.25.48.38.72a9.21,9.21,0,0,0,1.37,2.11,3.91,3.91,0,0,0,.77.64c.36.18.73.33,1.11.48a3,3,0,0,0,1.56,0,2.86,2.86,0,0,0,1.3-.76,3,3,0,0,0,.76-2.87,19.08,19.08,0,0,0-.91-2.53c-.21-.5-.44-1-.66-1.5l-1-2.25a2.76,2.76,0,0,0-1-1,2.84,2.84,0,0,0-.92-.34c-1-1.84-2-3.71-3-5.57-.87-1.66-1.68-3.34-2.54-5l-3-5.76-3.23-6.2c-.91-1.75-1.89-3.47-2.84-5.2-1.93-3.53-3.93-7-5.85-10.56s-3.75-6.91-5.65-10.35l-3.75-6.76c-.91-1.64-1.88-3.25-2.82-4.87-2.21-3.8-4.39-7.6-6.57-11.41-.77-1.33-1.56-2.65-2.27-4l-3.75-7.08c-.7-1.34-1.44-2.66-2.1-4-1.1-2.23-2.2-4.47-3.29-6.7q-1.5-3-3-6.08c-.8-1.62-1.54-3.28-2.31-4.91-1.2-2.56-2.42-5.11-3.58-7.68s-2.27-5.22-3.39-7.83c-.49-1.21-1-2.43-1.43-3.64l-.6-1.51c-.26-.66-.48-1.34-.7-2a.5.5,0,0,0,0-.13l.11,0a.81.81,0,0,0,.28-1.06l-.47-1.08a7.3,7.3,0,0,0-.59-1.23.88.88,0,0,0-.73-.4.85.85,0,0,0-.82.61ZM78.9,472.09l.09.07-.09-.07Z"/><path class="cls-1" d="M87.76,476a1.39,1.39,0,0,0-1,1.7,40.09,40.09,0,0,0,2.81,6.57c.56,1,1.12,2,1.74,3,1.21,1.91,2.44,3.8,3.73,5.66q4.15,6,8.34,12.06c2.7,3.92,5.34,7.89,8,11.86,1.21,1.81,2.42,3.63,3.7,5.4,1.5,2.06,3.09,4,4.75,6a59.66,59.66,0,0,0,4.1,4.46c.94.88,1.92,1.69,2.94,2.47a5.57,5.57,0,0,0,1.25.78,4.21,4.21,0,0,0,1.7.45,3.83,3.83,0,0,0,1.34-.2,3.1,3.1,0,0,0,2.17-2.83,6,6,0,0,0-.31-2,2.62,2.62,0,0,0-3.77-1.6l-.58-.37c-.54-.37-1.07-.75-1.59-1.13-.71-.56-1.41-1.13-2.07-1.73-1-.93-2-1.88-3-2.83-.82-.8-1.57-1.67-2.35-2.5-.4-.42-.75-.9-1.13-1.35l-1.18-1.43c-2.72-3.62-5.37-7.29-8-10.94l-8.73-11.9c-1.75-2.4-3.46-4.82-5.17-7.25a50.32,50.32,0,0,1-5-8.56c-.37-.92-.7-1.86-1-2.79a1.42,1.42,0,0,0-1.32-1,1.57,1.57,0,0,0-.37.05Z"/><path class="cls-1" d="M100.35,496.14A1.56,1.56,0,0,0,99.28,498a44.75,44.75,0,0,0,3.51,8.28c.65,1.09,1.26,2.21,1.95,3.27q1.73,2.69,3.5,5.34a2.81,2.81,0,0,0-.62.45,2.55,2.55,0,0,0-.68,1.18,2.84,2.84,0,0,0,.26,2,6.86,6.86,0,0,0,1,1.36l.3.38c3.07,4,6.3,7.89,9.67,11.66,1.63,1.83,3.41,3.51,5.18,5.2.87.83,1.83,1.58,2.75,2.36,1.09.92,2.24,1.75,3.38,2.61l.56.41.46.43a43,43,0,0,0,3.5,3,14.69,14.69,0,0,0,2.12,1.36,12,12,0,0,0,1.62.67,3.72,3.72,0,0,0,2,0,2.71,2.71,0,0,0,1.2-.7,2.83,2.83,0,0,0,.7-1.19c0-.28.08-.56.11-.84a2.68,2.68,0,0,0-.45-1.48l-.35-.45c0-.08,0-.15,0-.23a2.33,2.33,0,0,0-.09-1,6.36,6.36,0,0,0-.58-1.24,14.63,14.63,0,0,0-.92-1.16l-.58-.64c-.36-.41-.74-.81-1.11-1.2l-2.52-2.61c-3.43-3.48-6.92-6.91-10.39-10.35-1.36-1.34-2.7-2.7-4-4.06s-2.84-3.09-4.28-4.61a2.56,2.56,0,0,0-2.49-.65,2.52,2.52,0,0,0-1.06.59c-.69-1-1.39-2-2.08-3-1.14-1.66-2.24-3.35-3.35-5-.52-.79-1-1.63-1.47-2.44a38.88,38.88,0,0,1-2.27-4.34c-.54-1.35-1-2.74-1.49-4.12a1.61,1.61,0,0,0-1.49-1.13,2,2,0,0,0-.41.05Z"/><path class="cls-1" d="M266,445.67l-.61.79c-.61.58-1.29,1.1-1.95,1.63s-1.14.92-1.72,1.38c-2.08,1.59-4.18,3.15-6.26,4.74-2.42,1.85-4.7,3.86-7,5.92-2.1,1.93-4.11,4-6.2,5.91-1.94,1.79-3.95,3.5-6,5.18-2.38,1.77-4.82,3.46-7.28,5.12-2.73,1.84-5.42,3.73-8.13,5.61s-5.17,3.51-7.79,5.2c-1.44.93-2.86,1.87-4.25,2.85-1.6,1.14-3.13,2.38-4.66,3.61a68.7,68.7,0,0,0-7,6.75c-2.24,2.39-4.43,4.82-6.68,7.19-1,1.11-2.09,2.25-3.23,3.25l-1.82,1.6c-.65.57-1.37,1.06-2,1.6a37.32,37.32,0,0,0-6.06,7c-1.36,1.82-2.76,3.61-4.1,5.44s-2.58,3.49-3.9,5.21c-.69.9-1.39,1.81-2.14,2.65a36.07,36.07,0,0,1-2.88,2.92l-.84.64a25.57,25.57,0,0,1-4.14,2.47,15.34,15.34,0,0,1-3,.8,32.42,32.42,0,0,1-6.95-.4,24.35,24.35,0,0,1-4.11-1.07c-2.67-1.21-5.24-2.63-7.86-4a1.59,1.59,0,1,0-1.6,2.74c3,1.55,6,3.34,9.14,4.61a25.44,25.44,0,0,0,6,1.35l2.18.29,1.33.16a14.4,14.4,0,0,0,3.71-.15,17.4,17.4,0,0,0,5.82-2.19c.86-.46,1.7-1,2.52-1.48a25.12,25.12,0,0,0,4-3.34c1.15-1.14,2.2-2.38,3.28-3.57s2-2.2,3-3.3c1.77-1.92,3.54-3.84,5.3-5.78a45.25,45.25,0,0,1,4.74-4.65,64.79,64.79,0,0,0,5.76-4.39c1.93-1.75,3.79-3.56,5.6-5.44s3.72-3.86,5.59-5.78a71.31,71.31,0,0,1,5.77-5.22c1-.78,2-1.55,3.08-2.26q2.13-1.44,4.32-2.8c2.64-1.65,5.27-3.34,7.86-5.08s5.43-3.68,8.18-5.49,5.44-3.62,8.09-5.56c1.78-1.3,3.48-2.77,5.14-4.23s3.33-3,5-4.53c1.46-1.39,2.91-2.8,4.41-4.15s2.89-2.53,4.38-3.76c1.92-1.44,3.85-2.87,5.77-4.32,1.28-1,2.56-2,3.82-3,.47-.37.95-.74,1.41-1.13a9.77,9.77,0,0,0,1.47-1.6,4.84,4.84,0,0,0,.75-1.55,5.08,5.08,0,0,0,0-2.48,4.39,4.39,0,0,0-7.33-1.94ZM164.81,536.85l-.31.24.31-.24Zm-1,.78-.15.11.15-.11Z"/><path class="cls-1" d="M132.25,214.52a2,2,0,0,0-.7,2.69,34,34,0,0,0,2.74,5c1.17,1.68,2.46,3.27,3.73,4.88,2,2.6,3.91,5.25,5.74,8,.93,1.38,1.77,2.83,2.64,4.24q1.44,2.34,2.91,4.67c.85,1.35,1.71,2.68,2.57,4s1.86,2.85,2.68,4.34,1.64,3.09,2.37,4.68,1.33,3,2,4.53a169.17,169.17,0,0,0,7.61,15.32c1.54,2.72,3,5.49,4.45,8.26s2.6,5.36,3.78,8.09c1.39,3.28,2.81,6.53,4.35,9.74,1.47,3,3.14,6,4.79,8.92,1.16,2.08,2.2,4.22,3.19,6.39a30.56,30.56,0,0,1,5.88,6.6,40.56,40.56,0,0,1,6.58,20.42q.78,1.77,1.59,3.54c1.4,3,2.78,6.09,4.45,9s3.6,6,5.53,8.93,3.81,5.74,5.6,8.68,3.42,5.67,5.16,8.48c1.89,3,3.87,6,5.77,9.05,1.75,2.79,3.39,5.64,5.12,8.45,1.84,3,3.82,5.9,5.62,8.93s3.59,6.08,5.21,9.22,3,6.2,4.48,9.29,3.3,5.87,5,8.75c.83,1.36,1.59,2.77,2.34,4.19s1.46,3,2.22,4.49,1.62,3.12,2.47,4.66c.39.72.77,1.46,1.14,2.2l.45.95a4.75,4.75,0,0,0,4.26,2.65,4.36,4.36,0,0,0,4.2-3.21,8,8,0,0,0,.19-1.29c-.1-.75-.2-1.49-.31-2.23a4.2,4.2,0,0,0-1.1-1.89,4,4,0,0,0-.3-.28l-1.1-2.05c-.83-1.54-1.66-3.09-2.43-4.65s-1.47-3.05-2.27-4.54-1.58-2.86-2.43-4.26-1.69-2.76-2.52-4.14-1.69-3.06-2.46-4.64c-1.5-3.1-2.92-6.23-4.5-9.29s-3.41-6.09-5.19-9.08-3.69-5.77-5.49-8.68-3.55-5.94-5.39-8.87-3.79-5.85-5.63-8.82-3.48-5.72-5.23-8.58-3.77-5.83-5.68-8.73c-1.81-2.73-3.6-5.51-5.18-8.39-.84-1.55-1.7-3.09-2.45-4.7s-1.5-3.22-2.25-4.83-1.32-3-2-4.54-1.41-3.11-2.11-4.67c-1.4-3.09-2.93-6.12-4.41-9.17-.74-1.5-1.43-3-2.14-4.55s-1.47-3.09-2.17-4.66a100.71,100.71,0,0,0-4.56-9.12c-1.7-3-3.38-6-4.9-9s-2.85-6.16-4.22-9.26c-.73-1.65-1.46-3.32-2.28-4.92s-1.71-3.26-2.6-4.88c-1.61-3-3.35-5.87-5-8.8-2.93-5.11-5.52-10.4-8.17-15.66a58.1,58.1,0,0,0-4.8-7.78c-1.74-2.42-3.67-4.7-5.52-7-2.43-3.25-4.72-6.62-7.32-9.74s-5.45-6-8.08-9.07a25,25,0,0,1-1.56-2.25c-.62-1.05-1.12-2.15-1.64-3.25a1.85,1.85,0,0,0-1.7-1,2,2,0,0,0-1,.26Z"/><path class="cls-1" d="M639.19,123.51c0,.32.07.64.1,1l.44.48,1.9.5a2,2,0,0,0-1-1.72,2.15,2.15,0,0,0-1-.26,2.12,2.12,0,0,0-.44,0Z"/><path class="cls-2" d="M98.49,291.71l-.53.07a5.75,5.75,0,0,0-2.89,1,7.9,7.9,0,0,0-3.88,4.85,5.2,5.2,0,0,0-.11,1.26c-2.66,4-5.18,8.2-7.44,12.49-1.44,2.73-2.82,5.46-4.16,8.23-1.25,2.57-2.39,5.18-3.56,7.78s-2.14,5.12-3.2,7.68-1.94,5.3-2.89,8c-1.7,4.8-3.17,9.7-4.43,14.64-.79,3.09-1.59,6.19-2.37,9.29-1.36,5.37-2.66,10.75-4.46,16-.49,1.35-1,2.71-1.62,4-.41-3.76-.61-7.56-.68-11.33-.08-4.76-.21-9.52-.07-14.28.31-10.33.31-20.65.17-31a0,0,0,1,0,0,0c-.69,5.53-1.31,11.06-1.94,16.6-.59,5.27-1.28,10.55-1.71,15.84-.47,5.84-.79,11.67-1,17.53-.07,2.57-.15,5.15-.21,7.72,0,.73,0,1.45,0,2.18a17.47,17.47,0,0,0,.41,4.14,4.7,4.7,0,0,0,1.32,1.95,5.07,5.07,0,0,0,2,1.1c1.93.42,3.49-.8,4.8-2a14.1,14.1,0,0,0,2-2.58,24.57,24.57,0,0,0,1.58-3.06,61,61,0,0,0,2.82-7.54c1.09-3.33,1.87-6.75,2.69-10.15q1.44-6,2.91-12c1-3.93,2.11-7.79,3.25-11.68.9-3.09,2.07-6.1,3.15-9.13l3.21-7.73c1-2.39,2.18-4.7,3.27-7.05.59-1.29,1.31-2.53,2-3.79.48-.94,1-1.87,1.48-2.78L90.64,314c.6-1,1.29-2,2-3,.58-.79,1.16-1.57,1.76-2.35,0,.89-.12,1.77-.19,2.66-.5,5.29-1,10.57-1.64,15.85Q91.46,336,90.41,344.9c-1.18,10-2.18,20.11-3.26,30.16-1.26,11.79-2.67,23.56-3.56,35.39-.19,2.55-.36,5.1-.53,7.65-.08,1.23-.15,2.47-.22,3.7a18.5,18.5,0,0,0,.33,6.21,9.68,9.68,0,0,0,7.1,6.69,8.27,8.27,0,0,0,4.77-.42l1.89-.93c.68-.57,1.35-1.16,2-1.75a15.2,15.2,0,0,0,2-2.71,16.17,16.17,0,0,0,1.16-2.27c.84-2,1.49-4.06,2.14-6.1s1.09-4,1.58-6c.73-3,1.25-6.06,1.87-9.08,1.22-5.93,2.38-11.88,3.52-17.83-.48,4.32-.83,8.65-1.26,13-.27,2.8-.39,5.61-.57,8.42s-.41,5.56-.51,8.35q-.22,5.91-.47,11.83c-.13,3.33-.14,6.68-.21,10-.1,3.89-.19,7.77-.28,11.67-.1,4.53-.44,9.3.85,13.7a8.38,8.38,0,0,0,8.39,5.67,13.52,13.52,0,0,0,2.81-.53,8.53,8.53,0,0,0,3.89-2.72c1.53-1.68,2-3.87,2.75-6,.74-2.25,1.41-4.51,1.95-6.82.62-2.56,1.22-5.13,1.85-7.7q2.14-8.91,4.28-17.83c2.49-10.43,4.85-20.89,7.59-31.26.84-3.19,1.75-6.35,2.68-9.51.63-2.17,1.34-4.32,2.06-6.46.85,7.11.89,14.29,1.08,21.45.13,4.9,0,9.81.16,14.71q.14,4.92.26,9.84c.08,2.84.36,5.68.54,8.51.33,5.31,1,10.59,1.65,15.87a131.78,131.78,0,0,0,2.58,13.93,23.88,23.88,0,0,0,1.18,3.68c.4.82.8,1.64,1.21,2.46a11.4,11.4,0,0,0,2,2.59,10.84,10.84,0,0,0,5.09,3,11.76,11.76,0,0,0,6.09-.11,19.4,19.4,0,0,0,4.53-1.92,22.28,22.28,0,0,0,4-3.26,37.73,37.73,0,0,0,5.86-7.28A64.34,64.34,0,0,0,189,454c1-2.46,2-4.91,2.88-7.42.57-1.61,1.1-3.23,1.62-4.86l.41.78c.93,1.8,1.89,3.59,2.85,5.38,1.51,2.8,3,5.61,4.59,8.36,1.75,3,3.49,6,5.48,8.86a36.65,36.65,0,0,0,3,3.88,32.63,32.63,0,0,0,2.51,2.48,9.91,9.91,0,0,0,1.84,1.21,6.11,6.11,0,0,0,1.93.5s0,0,0,0a10.58,10.58,0,0,1-1.09-.62,6.27,6.27,0,0,1-.88-.83,24.4,24.4,0,0,1-2.42-4.13c-1-2.33-1.9-4.66-2.68-7.07-.89-2.76-1.76-5.51-2.67-8.26-1.62-5-3.09-10-4.73-14.91-.51-1.53-1-3.07-1.58-4.56a21.5,21.5,0,0,0-2.25-4.37,7.34,7.34,0,0,0-5-3.14c-1.39-.15-3-.18-4.19.79-.52.43-1,.87-1.53,1.31s-.8,1.17-1.21,1.75a89.31,89.31,0,0,0-4.31,7.86c-2.9,5.6-5.63,11.29-8.75,16.77-.51.89-1.06,1.76-1.63,2.62a39.45,39.45,0,0,1-3.77,4.57c-.43-1.51-.78-3-1.16-4.55s-.59-2.76-.84-4.15c0,.26.09.51.14.76-.36-2.47-.8-4.93-1.09-7.41l-1-8.8c-.13-1.11-.17-2.24-.26-3.36-.15-1.9-.29-3.81-.44-5.72-.19-2.45-.22-4.91-.31-7.36-.21-5.82-.29-11.63-.37-17.44,0-2.47-.14-4.92-.21-7.38-.13-4.37-.28-8.73-.7-13.09A69.36,69.36,0,0,0,159,370.38a28.11,28.11,0,0,0-2.18-5.47,12.36,12.36,0,0,0-2-2.66,11.7,11.7,0,0,0-3.15-2.34l-1.72-.62a5.17,5.17,0,0,0-2.56-.38,7,7,0,0,0-3.13.57,11.94,11.94,0,0,0-5.6,5.12c-.92,1.59-1.7,3.27-2.52,4.91a71.5,71.5,0,0,0-2.85,6.9c-1.13,3.07-2.22,6.13-3.22,9.24-1.82,5.65-3.47,11.35-5,17.08v-.18q.56-6.68,1.12-13.35c.19-2.45.56-4.9.85-7.35q.47-4.11,1-8.24c.6-5.18,1.33-10.35,2-15.53.83-6.48,1.4-13,1.61-19.55a82.54,82.54,0,0,0-.34-10.55,43.73,43.73,0,0,0-1.13-6.45,22.22,22.22,0,0,0-2.6-5.4,7.17,7.17,0,0,0-2.71-2.42,7.47,7.47,0,0,0-5.55-.41,10.37,10.37,0,0,0-2.89,1.25,9.05,9.05,0,0,0-2.78,3.18c-.79,1.71-1.44,3.46-2.07,5.23-.43,1.21-.88,2.42-1.29,3.64-1,2.86-1.84,5.74-2.71,8.62-1.56,5.15-2.78,10.42-4.06,15.65-.3,1.22-.6,2.44-.89,3.67q1-11.39,2.05-22.77c.29-3,.62-6,.84-9s.43-6.09.65-9.14c.12-1.74.2-3.47.27-5.21a34.23,34.23,0,0,0-.85-11A13.7,13.7,0,0,0,104.4,295a5.46,5.46,0,0,0-1.68-1.83l-1.24-.84a5.76,5.76,0,0,0-2.66-.64Zm46,80.05.24.16h0l-.24-.16Zm20,90.93.35,0-.35,0Zm3.93,1.23.23.16-.22-.14v0Zm45.64,7.72,0,.06,0-.06Z"/><path class="cls-3" d="M809,91.53c-.77,5.11-1.53,10.2-2.52,15.27q-1.56,8-2.81,16-.54,3.51-1.15,7c-.41,2.43-.71,4.89-1.19,7.32q-.95,4.78-1.71,9.59c-.46,2.89-1.12,5.77-1.74,8.62-.83,3.86-1.79,7.71-2.92,11.5-1.93-1.38-3.88-2.78-5.7-4.28-2.13-1.75-4.38-3.42-6.41-5.29l-7-6.4c-2-1.83-3.89-3.79-5.82-5.69-3.51-3.45-6.9-7-10.31-10.57-3.82-4-7.72-7.89-11.45-11.94-2.39-2.61-4.8-5.2-7.17-7.82a53.6,53.6,0,0,0-7.43-6.94,17.24,17.24,0,0,0-4.25-2.65c-2.69-1-4.57-1.81-7.54-1.54a13,13,0,0,0-4.54.94,13.75,13.75,0,0,0-5.89,3.89,8.5,8.5,0,0,0-2.15,3.31l-1.21,3.38a28.82,28.82,0,0,0-.29,4.25c0,.64,0,1.3.1,1.94l.21,2.35c.13,1.49.28,3,.43,4.47.24,2.31.49,4.63.77,6.94.73,5.93,1.55,11.84,2.38,17.76.67,4.84,1.48,9.66,2.11,14.51.6,4.59,1.23,9.17,1.77,13.77-2-3-4-6-6-9l-5.29-7.64c-1.53-2.21-3.22-4.34-4.82-6.51-3.31-4.46-6.84-8.77-10.33-13.09-2.25-2.8-4.67-5.46-7-8.16-2-2.26-4.09-4.36-6.21-6.47a33.06,33.06,0,0,0-6-4.71c-2.92-1.79-6.49-3.24-10-2.9-2.44.23-5.18.69-7.2,2.26l-.45.35a13.68,13.68,0,0,0-4.56,5.11,17.57,17.57,0,0,0-2.18,9.93c.08,2.29.45,4.57.71,6.85.29,2.53.59,5,.93,7.58.15,1.2.32,2.4.48,3.59l-.6-.87a128.81,128.81,0,0,0-8.39-10.28,85.27,85.27,0,0,0-8.08-8.38,31.24,31.24,0,0,0-6.23-4.17,32.11,32.11,0,0,0-4.52-1.77,16,16,0,0,0-13.25,1.79c-1.65.87-3.68,3.49-4.5,5.1a17.18,17.18,0,0,0-1.68,7.52,70.16,70.16,0,0,0,.48,9.49c.74,9.59,1.94,19.14,3.11,28.68l.09.68c-.61-.67-1.23-1.33-1.87-2-4.52-4.53-9.15-9.08-15-11.78a33,33,0,0,0-6.46-2.26,22.66,22.66,0,0,0-4-.38,10.13,10.13,0,0,0-2.26.17,12.92,12.92,0,0,0-5.18,1.76,12.67,12.67,0,0,0-3,2.42,21.15,21.15,0,0,0-1.91,2.85,28.65,28.65,0,0,0-1.55,3.91,32.22,32.22,0,0,0-1.38,8.73c-.1,1.46-.16,2.91-.2,4.37a172.4,172.4,0,0,0,.8,18.87q.35,4.17.84,8.32c.22,1.83.46,3.67.7,5.5a75.55,75.55,0,0,1,.89,8.23l-.22,0c-1.56-.79-3-1.68-4.54-2.63A87.82,87.82,0,0,1,549,223.61c-1.89-1.87-3.78-3.74-5.62-5.66-1.61-1.68-3.13-3.43-4.69-5.15-.32-.4-.75-1.13-1.25-1.29s-.57.4-.35.66c2,2.86,3.74,5.84,5.74,8.69,1.7,2.41,3.52,4.73,5.4,7A138,138,0,0,0,560.62,241c0,.08,0,.17,0,.26a4.87,4.87,0,0,0,1.91,2.62,17.6,17.6,0,0,0,2.53,1.72,6.81,6.81,0,0,0,5.31.55A9.57,9.57,0,0,0,573.8,244a11.19,11.19,0,0,0,2-3,23.11,23.11,0,0,0,1.81-8,132.4,132.4,0,0,0,.13-15.43c-.12-3.78-.43-7.59-.4-11.37,0-3.49.09-6.95.25-10.42a55.88,55.88,0,0,1,1-7c.78.39,1.56.81,2.32,1.27a62.15,62.15,0,0,1,8.43,8.35,97.71,97.71,0,0,1,6.37,9.11c1.85,3.1,3.63,6.22,5.3,9.41q1.43,3.24,2.75,6.52l1.34,3.33c.3.74.61,1.48.95,2.2a17.44,17.44,0,0,0,1.77,3.47,12,12,0,0,0,4.5,4,7.77,7.77,0,0,0,3.26,1.08,13.19,13.19,0,0,0,6.68-.48l2.8-1.37a12,12,0,0,0,4-4.54,15,15,0,0,0,1.92-6.4,72.55,72.55,0,0,0,.2-14c-.23-3.7-.61-7.39-1-11.09-.83-8.76-1.92-17.49-3-26.23.64,1,1.25,2,1.84,3,1.36,2.33,2.72,4.65,4.07,7,1.9,3.24,3.56,6.6,5.25,10q3.27,7,6.46,14c2.52,5.55,5.19,11.08,8.19,16.38.67,1.2,1.36,2.38,2.06,3.55.29.49.61.95.92,1.43a16.3,16.3,0,0,0,10,7.46,13.22,13.22,0,0,0,7.72-.6l3.21-1.57a19.83,19.83,0,0,0,3-2.69,15.57,15.57,0,0,0,3.79-9,68.79,68.79,0,0,0,.4-8.24c0-2.23-.25-4.46-.49-6.68-.74-6.72-1.86-13.4-3-20.07-.69-4.12-1.47-8.22-2.24-12.33,2.4,3.3,4.7,6.68,7,10.07,6.18,9.12,12,18.47,17.83,27.85,2.65,4.31,5.31,8.65,8.23,12.77,2.37,3.36,4.88,6.79,8.64,8.72a16.6,16.6,0,0,0,12.52,1,16.82,16.82,0,0,0,6.56-4.29,23.33,23.33,0,0,0,3.35-4.64l.33-.69c.52-1.39,1-2.79,1.51-4.19.22-.78.4-1.55.55-2.35A72.8,72.8,0,0,0,746,211a90.46,90.46,0,0,0,0-12.21c-.23-3.78-.65-7.54-1.07-11.3-.31-2.75-.57-5.5-.93-8.23-.69-5.14-1.3-10.29-2.08-15.42l-1.5-9.89,2.71,2.85c7.68,8.07,15.39,16.2,23.9,23.4,2.2,1.87,4.4,3.7,6.68,5.47,1.49,1.15,3,2.3,4.47,3.42a65.7,65.7,0,0,0,6.42,4.28,44.61,44.61,0,0,0,8,3.26,19.61,19.61,0,0,0,8.16.87,27.3,27.3,0,0,0,5.2-1.09,28.53,28.53,0,0,0,4.52-2.19,20.54,20.54,0,0,0,3.84-3.27,27.26,27.26,0,0,0,3-4.19,26.08,26.08,0,0,0,2.64-5.08,60.31,60.31,0,0,0,3.68-13,96.75,96.75,0,0,0,1.06-14.93,105.57,105.57,0,0,0-.83-11.65c-.26-2.32-.58-4.58-1-6.87-.65-3.39-1.18-6.87-2.07-10.22-.72-2.71-1.47-5.42-2.27-8.12-1.26-4.25-2.73-8.46-4.24-12.62s-3.43-8.48-5.22-12.69a0,0,0,0,0,0,0,0,0,0,0,0,0,0Z"/></g></g></svg>