<?xml version="1.0" encoding="UTF-8"?>
<svg width="52px" height="39px" viewBox="0 0 52 39" version="1.1" xmlns="http://www.w3.org/2000/svg" xmlns:xlink="http://www.w3.org/1999/xlink">
    <!-- Generator: Sketch 57.1 (83088) - https://sketch.com -->
    <title>logo-8</title>
    <desc>Created with Sketch.</desc>
    <g id="Honeybee-Assets" stroke="none" stroke-width="1" fill="none" fill-rule="evenodd">
        <g id="tylerandersen-resume" transform="translate(-40.000000, -45.000000)" fill="#161616" fill-rule="nonzero">
            <g id="logo-8" transform="translate(40.000000, 45.000000)">
                <path d="M9.4272194,7.0312951 C9.3936865,7.04704079 9.36270099,7.06761085 9.33527308,7.09233465 C9.29548924,7.12351231 9.26353101,7.16334794 9.24189009,7.20873564 C9.21505393,7.27505993 9.19461064,7.343738 9.18083199,7.41385691 C9.15353542,7.50967481 9.12839385,7.6054927 9.10325227,7.70202036 C9.029395,7.96392365 8.97962804,8.23188264 8.95455782,8.50263209 C8.93157124,8.83763983 8.91504964,9.17335734 8.89709137,9.50836509 C8.84321657,9.70780826 8.7900601,9.90725143 8.73331198,10.1066946 C8.59826581,10.5770303 8.46345909,11.0476027 8.32889181,11.5184116 C8.14499916,12.1571975 7.95751486,12.8002421 7.78583383,13.4447061 C7.53058699,14.4024119 7.27581905,15.359881 7.02152999,16.3171136 C6.97412017,16.498103 6.93173866,16.6805119 6.88792049,16.862211 L6.51295188,18.4236878 C6.36138411,19.0624737 6.20550635,19.6920328 6.0661502,20.3293992 C5.87459536,21.2166019 5.68040663,22.1040412 5.48358403,22.9917171 C5.41175096,23.3331127 5.35141119,23.6794767 5.2860431,24.0230015 C5.19840676,24.4810347 5.11100986,24.937885 5.0238524,25.3935523 C5.00661247,25.4822726 4.99440085,25.5724124 4.98075256,25.6618424 C4.94004716,25.928713 4.89934175,26.1955836 4.85863635,26.4624541 C4.80260656,26.8237231 4.7451401,27.1835725 4.70706858,27.5469707 L4.62517888,28.3440337 C4.58782569,28.6989147 4.58064238,29.0537958 4.57345907,29.4086769 C4.56205014,29.6732391 4.59878849,29.9376771 4.681927,30.1894153 C4.70676373,30.2569929 4.73703009,30.3224999 4.77243667,30.3853097 C4.80907538,30.4448958 4.85219146,30.5003495 4.90101786,30.5506843 C4.93669333,30.5896127 4.97588466,30.6252482 5.01810576,30.6571486 C5.08859785,30.7142301 5.16353661,30.7657293 5.24222493,30.811167 C5.4798799,30.9368547 5.74559776,31.0017598 6.01514873,31 C6.15952843,31.0005924 6.30370488,30.9891958 6.44614713,30.9658951 C6.59179933,30.9463445 6.73583786,30.9164572 6.87714553,30.8764651 C7.14865056,30.7913642 7.4113142,30.6808499 7.66156262,30.5464257 C7.91779357,30.4159023 8.16713722,30.2725817 8.40862652,30.1170196 C8.63130902,29.9750671 8.84537156,29.8132414 9.05512412,29.6521253 C9.30079321,29.4647481 9.5443073,29.2738221 9.77991976,29.0736692 C9.98536233,28.8990677 10.1836216,28.7187881 10.3811625,28.5349597 C10.5032787,28.4213977 10.6289866,28.3085455 10.7460745,28.1900153 L11.1842562,27.7457041 C11.4521936,27.474575 11.7265959,27.2077044 11.9880682,26.9301874 C12.3189792,26.5805112 12.6496508,26.2301253 12.9800829,25.8790296 C13.2401186,25.6036419 13.5023093,25.3289639 13.7637817,25.054286 C14.025254,24.779608 14.2975013,24.4807981 14.5625654,24.1919249 C14.8879692,23.8370439 15.2033163,23.4757749 15.5150718,23.1102474 C15.6927389,22.9015773 15.8648989,22.6886487 16.0315516,22.4714614 C16.2051481,22.2559395 16.358545,22.0252629 16.4898465,21.7822824 C16.5704879,21.6407608 16.5923782,21.473834 16.5509046,21.3166784 C16.4850175,21.0831675 16.2840745,20.9113021 16.0407415,20.8803387 C15.7974086,20.8493754 15.5589519,20.9653286 15.4353371,21.1747259 C15.3257113,21.3517841 15.2057883,21.5224133 15.0761718,21.6857547 C14.6451734,22.2351106 14.2048367,22.7823373 13.7479784,23.3132394 C13.4936893,23.6092102 13.2415553,23.9066005 12.9815196,24.197603 C12.7214839,24.4886055 12.4657581,24.7746397 12.2085958,25.0635129 C11.7553291,25.5717026 11.3049358,26.0820216 10.8394575,26.5795649 L10.0112222,27.4646383 C9.93938917,27.5356145 9.8675561,27.6065908 9.79572304,27.677567 C9.62092924,27.8516953 9.44398045,28.0229846 9.26487667,28.1914348 C8.92438794,28.510118 8.56665926,28.8110572 8.19815563,29.0963816 C7.98341066,29.2594466 7.76018403,29.4113063 7.52938978,29.5513391 C7.28680035,29.7010429 7.03515222,29.835914 6.77586091,29.9551938 C6.58677745,30.0272335 6.39090421,30.0804918 6.19113974,30.1141805 C6.07184636,30.1268263 5.9516511,30.128964 5.83197441,30.1205684 C5.77672965,30.1096388 5.7222614,30.0951765 5.66891334,30.0772729 C5.61934521,30.0535882 5.57135881,30.0267993 5.52524721,29.9970698 C5.50513395,29.9786159 5.48573902,29.9608719 5.46778076,29.9409985 C5.45650976,29.9228488 5.44619982,29.9041332 5.43689254,29.8849273 C5.40658356,29.799212 5.38257681,29.7114466 5.36505947,29.6223153 C5.35069286,29.4626188 5.34781954,29.3022126 5.34422788,29.1425161 C5.3399179,28.9444925 5.34422788,28.7464688 5.35141119,28.5491549 C5.35572117,28.4263661 5.36865112,28.3028675 5.37870775,28.1800786 L5.42827257,27.5767807 C5.43545588,27.4845117 5.43904753,27.3901133 5.44982249,27.2978442 C5.50872561,26.8786114 5.56691039,26.4596151 5.62437684,26.0408554 C5.64377177,25.898903 5.65813838,25.7569505 5.68327996,25.6149981 C5.70842153,25.4730457 5.73140811,25.3488373 5.75511302,25.2161118 C5.85089045,24.678112 5.94834397,24.1405855 6.04747361,23.6035321 C6.08698179,23.3870546 6.12648998,23.1705772 6.17174481,22.9555192 C6.36952519,22.0139014 6.56706612,21.0722836 6.76436761,20.1306658 C6.80603079,19.9333519 6.85344062,19.736038 6.89869545,19.5387241 C7.02224832,19.0068757 7.14532231,18.4750272 7.26791741,17.9431788 C7.41158355,17.330654 7.54878471,16.7174195 7.70538079,16.1084435 L8.45172636,13.2410044 C8.49913618,13.057176 8.55085599,12.8747671 8.60185747,12.6916484 C8.74217139,12.1820392 8.88272476,11.6721934 9.02351757,11.162111 L9.31084984,10.114502 C9.35394968,9.95693478 9.39130287,9.79723829 9.43224772,9.63896133 C9.50408079,9.37422004 9.56873055,9.10947875 9.62978865,8.84331793 C9.69084676,8.57715712 9.74041158,8.30886701 9.77345479,8.03844763 C9.79834215,7.77494095 9.80745687,7.51021192 9.80075135,7.24564328 C9.80057611,7.17945116 9.77344252,7.11611498 9.7254682,7.06991465 C9.67749387,7.02371433 9.61271759,6.99853929 9.54574397,7 C9.50278672,7 9.46052735,7.01080085 9.42290942,7.0312951 L9.4272194,7.0312951 Z" id="Path"></path>
                <path d="M13.9975188,11.0498264 C13.6413212,11.2110457 13.2953844,11.3957905 12.9487148,11.5722322 C12.5578258,11.7738139 12.1691355,11.975857 11.782644,12.1783613 C11.6360607,12.2537815 11.4990052,12.3368128 11.3582852,12.4170765 L11.0182117,12.6101245 C10.972038,12.6364178 10.9251313,12.6613272 10.8811563,12.6910801 L10.2999532,13.0813276 C10.1409102,13.1885765 9.98773061,13.3055123 9.83235223,13.4176047 C9.19178288,13.8788902 8.55658826,14.3477868 7.92676836,14.8242947 C7.63946495,15.0401763 7.34703112,15.2512144 7.06705687,15.4760911 L5.90978113,16.4060426 C5.62247772,16.6364547 5.34250347,16.8765537 5.06033048,17.1125013 C4.80014499,17.3290748 4.5399595,17.5456483 4.28343859,17.7656815 C3.99027184,18.0182353 3.69197468,18.2666375 3.40393834,18.5268025 C3.00596448,18.8810697 2.60579187,19.2270338 2.2246751,19.5965235 C1.9381046,19.8732948 1.66032911,20.1625208 1.40454112,20.4669692 C1.13043021,20.7928673 0.873909302,21.1319122 0.622518815,21.4737247 C0.571448004,21.5550774 0.558027544,21.6525824 0.585140055,21.7435767 C0.640703933,21.9290432 0.843862247,22.0378924 1.04101435,21.9878273 C1.13272698,21.9612873 1.21095323,21.9039293 1.26088941,21.8266081 C1.46537322,21.5498368 1.67425453,21.2730655 1.89266375,21.0032135 C2.24845179,20.5874203 2.62999115,20.1918686 3.03528116,19.8186324 C3.18186453,19.6802468 3.33431124,19.5508562 3.4845592,19.418006 C3.7623347,19.1723715 4.04011019,18.9274289 4.3230161,18.6866379 C4.60592201,18.4458469 4.88369751,18.2022882 5.16880217,17.9691084 L6.32021458,17.0177071 C6.58919507,16.7949062 6.86697057,16.5811004 7.14108148,16.363143 C7.41519239,16.1451856 7.66658287,15.9424507 7.9370292,15.7404076 C8.60935828,15.2394516 9.2836418,14.7417246 9.95987977,14.2472266 L9.88072474,14.3053486 C10.1826865,14.089467 10.4817166,13.867358 10.7902746,13.6597796 L11.1274163,13.433519 C11.1882484,13.3926953 11.2476147,13.347028 11.3113785,13.3103558 L11.9270286,12.9574724 C12.25904,12.7671922 12.6013122,12.5935182 12.9406527,12.4143088 C13.2799932,12.2350994 13.6002779,12.0683447 13.9322892,11.8988223 C14.0788726,11.8234021 14.2305864,11.7465981 14.3830331,11.6760214 C14.5706598,11.5881465 14.6212311,11.3411282 14.5208215,11.179217 C14.4702066,11.0976054 14.3879305,11.0377984 14.2914185,11.0124623 C14.2601981,11.0040508 14.2278728,10.9998576 14.1954064,11.0000037 C14.1255838,11.001552 14.0570927,11.0183685 13.9953201,11.0491345 L13.9975188,11.0498264 Z M1.96266375,20.9504095 L1.92266375,21.0024095 L1.96266375,20.9504095 Z" id="Shape"></path>
                <path d="M31.2168015,0.0809715971 C31.163158,0.109135229 31.1088179,0.135186589 31.0551745,0.164054312 C30.9784699,0.211697045 30.9082151,0.269209764 30.846174,0.335148378 C30.7403493,0.447064829 30.6469085,0.570304234 30.5675066,0.702683778 C30.4141673,0.950559347 30.2761941,1.20781207 30.1543823,1.47295912 C29.8904263,2.04217639 29.6637533,2.62830307 29.4758274,3.2275534 C29.289817,3.80561195 29.1379433,4.39493596 29.006273,4.98778041 C28.9219761,5.36446899 28.8348926,5.74538212 28.7784624,6.12770343 L28.6927722,6.71702743 C28.441275,7.25354462 28.1883844,7.78935772 27.9222571,8.31812992 C27.5042561,9.14426313 27.0834685,9.96711058 26.6598941,10.7866723 C26.4892104,11.1168909 26.32201,11.4492217 26.1527196,11.7801444 C25.9952726,12.0899444 25.8315555,12.397632 25.6824685,12.7123606 C25.4502457,13.2047548 25.218023,13.6976184 24.9858002,14.1909513 C24.8562199,14.4648426 24.7370896,14.7429585 24.6151727,15.0203703 L23.9770245,16.475726 C23.8704343,16.7193414 23.772204,16.9685895 23.6732771,17.212205 C23.6614338,16.6109114 23.6551637,16.0089138 23.6321737,15.4083243 C23.6177759,15.0041762 23.602217,14.6000281 23.5854969,14.19588 C23.5854969,14.0888582 23.5778336,13.9846527 23.5736536,13.8762227 C23.5632035,13.7973646 23.5548435,13.7185064 23.5485735,13.6389441 C23.5297635,13.3981451 23.5102567,13.1566419 23.4984134,12.9151388 C23.4984134,12.8919038 23.4984134,12.8679647 23.4984134,12.8447297 C23.48239,12.7039115 23.4642766,12.5687261 23.4461633,12.4307243 C23.4346513,12.2358354 23.4036067,12.0426296 23.3535064,11.8540739 C23.3202457,11.7491358 23.2669957,11.6517864 23.196756,11.567509 C23.1299659,11.4979215 23.0545671,11.4373385 22.9724288,11.3872617 C22.8732779,11.3273078 22.753995,11.3115058 22.6429047,11.3436081 C22.5364005,11.3757269 22.4453631,11.4464246 22.3872274,11.5421617 C22.3516974,11.5942644 22.3175606,11.6456631 22.2862105,11.7005821 C22.2500127,11.7740461 22.2217507,11.8512373 22.2019137,11.9308198 C22.184497,11.9927798 22.1712603,12.056148 22.1566302,12.1188121 C22.1336402,12.2180889 22.1078634,12.3166616 22.0869634,12.4159384 C22.0472533,12.6032266 22.0068465,12.7912188 21.9706198,12.979211 C21.8828396,13.4331149 21.7966849,13.8872535 21.7121558,14.3416268 C21.6376123,14.738734 21.5609788,15.1351371 21.4857387,15.5322443 C21.4529952,15.7033384 21.4077118,15.8730243 21.3686984,16.0427101 C21.3092493,16.2994686 21.2502648,16.556227 21.1917446,16.8129855 C21.0983911,17.2192459 20.9785641,17.6205776 20.8705805,18.0240217 C20.6659681,18.8248671 20.4111699,19.611751 20.1077287,20.3799095 C19.9820956,20.6814423 19.8263995,20.9692579 19.643051,21.2389003 C19.5980541,21.292946 19.5491532,21.3435446 19.4967506,21.3902798 C19.4619172,21.4135148 19.4270838,21.4353416 19.3894637,21.4550561 L19.3706537,21.4606889 L19.3706537,21.4606889 L19.3400003,21.4437907 L19.3184036,21.4191475 C19.191449,21.238089 19.0840157,21.043829 18.9979361,20.8396808 C18.7419686,20.1866611 18.5669362,19.5041402 18.4768283,18.8076747 C18.4074188,18.2623292 18.3762233,17.7127085 18.3834747,17.1629186 C18.391138,16.7946791 18.3974081,16.4264396 18.4043747,16.057496 C18.4085548,15.8364115 18.4322415,15.615327 18.4482649,15.3942425 C18.4705582,15.0942998 18.4926194,14.7941224 18.5144483,14.4937104 L18.5144483,14.4937104 C18.6084986,13.7896196 18.7025488,13.0855288 18.8119257,12.381438 C18.8372779,12.2753111 18.8228852,12.1634571 18.7715189,12.0674135 C18.6591947,11.8734007 18.4126788,11.8078866 18.2204543,11.9209626 C18.1285198,11.9733736 18.0616252,12.0613139 18.0351405,12.164578 C17.9424837,12.7644633 17.8602768,13.3615324 17.7787666,13.9663464 C17.7550799,14.1437772 17.7209431,14.3233204 17.7090998,14.5021595 L17.6589397,15.1689334 C17.6398974,15.4172428 17.6213196,15.6662563 17.6032062,15.9159738 C17.5927562,16.056792 17.5948462,16.1926815 17.5913628,16.3306833 C17.5857895,16.6160747 17.5797517,16.9012315 17.5732495,17.1861536 C17.5655861,17.5529849 17.5830028,17.9205203 17.6087795,18.2859434 C17.6493059,18.8975687 17.7401872,19.5047178 17.8804802,20.1010895 C17.950147,20.3827259 18.0295672,20.6580254 18.1236174,20.9298044 C18.2153604,21.2048267 18.3285768,21.4720483 18.4621982,21.7289475 C18.5270791,21.8522029 18.6061162,21.9672952 18.6976721,22.0718397 C18.8024662,22.1841877 18.9314224,22.2706729 19.0745697,22.3246083 C19.1943793,22.3784513 19.3256659,22.4009691 19.4563439,22.3900887 C19.5359796,22.3827655 19.6145204,22.3662285 19.6904244,22.3408024 C19.7857438,22.306938 19.8772778,22.2630433 19.9635184,22.2098415 C20.201779,22.0690233 20.3752494,21.8465306 20.5278197,21.6191093 C20.6806637,21.387322 20.8137417,21.1428269 20.9256173,20.8882631 C21.2927615,20.0729259 21.5616755,19.2104147 21.7943627,18.3471993 C21.8709962,18.065563 21.9473975,17.7839267 22.0235666,17.5022904 C22.0590967,17.3706254 22.0988068,17.2403686 22.1287635,17.1072954 C22.2286193,16.6735755 22.3280106,16.2398556 22.4269375,15.8061356 C22.4729176,15.6068779 22.501481,15.4026916 22.5384045,15.2013216 C22.5718445,15.0189621 22.6080713,14.8373067 22.6387247,14.6542431 L22.7585516,13.9409991 C22.7696983,14.172645 22.7780584,14.4042908 22.7878117,14.6366408 C22.8017451,14.9781248 22.8177684,15.320313 22.8247351,15.6632052 C22.8435452,16.5172673 22.8602652,17.3720336 22.894402,18.2260957 L22.925752,19.066076 C22.8358818,19.2927933 22.7522816,19.5216228 22.6658948,19.7497482 C22.3725974,20.5242481 22.07512,21.298748 21.7985427,22.081697 C21.6090489,22.6153978 21.4200196,23.1486292 21.2314547,23.6813913 C21.1562145,23.8926185 21.0879411,24.1038458 21.0224542,24.3200016 C20.8413205,24.9001725 20.6741201,25.4838637 20.5257297,26.0731877 C20.2230126,27.2934157 20.0133967,28.535323 19.8987283,29.7879708 C19.7837916,30.9977962 19.7767967,32.2156197 19.8778282,33.4267121 C19.9290228,34.062439 20.0195343,34.6943047 20.1488322,35.3186041 C20.2707458,35.9123444 20.4591298,36.4901316 20.7103468,37.0408102 C20.8259369,37.2894088 20.9635071,37.5269483 21.1213811,37.7505337 C21.2995659,38.0114942 21.5103042,38.2481426 21.7483826,38.4546245 C21.8687539,38.5572602 21.9968651,38.6502477 22.1315502,38.7327404 C22.2693379,38.8122874 22.414466,38.8780786 22.5648779,38.9291817 C22.71097,38.9796387 22.8647663,39.0034784 23.0191056,38.9995908 C23.2223003,38.9940222 23.4209642,38.9376585 23.5973403,38.8355377 C23.6763556,38.7840011 23.7494862,38.7237871 23.8153975,38.6559945 C23.8795586,38.591539 23.9372026,38.5207801 23.9874745,38.4447673 C24.0545093,38.3450725 24.1130092,38.2397814 24.1623383,38.1300387 C24.2895848,37.8475676 24.3987226,37.5571174 24.4890757,37.2604865 C24.6629499,36.6627545 24.7809714,36.0498586 24.8415899,35.4298504 C24.940243,34.4932658 24.9595878,33.549878 24.8994133,32.6099668 L24.8199931,31.1313761 C24.8130265,30.9961906 24.7970031,30.8610052 24.7851597,30.7265239 C24.7591508,30.42752 24.7329096,30.127812 24.7064362,29.8273999 C24.6325894,28.9761541 24.5315725,28.1284288 24.4368256,27.2785912 C24.347652,26.4731113 24.2751985,25.664111 24.1950817,24.8565188 C24.1114815,24.0116099 24.036938,23.1709254 23.9575178,22.3274247 C23.925471,21.9859406 23.9073577,21.6430484 23.883671,21.3008603 C23.8516242,20.8558749 23.8198097,20.4099507 23.7882274,19.9630877 C23.8811165,19.7208805 23.9740056,19.479612 24.0668947,19.2392824 C24.3585665,18.5145383 24.6504705,17.7900288 24.9426068,17.0657541 C25.1084138,16.6876573 25.2721309,16.3081524 25.4372413,15.9293515 C25.5807549,15.5991329 25.7159086,15.2632816 25.8698723,14.9379917 C26.2279598,14.1825022 26.5776873,13.4227883 26.9580682,12.6785643 C27.3906992,11.8336553 27.8309936,10.993675 28.2664112,10.1501742 C28.2250756,10.590935 28.1837399,11.0316959 28.1424043,11.4724567 C28.1305609,11.5935603 28.1284709,11.7160721 28.1222009,11.8378799 C28.1059453,12.1195162 28.0901542,12.4030301 28.0748275,12.6884215 C28.0516052,13.1061821 28.0283829,13.5237079 28.0051606,13.9409991 C27.9968006,14.0909704 27.9968006,14.2416459 27.9926206,14.3916172 C27.9842606,14.6915599 27.9761328,14.9912679 27.9682372,15.2907412 C27.9591805,15.6209597 27.9494272,15.9504742 27.9445505,16.2806928 C27.9310816,17.2105621 27.9194704,18.1404313 27.9097171,19.0703006 C27.9006604,19.87226 27.899267,20.6735154 27.9424605,21.4747707 C27.9536072,21.6859979 27.9682372,21.8915924 27.9835639,22.1000033 C27.9898339,22.1816779 28.000284,22.2626483 28.0100373,22.3436187 C28.0163073,22.3978337 28.0225773,22.4513446 28.029544,22.5048555 C28.0393962,22.6727192 28.0714973,22.838487 28.1249876,22.9977191 C28.159481,23.0937611 28.2031109,23.1861951 28.2552646,23.2737227 C28.3315631,23.3938947 28.4319549,23.4965554 28.5499552,23.5750736 C28.6828699,23.6677691 28.8320736,23.7339652 28.9895529,23.7701067 C29.1555061,23.8109554 29.3276623,23.8193204 29.4967275,23.7947499 C29.6088911,23.779964 29.7133913,23.7665863 29.8220716,23.741239 C29.9070059,23.7199811 29.9903489,23.6926884 30.0714788,23.6595645 C30.6657369,23.4286227 31.1777881,23.0223623 31.6166891,22.5611828 C32.026614,22.1205911 32.3946785,21.642054 32.7160317,21.1318785 C33.0188482,20.6433303 33.2924323,20.1368859 33.5353136,19.6152669 C33.5694504,19.5448578 33.6049805,19.4744487 33.6335439,19.399111 C33.6467805,19.4089683 33.6607139,19.4181215 33.6746473,19.4265705 C33.8458508,19.5363045 34.0426562,19.5984767 34.2452186,19.6068178 C34.5971251,19.6184893 34.9422773,19.5073512 35.2226443,19.2920892 C35.4636196,19.1119888 35.682727,18.9037815 35.8754225,18.6717852 C36.0789362,18.4183092 36.2693796,18.154394 36.4459938,17.8810912 C36.6034408,17.6459249 36.7462578,17.4023095 36.8848948,17.1558777 C36.9914851,16.9664773 37.1015587,16.7763728 37.1963056,16.5806355 C37.2910524,16.3848983 37.388586,16.1835283 37.4840296,15.9849747 C37.6498366,15.6427866 37.8226104,15.3027107 37.9716974,14.9541858 C38.1737312,14.4894858 38.3855183,14.0276023 38.5764055,13.5572696 C38.8662195,12.8412092 39.1539435,12.1237407 39.4340041,11.4034558 C39.4723209,11.304179 39.5113343,11.2056063 39.5496511,11.1063295 L39.5747311,11.2394027 C39.6492746,11.6273567 39.7077948,12.0188312 39.7711916,12.4088975 C39.9021652,13.2059283 40.0421956,14.0029591 40.234476,14.7880203 C40.352213,15.2675062 40.4741299,15.7462879 40.5960469,16.2243656 C40.652477,16.4461542 40.7089071,16.6672387 40.7611573,16.8897314 C40.7918107,17.0206923 40.8224641,17.1509491 40.8524208,17.28191 C40.8656575,17.3375331 40.8775009,17.3945645 40.8900409,17.4508917 C40.9025809,17.507219 40.9060643,17.5494645 40.921391,17.5987508 C40.9746825,17.7547904 41.0612534,17.8970871 41.1749782,18.0155726 C41.3201413,18.1661678 41.5201221,18.2499142 41.7281329,18.2472184 C42.0063264,18.2470912 42.2635669,18.097803 42.4039011,17.8550399 C42.4935135,17.6944513 42.5661356,17.5247676 42.620565,17.3487986 C42.6616684,17.212205 42.6902318,17.0671623 42.7208852,16.9319768 C42.7389986,16.8566391 42.7557186,16.7805973 42.7731353,16.7045555 C42.8337455,16.4398173 42.8950523,16.173671 42.9556624,15.9082288 C43.18745,14.9229304 43.4958718,13.9576719 43.8780512,13.0214565 C44.0220294,12.7003911 44.1671686,12.3793257 44.3134689,12.0582603 C44.4284192,11.8033794 44.5412795,11.5477944 44.6618031,11.2971381 L45.2602412,10.0896224 C45.6208902,9.34684866 46.0463831,8.63807118 46.5316608,7.97171724 C46.8809439,7.52451865 47.2681313,7.10894052 47.6888269,6.72970106 C47.7891471,6.63957744 47.8866807,6.54382109 47.9904842,6.4586261 L48.2600949,6.23824568 C48.3708651,6.15586706 48.4823321,6.07348843 48.597979,5.99815072 C48.7716816,5.8850268 48.9456165,5.77331105 49.1197836,5.6630035 C49.4764777,5.43980671 49.8310819,5.21449765 50.1891694,4.99482132 C50.5631622,4.75194781 50.6821039,4.25480381 50.4592234,3.86606921 C50.2363429,3.4773346 49.7504225,3.33441668 49.3559541,3.5415779 C48.9681421,3.75796848 48.5824201,3.9778795 48.1987881,4.20131099 C48.0169576,4.30692461 47.8372172,4.41746686 47.6574768,4.52730503 C47.458948,4.65335306 47.2686011,4.79210759 47.0876021,4.9427186 C46.9287617,5.07086313 46.7699214,5.19689538 46.6187444,5.33419309 L46.3226603,5.6010435 C46.17218,5.73693303 46.0321496,5.88267983 45.8935126,6.03405935 C45.4710575,6.49603435 45.0870509,6.99246065 44.7454033,7.51828277 C44.4285664,8.00980039 44.1414779,8.5202621 43.8857146,9.0468639 C43.6627807,9.48973702 43.4523869,9.93965104 43.2371164,10.3846364 C43.0810627,10.7085182 42.9403357,11.0387368 42.7954287,11.3703636 C42.6872129,11.6158566 42.5789971,11.8615842 42.4707813,12.1075466 C42.3098509,12.4743779 42.1691239,12.8496583 42.0346669,13.227051 C41.8793099,13.6649955 41.7420662,14.1099809 41.6201493,14.5584867 C41.5818325,14.4127399 41.5428191,14.2676972 41.5045023,14.1219504 C41.4487689,13.9142436 41.4125421,13.6994959 41.3651687,13.4882687 C41.2732085,13.0658142 41.2021483,12.6349106 41.1276048,12.2061193 C41.0530613,11.777328 40.9882711,11.3288222 40.9116376,10.8922859 C40.8605486,10.6106496 40.8101563,10.3290133 40.7604606,10.0473769 C40.7374705,9.91852832 40.7123905,9.79038379 40.6907938,9.66223926 C40.6667072,9.51687951 40.6327219,9.37337334 40.5890802,9.23274387 C40.5505383,9.11685609 40.5022936,9.00449905 40.4448698,8.89689256 C40.4234699,8.86320894 40.4002108,8.83076945 40.375203,8.79972803 L40.2950862,8.69411441 L40.1912826,8.55822488 C40.1041782,8.47020151 39.9958915,8.40662412 39.8770852,8.37375309 C39.6919907,8.32427249 39.4951087,8.34952372 39.3281106,8.44416217 C39.2118351,8.49731795 39.1080623,8.57483678 39.0236665,8.6715835 C38.9606474,8.7447698 38.9066121,8.82538608 38.8627361,8.91167847 C38.8522861,8.93350528 38.8411394,8.95462801 38.8299927,8.97645482 C38.7888893,9.05883345 38.7463925,9.13980389 38.7080758,9.2228866 C38.6293523,9.39257249 38.5520221,9.56225837 38.4767819,9.73335244 C38.3019181,10.1297556 38.1284477,10.528975 37.9716974,10.9303068 C37.6893145,11.6390915 37.4050738,12.3469375 37.1189754,13.0538447 C36.8939515,13.5790964 36.6772877,14.1099809 36.4327571,14.6253753 L35.8977158,15.7519206 C35.7667422,16.0279242 35.6190485,16.2961828 35.4678715,16.5616251 C35.2659388,16.9247775 35.0426027,17.2753421 34.7990699,17.6114244 C34.6843565,17.7550267 34.5590635,17.8896571 34.4242624,18.0141644 C34.3963956,17.9205203 34.3734056,17.8254681 34.3545955,17.7325281 C34.4444658,17.507219 34.5329426,17.2812059 34.6228128,17.0558968 C34.7621465,16.7003309 34.9014802,16.3426528 35.0352405,15.9842706 C35.1690008,15.6258884 35.3062444,15.2618734 35.4344314,14.8978585 C35.5737651,14.5084963 35.7130987,14.1233586 35.842679,13.7283637 C35.9722593,13.3333687 36.111593,12.9257001 36.2307233,12.5201438 C36.3498536,12.1145875 36.4780405,11.7041026 36.5790574,11.2915054 C36.6408287,11.0460124 36.7025999,10.8007541 36.7643712,10.5557305 C36.8138347,10.3564728 36.8493647,10.1522865 36.8918615,9.95091649 C36.9838217,9.51367611 37.0486119,9.06798663 37.100862,8.62440942 C37.1336054,8.34699764 37.1747088,8.05409587 37.0736919,7.78583727 C37.0449076,7.6970971 37.0051128,7.61240098 36.9552583,7.53377276 C36.8830574,7.41689263 36.7847519,7.31874547 36.668231,7.24720781 C36.5858804,7.2034973 36.4995605,7.16789409 36.4104637,7.14089009 C36.2981276,7.11201813 36.1817785,7.10249678 36.0663096,7.11272646 C35.9687198,7.11869893 35.8721559,7.13618527 35.7785856,7.16482918 C35.6853345,7.19788292 35.595121,7.2391118 35.5089749,7.28804507 C35.4250572,7.33997168 35.345383,7.39859812 35.2707144,7.46336368 C35.2240376,7.50138459 35.1794508,7.54081367 35.1355607,7.58165094 C34.9027334,7.8058253 34.6952489,8.05542854 34.5169193,8.32587492 C34.1644051,8.83774893 33.9073345,9.40735839 33.6809173,9.98541694 C33.4717269,10.5372409 33.3040502,11.1042366 33.1793161,11.6815717 C32.970284,12.6294096 32.8414003,13.593499 32.7940585,14.5634154 L32.7522584,15.3174966 C32.7418084,15.5174584 32.7522584,15.7209406 32.7564385,15.9209024 C32.7564385,16.0955169 32.7564385,16.2680192 32.7717652,16.4426337 C32.7919685,16.7066678 32.8079919,16.97211 32.841432,17.2347359 C32.8059019,17.3255636 32.7717652,17.4163913 32.7348417,17.5065149 C32.5690347,17.8942343 32.4034599,18.2819536 32.2381172,18.6696729 C32.0987836,18.9928506 31.9434265,19.3075792 31.7838895,19.6194914 C31.5289351,20.1188383 31.2334651,20.5959678 30.9005141,21.0459794 C30.6422582,21.3836811 30.3491674,21.69264 30.0261954,21.9676343 C29.8804519,22.0776226 29.7254276,22.1744554 29.562911,22.2570156 C29.5043908,22.2788424 29.445174,22.2985569 29.3845639,22.314751 C29.3601805,22.2056169 29.3420671,22.0943706 29.3204704,21.9866447 C29.293997,21.857092 29.281457,21.7233147 29.2647369,21.5916498 C29.2703103,21.632487 29.2758836,21.6726202 29.2807603,21.7134575 C29.2584669,21.5022302 29.2389602,21.291003 29.2173635,21.0748471 C29.1950701,20.8502421 29.1936768,20.6221167 29.1811367,20.3968077 C29.15954,19.9813941 29.1623267,19.5638682 29.1567533,19.1477506 C29.14491,18.3112907 29.1567533,17.4734227 29.1630234,16.6369628 C29.16999,15.7681147 29.1950701,14.9006749 29.2159701,14.0318268 C29.2236335,13.71569 29.2466235,13.3981451 29.2633436,13.0848247 L29.3469438,11.5358249 C29.3518205,11.4365481 29.3622705,11.3386795 29.3713272,11.2401068 C29.3991939,10.9354701 29.4275251,10.6303641 29.4563207,10.3247887 C29.5027653,9.83427212 29.5480487,9.34352083 29.592171,8.85253484 C29.6878468,8.20054675 29.7825937,7.54879337 29.8764117,6.89727468 C30.0463988,6.54194352 30.2152247,6.18614296 30.3828895,5.82987302 C30.56681,5.43980671 30.7388871,5.04551586 30.9123575,4.65122501 C31.0858279,4.25693416 31.2370049,3.85630649 31.3951486,3.4577911 C31.558169,3.04730616 31.6954126,2.62625986 31.8270829,2.20521355 C31.8842097,2.02285404 31.9329765,1.83838225 31.9838333,1.65461455 C32.01379,1.54688865 32.0374768,1.43705049 32.0639502,1.3286205 C32.0946036,1.20188416 32.1155036,1.07162736 32.133617,0.942778742 C32.1630994,0.818112789 32.1638145,0.688263704 32.135707,0.563273798 C32.1062447,0.470646087 32.0696747,0.380483423 32.0263301,0.29360702 C31.9495196,0.158284813 31.8219075,0.0600327103 31.6724226,0.0211238788 C31.6237244,0.00700658722 31.5733007,0 31.5226389,0 C31.4157701,0.00200951842 31.3109192,0.0297688022 31.2168015,0.0809715971 Z M36.2723966,8.54063217 L36.2583966,8.54063217 L36.2723966,8.54063217 Z M34.6214195,11.7062149 C34.7424109,11.2159603 34.8957896,10.7344559 35.0805239,10.264941 C35.1773608,10.040336 35.2832544,9.81995561 35.3989013,9.60661609 C35.3577979,9.77841425 35.3159978,9.94950831 35.2748944,10.1213065 C35.2226443,10.3402787 35.1564608,10.5557305 35.0965473,10.7725905 C34.8708268,11.5991931 34.5956428,12.4110098 34.3253355,13.2228265 C34.3253355,13.2305715 34.3197621,13.2390206 34.3176721,13.2467656 C34.3919847,12.728197 34.4933754,12.2139623 34.6214195,11.7062149 L34.6214195,11.7062149 Z M34.5104842,18.2283707 L34.5334842,18.2463707 L34.5104842,18.2283707 Z M19.3019018,21.4683721 L19.3729018,21.4783721 C19.3490507,21.4765138 19.3253383,21.4731741 19.3019018,21.4683721 Z M22.8505119,37.7491255 C22.753589,37.6996235 22.660443,37.6429052 22.5718445,37.5794397 C22.4196361,37.4481373 22.279712,37.3029513 22.1538436,37.1457197 C21.9654691,36.8791774 21.804847,36.5936784 21.6745358,36.2937699 C21.3889018,35.5755972 21.2321514,34.8081383 21.1262578,34.0441997 C20.9196483,32.3144822 20.9329935,30.5651487 21.1659679,28.8388564 C21.33425,27.6507483 21.5856811,26.4761956 21.9183697,25.3240351 C22.0298366,24.9332647 22.1406069,24.5382698 22.2750638,24.1545403 C22.3424084,23.9625582 22.409753,23.7701067 22.4770976,23.5771858 C22.6798281,22.9998314 22.8790753,22.4217728 23.0873791,21.8465306 C23.0957391,21.9803079 23.1045636,22.1145545 23.1138525,22.2492706 C23.1361459,22.585826 23.1716759,22.9230855 23.2002393,23.2596409 C23.3486297,24.9698774 23.4977167,26.6808181 23.6628271,28.3903506 C23.6955705,28.7297223 23.7324939,29.0690941 23.7568773,29.40917 L23.8655576,31.0011193 C23.8913343,31.3876651 23.8934243,31.7756192 23.904571,32.1642773 C23.9377854,32.9167178 23.9326697,33.6703873 23.8892443,34.4222965 C23.8711309,34.674361 23.8446575,34.9257214 23.8133075,35.1763777 C23.7264412,35.8756338 23.554697,36.5614166 23.3019529,37.2182411 C23.2282675,37.4039331 23.1377813,37.5823554 23.0316456,37.7512378 L22.9954189,37.7885546 L22.9752155,37.7885546 C22.9341194,37.7788161 22.8936396,37.7665898 22.8539952,37.7519419 L22.8505119,37.7491255 Z M21.1418461,34.0952972 C21.1418461,34.1232972 21.1498461,34.1502972 21.1528461,34.1782972 C21.1528461,34.1502972 21.1458461,34.1232972 21.1418461,34.0952972 Z M23.0672055,37.764411 L23.0292055,37.794411 L23.0672055,37.764411 Z" id="Shape"></path>
                <path d="M9.18731894,6.3912797 C9.13394598,6.56562247 9.07986138,6.73924482 9.03360481,6.91574887 C8.99289463,7.09637098 8.96600977,7.2799034 8.95318955,7.46471248 C8.92828217,7.60879741 8.88771872,7.7456781 8.85356003,7.88760176 C8.8151315,8.04681562 8.78951248,8.20963159 8.76033526,8.37100672 C8.73115804,8.53238185 8.69913426,8.71032675 8.66853377,8.88034697 C8.63793327,9.0503672 8.61444917,9.22398954 8.56961588,9.39184849 C8.47994931,9.72540512 8.39028273,10.0596822 8.30630928,10.3946796 C8.22233582,10.7296771 8.11985974,11.0725993 8.03588628,11.4140806 C7.95618266,11.7389921 7.86651609,12.0624628 7.79037066,12.3880947 C7.70853213,12.7360599 7.66868032,13.0941109 7.59893965,13.4449577 C7.52919898,13.7958046 7.42885781,14.1394471 7.3420378,14.485251 C7.25521778,14.8310548 7.14776022,15.1912672 7.03887939,15.5406731 C6.98764134,15.7078117 6.93782658,15.8749502 6.89655149,16.0449704 C6.8552764,16.2149906 6.83677378,16.4095053 6.80973148,16.5917727 C6.75905641,16.9449313 6.68969036,17.2950812 6.60193275,17.6407111 C6.51013126,18.0009234 6.39840387,18.3611358 6.31158385,18.7213481 C6.22761039,19.0714745 6.1628512,19.425203 6.08457086,19.7760498 C5.92895903,20.4849477 5.76338425,21.1914442 5.58784651,21.8955392 C5.50031486,22.2507086 5.44978846,22.6159639 5.37435467,22.9725741 C5.29892089,23.3291843 5.20996596,23.686515 5.12670414,24.0438456 C4.99982474,24.6346886 4.90479899,25.2320834 4.84204835,25.8333805 C4.81002457,26.0956151 4.78796375,26.3592906 4.76305637,26.6222456 C4.74028391,26.8535019 4.71608816,27.0840378 4.68762259,27.3145737 C4.62878606,27.6951488 4.5912465,28.0787865 4.57518355,28.463651 C4.57091371,28.6423164 4.56949043,28.8202613 4.57518355,28.9989266 C4.5784211,29.1559712 4.5967733,29.3123223 4.62997979,29.4657618 C4.64919405,29.5550944 4.67837127,29.6415454 4.70114374,29.7294372 C4.72320456,29.8014797 4.74170719,29.8814468 4.76163309,29.9570914 C4.80203338,30.1006603 4.859378,30.238777 4.93242656,30.3684539 C5.0856823,30.6512443 5.34335063,30.8610634 5.64904751,30.9519979 C5.81545005,30.9913459 5.98652048,31.0066266 6.15715809,30.9973846 C6.24627347,30.9960597 6.33519654,30.9885981 6.42331125,30.9750515 C6.58058357,30.9541592 6.73927917,30.9433528 6.89583985,30.9145358 C6.95096578,30.9033805 7.00467667,30.8859809 7.05595873,30.8626652 C7.14543716,30.8273359 7.2330821,30.7874208 7.3185537,30.7430747 C7.38971764,30.7034514 7.46088159,30.6631076 7.53204554,30.6220434 C7.55339472,30.6097962 7.57474391,30.5997102 7.59609309,30.5889038 C7.75267553,30.5260072 7.9054675,30.4538401 8.05367727,30.3727764 C8.19724228,30.2901273 8.33600296,30.1992042 8.46927472,30.1004559 C8.65857081,29.961414 8.8314992,29.8036409 9.00656251,29.6473088 C9.12754122,29.5399655 9.24709665,29.4311814 9.36238225,29.3195156 C9.61003278,29.0752916 9.84202725,28.8152183 10.0740217,28.5587471 C10.1950004,28.4254685 10.3181141,28.2936308 10.4476324,28.1682769 C10.5771508,28.042923 10.7038226,27.9312572 10.8226664,27.8023012 C10.9914291,27.6126092 11.1473931,27.4116371 11.2895019,27.2007466 C11.3791685,27.0739518 11.4716816,26.9485979 11.5649064,26.8239645 C11.7328533,26.6078371 11.9050701,26.402516 12.0794217,26.1950337 C12.2886437,25.9443259 12.4850562,25.6842526 12.6814687,25.4234589 C12.8907184,25.1461488 13.1142454,24.8801841 13.3511215,24.6266692 C13.6037535,24.3644346 13.9005071,24.1483072 14.1581206,23.891836 C14.4299669,23.6216768 14.6954084,23.3464745 14.9615616,23.0705519 C15.1949793,22.8284892 15.4447648,22.6037167 15.6603915,22.3443638 C15.7415184,22.2456656 15.8205104,22.1448062 15.8980791,22.0432263 C16.0254626,21.8861737 16.154981,21.7312824 16.2738248,21.5670256 C16.3058485,21.5245205 16.3371607,21.4820155 16.3670495,21.43879 C16.4140903,21.36527 16.4514132,21.2858275 16.4780653,21.2024907 C16.5411448,21.0730743 16.5730895,20.9303876 16.5713621,20.7860852 C16.5675995,20.3888682 16.3074486,20.040937 15.9308145,19.9295003 C15.7780338,19.8870037 15.6167598,19.8870037 15.463979,19.9295003 L15.463979,19.9295003 C15.2455057,19.9885751 15.0996196,20.1160903 14.9259796,20.2536914 C14.857858,20.3059886 14.7936365,20.3632976 14.7338369,20.4251525 C14.5810155,20.6005267 14.4384447,20.784789 14.3068533,20.9769978 C14.1147106,21.2140175 13.9054886,21.4344674 13.703383,21.6628421 C13.4607139,21.9373239 13.2180449,22.2118057 12.9661245,22.4776424 C12.8358945,22.6152435 12.7042412,22.7521242 12.5668948,22.8832415 C12.4295484,23.0143588 12.2907787,23.1296267 12.1626836,23.2621849 C11.86116,23.5833594 11.5795259,23.9230865 11.3193908,24.2794245 C11.1058989,24.5596697 10.9137563,24.8514417 10.7038226,25.1324073 L10.6326587,25.2282238 C10.4526139,25.4623618 10.2725691,25.6957794 10.0967942,25.9335196 C9.98222022,26.081927 9.86764627,26.2303345 9.76161199,26.383785 C9.67408033,26.5098593 9.5922418,26.6388153 9.5039985,26.7641692 C9.36167061,26.9341894 9.20866812,27.0905216 9.06064711,27.254058 C8.87135101,27.4637016 8.68418984,27.6740656 8.49133554,27.8772254 C8.31413731,28.0616541 8.15117187,28.2597709 7.96543397,28.4362749 C7.80033362,28.5926071 7.64163802,28.7590252 7.46728635,28.9081531 C7.29920163,29.0324598 7.11863201,29.1384685 6.92857527,29.2244195 L6.98621807,29.1999251 C6.88287211,29.2434067 6.78212227,29.2929602 6.68448293,29.3483325 C6.63893801,29.3749883 6.59268144,29.401644 6.54571324,29.4268588 L6.5179593,29.4340631 L6.48237732,29.4376652 C6.48237732,29.4239771 6.47668421,29.4095686 6.47454929,29.3958806 C6.46636574,29.2620096 6.46636574,29.1277545 6.47454929,28.9938836 C6.4838006,28.8152183 6.490917,28.6372734 6.50016831,28.4586081 C6.51724766,28.1027183 6.55354127,27.7497102 6.59054652,27.3952612 C6.62755177,27.0408123 6.66171047,26.6661915 6.68875277,26.3016566 C6.70156228,26.1129053 6.71010195,25.924154 6.72575802,25.7354028 C6.73999081,25.5596192 6.76133999,25.3831151 6.7777077,25.2073315 C6.79407541,25.0315479 6.81613623,24.8564847 6.83819706,24.6814215 C6.89228166,24.3212091 6.96059904,23.9609968 7.01539528,23.5950211 C7.07588464,23.1944649 7.12641104,22.7939088 7.17693744,22.3926323 C7.28226008,21.6923795 7.39446191,20.9935675 7.51354291,20.2961964 C7.57403227,19.9417475 7.62527031,19.5851373 7.68362474,19.2299679 C7.74197918,18.8747986 7.82595264,18.5059411 7.90779118,18.1457288 C8.02313179,17.5970591 8.1091281,17.0424856 8.16540466,16.4844295 C8.2249309,16.1619692 8.30190385,15.8430614 8.39597585,15.5291463 C8.49560538,15.168934 8.58384867,14.8087217 8.67138032,14.4485093 C8.75179558,14.1142323 8.8421738,13.7842778 8.90123987,13.4449577 C8.96386415,13.0847454 9.01296727,12.7245331 9.08840105,12.3643207 C9.20582156,11.811755 9.33960978,11.2627914 9.45916522,10.707344 C9.51894293,10.42926 9.58085556,10.1511761 9.63849836,9.87165133 C9.70966231,9.53665385 9.73599297,9.19661341 9.78082625,8.85801381 C9.78082625,8.86593848 9.78082625,8.87314272 9.77726806,8.8810674 C9.78723101,8.80902493 9.79648232,8.73698246 9.805022,8.66493999 C9.8249479,8.52085506 9.84700872,8.38181309 9.86551135,8.23916901 L9.84629709,8.38325394 C9.86906955,8.21251329 9.90536316,8.04465434 9.9331171,7.87463412 C9.96585252,7.67507648 9.98079694,7.47623927 10.004281,7.27596121 C10.0481434,7.06555736 10.104223,6.8579549 10.172228,6.65423471 C10.2451755,6.37956921 10.0866729,6.09651895 9.81640823,6.01882014 C9.68598497,5.98214358 9.54650598,5.9995112 9.42874976,6.06709053 C9.31099354,6.13466985 9.22463915,6.24690614 9.18874222,6.37903248 L9.18731894,6.3912797 Z M9.78458821,8.96624965 C9.78458821,8.99024965 9.77758821,9.01424965 9.77458821,9.03924965 L9.78458821,8.96624965 Z M16.0685922,21.8618514 L16.0125922,21.9348514 L16.0685922,21.8618514 Z" id="Shape"></path>
                <path d="M14.2337223,10.1726688 C14.1543977,10.2143901 14.0743832,10.2546727 13.9950586,10.2971133 C13.8384786,10.3812752 13.6846578,10.4719111 13.5322165,10.5632663 C13.2087098,10.757486 12.8900317,10.9581797 12.5713535,11.1603121 C12.2526753,11.3624445 11.9353767,11.5696122 11.6249759,11.7861312 C11.4939178,11.8774865 11.371137,11.982509 11.2455971,12.0824962 C11.0524588,12.2371526 10.857941,12.3910897 10.666872,12.5486235 C10.0812492,13.0334535 9.49424672,13.5118095 8.90379538,13.9944815 C8.60650038,14.2390545 8.30644625,14.4814695 8.0174286,14.7368325 C7.72841095,14.9921954 7.44698088,15.2403651 7.16072234,15.4928507 C6.85377042,15.7604424 6.54543894,16.025876 6.2426257,16.2985029 C5.95429783,16.5581819 5.66941886,16.8250542 5.39350702,17.0940845 C4.84628187,17.6172789 4.30388518,18.1447893 3.76631695,18.6766156 C3.40694178,19.0341238 3.06619066,19.4067379 2.72405998,19.7800714 C2.3819293,20.1534049 2.06118179,20.5101937 1.75216053,20.8971945 C1.63948441,21.0200969 1.57501229,21.1825372 1.57142857,21.3525319 C1.57051428,21.5245264 1.63562323,21.6897553 1.75224702,21.8113757 C1.8688708,21.9329961 2.02731155,22.0008946 2.19223991,22 C2.35665987,22.0024801 2.51483201,21.9343152 2.62956017,21.8114659 C3.10847875,21.2207691 3.61661694,20.6565255 4.15190374,20.1210349 C4.68717271,19.5772197 5.2555511,19.0708097 5.81289301,18.5543291 C6.3847203,18.0256199 6.96206582,17.5055426 7.56217407,17.0128 C8.16228232,16.5200573 8.76308035,15.9971027 9.37215573,15.5022021 L9.41561184,15.4662354 C10.0081325,14.9972308 10.6096203,14.5390161 11.2007614,14.0678534 C11.4849506,13.8412637 11.7691398,13.6153934 12.0567779,13.3924003 C12.2057703,13.2765878 12.3561423,13.164372 12.5120325,13.0579108 C12.6679226,12.9514496 12.8403675,12.8421111 13.0052249,12.7370886 C13.3680489,12.5061829 13.7329423,12.2795932 14.1088722,12.0681095 C14.3033901,11.9580517 14.4992875,11.8523098 14.7000133,11.7559193 C14.7903745,11.7113207 14.8821151,11.6710381 14.9759252,11.6293168 C15.0268655,11.6061729 15.0765989,11.5802408 15.1249176,11.5516289 C15.3325892,11.4311293 15.4848096,11.2282923 15.5470627,10.989111 C15.5968718,10.7857041 15.5697019,10.5701086 15.4711869,10.3870299 C15.3723792,10.2110973 15.211847,10.0821219 15.02352,10.0273637 C14.9586166,10.0086128 14.891519,9.99941224 14.8241737,10 L14.8241737,10 C14.8076189,10 14.7910642,10 14.7738197,10 C14.5841304,10 14.4054774,10.0899456 14.2399303,10.1769848 L14.2337223,10.1726688 Z" id="Path"></path>
                <path d="M16.6546789,12.5803875 C16.6546789,13.3824501 16.6634477,14.1867202 16.6393335,14.9887827 C16.6135143,15.8399011 16.5942716,16.6907743 16.5816056,17.5414021 C16.576734,17.9166791 16.5735675,18.2922014 16.572106,18.6679689 C16.572106,19.0756227 16.5662602,19.4847482 16.5889129,19.8916662 C16.6115657,20.2985842 16.6349491,20.6915213 16.6729473,21.0903451 C16.6824468,21.1896831 16.6882927,21.289757 16.7007152,21.3883592 C16.720445,21.5399416 16.7321367,21.696675 16.7606353,21.8475216 C16.7957105,22.0344242 16.8337087,22.2198552 16.8753605,22.4052862 C16.9170123,22.5907172 16.9586641,22.7835065 17.0215072,22.9674659 C17.0668127,23.1050674 17.1216177,23.238254 17.1793456,23.3714405 C17.1961525,23.4104399 17.216613,23.4487034 17.2378043,23.4869669 C17.3311539,23.6452115 17.4609907,23.7784791 17.6163243,23.875489 L17.6711293,23.8997716 C17.7817712,23.9654288 17.9080765,23.999515 18.0364961,23.9983738 C18.1383734,24.0043865 18.2405443,23.9937005 18.3390198,23.9667328 C18.5772389,23.9137525 18.7409233,23.7077181 18.8775704,23.5252305 C18.9463906,23.4344836 19.0065761,23.3374156 19.0573309,23.2353106 C19.0858295,23.1764436 19.1099437,23.1153691 19.1362501,23.0550305 C19.2305147,22.8342793 19.3225872,22.6135281 19.4036986,22.3832111 C19.6813773,21.6076386 19.9566203,20.8315756 20.2294275,20.0550221 C20.4552242,19.4082212 20.6517915,18.7511185 20.8476281,18.0947517 C21.0306793,17.5134352 21.2443564,16.9423521 21.4877507,16.3839301 C21.6507043,16.0086531 21.8238881,15.638527 21.9904954,15.2647217 C22.0906059,15.0388197 22.1856013,14.8107101 22.2689049,14.5789214 C22.331748,14.4059996 22.3931296,14.2330779 22.4610878,14.0638353 C22.4983552,13.9777424 22.5341612,13.8916494 22.5714286,13.8040848 C22.553891,13.5789186 22.5363534,13.3537524 22.5253924,13.1278504 C22.521008,13.0189465 22.5173543,12.9107784 22.5144314,12.8026103 C22.4892756,12.7664981 22.4606379,12.7329773 22.4289355,12.7025365 C22.2883033,12.5607233 22.0974466,12.4810368 21.898423,12.4810368 C21.6993994,12.4810368 21.5085426,12.5607233 21.3679104,12.7025365 C21.2927278,12.7736207 21.2299802,12.8569563 21.1823041,12.9490419 C21.1330681,13.0390282 21.0915105,13.1330627 21.0580794,13.2301318 C21.0281193,13.3162247 21.0010822,13.4023177 20.9718528,13.4884106 C20.9119327,13.6659927 20.8542047,13.8443106 20.798669,14.0233643 C20.6897897,14.372887 20.5750645,14.7187305 20.442071,15.0601589 C20.2959243,15.4329831 20.1509954,15.8058073 20.0072845,16.1786315 C19.8728295,16.524475 19.7310672,16.8695827 19.6185343,17.2235204 C19.4972325,17.6068916 19.3846995,17.9924703 19.2677821,18.3773132 C19.1450189,18.7827595 19.0149483,19.1867341 18.8826856,19.5870296 C18.640082,20.3280177 18.3711721,21.0587041 18.1022621,21.7945413 L18.072302,21.8754834 C18.0576874,21.8254465 18.0438034,21.7746737 18.0306502,21.7239009 C17.9650909,21.4639712 17.9136199,21.2006431 17.8764655,20.9350834 C17.8333522,20.5833532 17.7909696,20.2308872 17.7748935,19.8769495 L17.7449334,19.1889417 C17.7361646,18.974813 17.7398183,18.7599486 17.7376261,18.5458199 C17.7281265,17.7606816 17.7376261,16.9748074 17.75151,16.1911408 C17.7617403,15.5840751 17.7792779,14.9770093 17.7836623,14.3699436 C17.7880467,13.7753871 17.7836623,13.1808307 17.7836623,12.58701 C17.7910797,12.3798484 17.6855579,12.1851451 17.5085286,12.0793479 C17.3314993,11.9735507 17.1112263,11.9735507 16.934197,12.0793479 C16.7571678,12.1851451 16.6516459,12.3798484 16.6590633,12.58701 L16.6546789,12.5803875 Z" id="Path"></path>
                <path d="M1.77339985,22 C1.70663083,22.0027755 1.64266198,22.0170029 1.58927952,22.0409505 C1.58016218,22.0442962 1.57062062,22.047217 1.56074087,22.0496866 C1.5202344,22.0589687 1.48064853,22.0693429 1.44106266,22.080263 C1.39934749,22.0882976 1.35846378,22.097778 1.31862264,22.1086554 C1.24726431,22.1312595 1.18001365,22.1581553 1.11793149,22.1889184 C1.00914905,22.24382 0.915906315,22.3087078 0.841751003,22.3811128 C0.793420122,22.4234438 0.75327477,22.4688662 0.722072792,22.5165225 C0.696793339,22.5574745 0.680999055,22.6002713 0.675122109,22.6437421 C0.652501764,22.6576173 0.633566829,22.6734501 0.61896541,22.6906987 C0.582200945,22.7307382 0.566188135,22.7763245 0.572935329,22.8217404 C0.612843919,22.8302073 0.6518828,22.8400522 0.689851735,22.8512247 L0.829783182,22.8916293 C0.931049361,22.9227517 1.03231554,22.953874 1.13081991,22.9871805 L1.16764398,22.9871805 C1.23193332,22.9989596 1.29965099,23.0026784 1.36649393,22.9981006 C1.46802056,22.9916285 1.56715666,22.9755929 1.66016585,22.950598 C1.71428444,22.9354063 1.76577514,22.9171194 1.81390632,22.8959973 C1.9695358,22.8277923 2.1099713,22.7481695 2.23185946,22.6590303 L2.25303329,22.6486562 C2.29169856,22.6289999 2.32944323,22.6077057 2.36626729,22.5864114 C2.38822551,22.5737179 2.4088257,22.5602235 2.4279476,22.5460069 C2.45096264,22.5279887 2.47581889,22.5099704 2.49791333,22.4914062 C2.52321137,22.4673296 2.54331482,22.4414652 2.55775243,22.4144192 C2.57598728,22.3788221 2.57598728,22.340815 2.55775243,22.3052179 C2.53592238,22.2688787 2.49533379,22.2375456 2.44175663,22.2156727 C2.44657076,22.1929225 2.438473,22.1698692 2.41874159,22.1501519 C2.36724313,22.0987508 2.25562453,22.0814705 2.16833794,22.1113854 L2.02656529,22.1703542 C2.02702218,22.1654438 2.02702218,22.1605223 2.02656529,22.155612 C2.02665356,22.0729633 1.91634474,22.0051252 1.77708225,22.002184 L1.77339985,22 Z M1.56033846,22.0699813 L1.53133846,22.0829813 L1.56033846,22.0699813 Z M2.32580262,22.6109882 L2.34380262,22.5879882 L2.29080262,22.6569882 L2.32580262,22.6109882 Z" id="Shape"></path>
                <path d="M9.57142857,7.5 C9.57142857,7.77614237 9.7952862,8 10.0714286,8 C10.3475709,8 10.5714286,7.77614237 10.5714286,7.5 C10.5714286,7.22385763 10.3475709,7 10.0714286,7 C9.79616467,7.00210939 9.57353797,7.2247361 9.57142857,7.5 L9.57142857,7.5 Z" id="Path"></path>
                <path d="M50.0587541,15.0079048 C50.0136209,15.0221294 49.9703317,15.0491654 49.9308189,15.0878061 C49.9009782,15.102546 49.8720612,15.1219511 49.8444627,15.1457564 C49.8073337,15.1768134 49.7732026,15.2167586 49.7431807,15.2642912 C49.7280681,15.2892335 49.7144972,15.3165869 49.7026678,15.3459486 C49.6930727,15.3696555 49.6840106,15.3933625 49.6754816,15.4179475 C49.6524647,15.4896789 49.6328603,15.5642429 49.6168447,15.6409686 C49.6056784,15.692905 49.5965967,15.7459943 49.5896584,15.799893 L49.5896584,15.8113075 L49.5896584,15.8113075 L49.5896584,15.8183318 C49.5802078,15.9006836 49.5741526,15.9839948 49.5715343,16.0676939 C49.5707336,16.1436276 49.5744832,16.2195062 49.5827286,16.2942271 C49.5894188,16.3690193 49.5999399,16.4427448 49.6141793,16.5146141 C49.6220922,16.550928 49.6313493,16.5864087 49.6418986,16.6208564 L49.6504276,16.6428073 L49.6808123,16.7077819 C49.6968615,16.7335246 49.7147634,16.7559348 49.7341186,16.7745126 C49.7550523,16.7928662 49.7770089,16.8078618 49.7996854,16.8192924 C49.8083399,16.8244278 49.8172614,16.8282486 49.8263385,16.8307069 C49.8402305,16.8413515 49.854467,16.8507314 49.8689836,16.8588041 L49.8689836,16.8588041 C49.882602,16.8676172 49.8970113,16.8726607 49.9116287,16.8737307 L49.9180254,16.8807549 C49.9360582,16.9683434 49.9922441,17.0178808 50.0464937,16.9940216 L50.0672831,16.980851 C50.0952346,16.9891624 50.1236979,16.9918162 50.1520402,16.9887533 C50.2004771,16.9824342 50.2478069,16.9616054 50.2917028,16.9272908 C50.3735608,16.86349 50.4425735,16.7623107 50.4905354,16.635783 C50.5099721,16.5818654 50.5255355,16.524407 50.5369119,16.464566 C50.5482729,16.4097607 50.5564826,16.3533184 50.5614328,16.2959832 C50.5694146,16.2250743 50.5726323,16.1529334 50.571028,16.0808644 C50.5679987,16.0190251 50.5612127,15.9578419 50.5507716,15.898233 C50.5507716,15.8868185 50.5507716,15.874526 50.5507716,15.8631116 C50.5540158,15.7897187 50.5502382,15.7159419 50.5395772,15.6444807 C50.5253008,15.5661268 50.503527,15.492026 50.4750766,15.4249718 L50.4686798,15.4091671 C50.4553974,15.3528388 50.4399059,15.2979922 50.4223033,15.2449745 C50.4107861,15.2133577 50.3972008,15.1839142 50.3817905,15.1571709 C50.3659888,15.1294715 50.3480702,15.1052695 50.3284842,15.085172 C50.2910824,15.0453331 50.2488963,15.0192756 50.2048135,15.0087829 C50.1813546,15.0028374 50.1576509,14.9999018 50.1339161,15 C50.1076416,14.9999534 50.0814172,15.0037734 50.0555558,15.011417 L50.0587541,15.0079048 Z" id="Path"></path>
                <path d="M50.6418615,15.0119464 C50.5776526,15.0201624 50.5147666,15.0343894 50.4544014,15.0543563 C50.366656,15.0813332 50.2828183,15.1163954 50.2044546,15.1588877 C50.1415911,15.1932018 50.0853993,15.2353008 50.0378234,15.283728 C49.9921766,15.3318028 49.9517943,15.3831783 49.9171595,15.4372398 C49.90064,15.4611327 49.8862752,15.4862202 49.8726287,15.5113077 C49.8363128,15.5617311 49.806462,15.6151857 49.7835672,15.6707927 C49.7720754,15.6966767 49.7613018,15.7229589 49.7512465,15.7496393 C49.7418888,15.7776042 49.7354013,15.806179 49.7318541,15.8350563 C49.6870758,15.9053094 49.6509792,15.9791578 49.6241184,16.0554682 L49.6241184,16.0554682 C49.5987478,16.1150196 49.5828126,16.1770658 49.5767147,16.2400407 C49.5725668,16.2691754 49.5708867,16.2985165 49.571687,16.3278471 C49.5713424,16.3330199 49.5713424,16.3382046 49.571687,16.3433774 C49.5716291,16.3835301 49.5766849,16.4235749 49.58677,16.4628419 C49.5969019,16.5022615 49.6125713,16.5405539 49.6334555,16.5769304 C49.6691175,16.6408798 49.7177045,16.6992684 49.7771031,16.7495565 C49.7899498,16.7608354 49.803882,16.7712234 49.8187609,16.7806172 L49.8187609,16.7806172 C49.8431598,16.8066978 49.8708504,16.8305277 49.9013582,16.8516986 L49.9286513,16.8797727 C49.9608016,16.9085668 49.9978197,16.9333164 50.0385417,16.9532433 L50.0694259,16.9645924 C50.0983434,16.9802212 50.1313493,16.9898489 50.1656698,16.9926666 C50.2096744,16.9996484 50.254611,17.0016576 50.299262,16.9986398 C50.3208092,16.9986398 50.3416381,16.9950559 50.362467,16.9920693 C50.3962241,16.9920693 50.4342907,16.9968478 50.465175,16.9974452 C50.5546668,16.997177 50.6428871,16.9798057 50.7230224,16.9466728 C50.7766788,16.9258724 50.8272867,16.9000183 50.8738523,16.8696182 L50.9083278,16.8481146 C50.9513294,16.8305741 50.9928439,16.8106171 51.0325829,16.7883824 C51.0914538,16.7543345 51.1467197,16.7161662 51.1977776,16.6742939 C51.2029553,16.6701915 51.2084755,16.6663989 51.2142971,16.6629448 C51.2394354,16.6462198 51.2624191,16.6294947 51.2861209,16.6109778 C51.3144432,16.5863879 51.3401561,16.5598077 51.3629724,16.5315339 C51.389381,16.5015616 51.4104285,16.4685652 51.4254591,16.4335731 C51.4553301,16.3893877 51.4807932,16.3432392 51.5015923,16.2955917 C51.5305637,16.2282449 51.5482077,16.1578922 51.5540236,16.0865289 L51.5540236,16.0865289 C51.5626821,16.0420214 51.5684364,15.9971565 51.5712613,15.9521315 C51.5727685,15.8842009 51.5640826,15.8163792 51.5454048,15.7502366 C51.5451566,15.7486504 51.5451566,15.7470442 51.5454048,15.745458 C51.5433652,15.6969343 51.5368823,15.6486104 51.5260124,15.6009061 C51.5012852,15.4835709 51.4477395,15.3717346 51.3687183,15.2723789 C51.3419692,15.2406898 51.3129477,15.2103705 51.2818115,15.1815859 C51.2419155,15.1480147 51.1981299,15.1178028 51.1510922,15.0913903 C51.1253393,15.0763161 51.0976334,15.0636934 51.0684948,15.053759 C51.0264101,15.0369313 50.9823692,15.0237217 50.9370573,15.0143357 C50.8898081,15.0058867 50.841721,15.0010877 50.7934097,15 L50.7804814,15 C50.7358794,15.0021845 50.6914948,15.0067736 50.6476074,15.0137384 L50.6418615,15.0119464 Z M50.7194312,15.8207206 C50.7477445,15.8550874 50.7736443,15.8907873 50.7970009,15.9276413 C50.7977192,15.9391818 50.7977192,15.9507454 50.7970009,15.9622859 C50.7927033,15.9836461 50.7869481,16.0047856 50.7797632,16.0256021 C50.7672968,16.0461746 50.7533869,16.0661197 50.7381054,16.0853343 C50.7143665,16.1068533 50.6886736,16.1268229 50.6612539,16.1450665 C50.6132494,16.1752054 50.562319,16.2019778 50.5089875,16.2251077 L50.4680479,16.2131612 L50.4306996,16.1964362 L50.4163348,16.170154 C50.4084342,16.1540263 50.4012518,16.138496 50.3947877,16.1229656 C50.4091524,16.0823477 50.4249537,16.0429244 50.4429096,16.0035012 C50.461581,15.9709726 50.4826909,15.9394516 50.5061145,15.9091243 L50.5355623,15.8840367 C50.5727268,15.8651971 50.6113576,15.848435 50.6511986,15.8338617 C50.6703888,15.8279076 50.6900721,15.8231165 50.7100941,15.8195259 L50.7194312,15.8207206 Z" id="Shape"></path>
            </g>
        </g>
    </g>
</svg>